<svg viewBox="0 0 1498 400" xmlns="http://www.w3.org/2000/svg"><g><g><g><g><g><line x1="41.171875" y1="377" x2="36.171875" y2="377" style="visibility: inherit;" fill="rgb(0, 0, 0)" stroke="rgb(204, 204, 204)" stroke-width="1px"></line><line x1="41.171875" y1="329.875" x2="36.171875" y2="329.875" style="visibility: inherit;" fill="rgb(0, 0, 0)" stroke="rgb(204, 204, 204)" stroke-width="1px"></line><line x1="41.171875" y1="282.75" x2="36.171875" y2="282.75" style="visibility: inherit;" fill="rgb(0, 0, 0)" stroke="rgb(204, 204, 204)" stroke-width="1px"></line><line x1="41.171875" y1="235.625" x2="36.171875" y2="235.625" style="visibility: inherit;" fill="rgb(0, 0, 0)" stroke="rgb(204, 204, 204)" stroke-width="1px"></line><line x1="41.171875" y1="188.5" x2="36.171875" y2="188.5" style="visibility: inherit;" fill="rgb(0, 0, 0)" stroke="rgb(204, 204, 204)" stroke-width="1px"></line><line x1="41.171875" y1="141.375" x2="36.171875" y2="141.375" style="visibility: inherit;" fill="rgb(0, 0, 0)" stroke="rgb(204, 204, 204)" stroke-width="1px"></line><line x1="41.171875" y1="94.25000000000004" x2="36.171875" y2="94.25000000000004" style="visibility: inherit;" fill="rgb(0, 0, 0)" stroke="rgb(204, 204, 204)" stroke-width="1px"></line><line x1="41.171875" y1="47.125" x2="36.171875" y2="47.125" style="visibility: inherit;" fill="rgb(0, 0, 0)" stroke="rgb(204, 204, 204)" stroke-width="1px"></line><line x1="41.171875" y1="0" x2="36.171875" y2="0" style="visibility: inherit;" fill="rgb(0, 0, 0)" stroke="rgb(204, 204, 204)" stroke-width="1px"></line></g><g transform="translate(31.171875, 0)"><text x="0" y="377" dx="0em" dy="0.3em" style="text-anchor: end; visibility: hidden; font-family: Roboto, sans-serif; font-size: 12px; font-weight: 200;" fill="rgb(33, 33, 33)" stroke="none" stroke-width="1px">0.1</text><text x="0" y="329.875" dx="0em" dy="0.3em" style="text-anchor: end; visibility: inherit; font-family: Roboto, sans-serif; font-size: 12px; font-weight: 200;" fill="rgb(33, 33, 33)" stroke="none" stroke-width="1px">0.2</text><text x="0" y="282.75" dx="0em" dy="0.3em" style="text-anchor: end; visibility: inherit; font-family: Roboto, sans-serif; font-size: 12px; font-weight: 200;" fill="rgb(33, 33, 33)" stroke="none" stroke-width="1px">0.3</text><text x="0" y="235.625" dx="0em" dy="0.3em" style="text-anchor: end; visibility: inherit; font-family: Roboto, sans-serif; font-size: 12px; font-weight: 200;" fill="rgb(33, 33, 33)" stroke="none" stroke-width="1px">0.4</text><text x="0" y="188.5" dx="0em" dy="0.3em" style="text-anchor: end; visibility: inherit; font-family: Roboto, sans-serif; font-size: 12px; font-weight: 200;" fill="rgb(33, 33, 33)" stroke="none" stroke-width="1px">0.5</text><text x="0" y="141.375" dx="0em" dy="0.3em" style="text-anchor: end; visibility: inherit; font-family: Roboto, sans-serif; font-size: 12px; font-weight: 200;" fill="rgb(33, 33, 33)" stroke="none" stroke-width="1px">0.6</text><text x="0" y="94.25000000000004" dx="0em" dy="0.3em" style="text-anchor: end; visibility: inherit; font-family: Roboto, sans-serif; font-size: 12px; font-weight: 200;" fill="rgb(33, 33, 33)" stroke="none" stroke-width="1px">0.7</text><text x="0" y="47.125" dx="0em" dy="0.3em" style="text-anchor: end; visibility: inherit; font-family: Roboto, sans-serif; font-size: 12px; font-weight: 200;" fill="rgb(33, 33, 33)" stroke="none" stroke-width="1px">0.8</text><text x="0" y="0" dx="0em" dy="0.3em" style="text-anchor: end; visibility: hidden; font-family: Roboto, sans-serif; font-size: 12px; font-weight: 200;" fill="rgb(33, 33, 33)" stroke="none" stroke-width="1px">0.9</text></g><line x1="41.171875" y1="0" x2="41.171875" y2="377" fill="rgb(0, 0, 0)" stroke="rgb(204, 204, 204)" stroke-width="1px"></line></g></g><g transform="translate(41, 0)" clip-path="url(#clip_0)"><clipPath id="clip_0"><rect width="1456" height="377"></rect></clipPath><g><g><g><line x1="0" y1="0" x2="0" y2="377" fill="rgb(0, 0, 0)" stroke="rgb(66, 66, 66)" stroke-width="1px" opacity="0.25"></line><line x1="121.40234375" y1="0" x2="121.40234375" y2="377" fill="rgb(0, 0, 0)" stroke="rgb(66, 66, 66)" stroke-width="1px" opacity="0.25"></line><line x1="242.8046875" y1="0" x2="242.8046875" y2="377" fill="rgb(0, 0, 0)" stroke="rgb(66, 66, 66)" stroke-width="1px" opacity="0.25"></line><line x1="364.20703125" y1="0" x2="364.20703125" y2="377" fill="rgb(0, 0, 0)" stroke="rgb(66, 66, 66)" stroke-width="1px" opacity="0.25"></line><line x1="485.609375" y1="0" x2="485.609375" y2="377" fill="rgb(0, 0, 0)" stroke="rgb(66, 66, 66)" stroke-width="1px" opacity="0.25"></line><line x1="607.01171875" y1="0" x2="607.01171875" y2="377" fill="rgb(0, 0, 0)" stroke="rgb(66, 66, 66)" stroke-width="1px" opacity="0.25"></line><line x1="728.4140625" y1="0" x2="728.4140625" y2="377" fill="rgb(0, 0, 0)" stroke="rgb(66, 66, 66)" stroke-width="1px" opacity="0.25"></line><line x1="849.81640625" y1="0" x2="849.81640625" y2="377" fill="rgb(0, 0, 0)" stroke="rgb(66, 66, 66)" stroke-width="1px" opacity="0.25"></line><line x1="971.21875" y1="0" x2="971.21875" y2="377" fill="rgb(0, 0, 0)" stroke="rgb(66, 66, 66)" stroke-width="1px" opacity="0.25"></line><line x1="1092.62109375" y1="0" x2="1092.62109375" y2="377" fill="rgb(0, 0, 0)" stroke="rgb(66, 66, 66)" stroke-width="1px" opacity="0.25"></line><line x1="1214.0234375" y1="0" x2="1214.0234375" y2="377" fill="rgb(0, 0, 0)" stroke="rgb(66, 66, 66)" stroke-width="1px" opacity="0.25"></line><line x1="1335.42578125" y1="0" x2="1335.42578125" y2="377" fill="rgb(0, 0, 0)" stroke="rgb(66, 66, 66)" stroke-width="1px" opacity="0.25"></line><line x1="1456.828125" y1="0" x2="1456.828125" y2="377" fill="rgb(0, 0, 0)" stroke="rgb(66, 66, 66)" stroke-width="1px" opacity="0.25"></line></g><g><line x1="0" y1="377" x2="1456.828125" y2="377" fill="rgb(0, 0, 0)" stroke="rgb(66, 66, 66)" stroke-width="1px" opacity="0.25"></line><line x1="0" y1="329.875" x2="1456.828125" y2="329.875" fill="rgb(0, 0, 0)" stroke="rgb(66, 66, 66)" stroke-width="1px" opacity="0.25"></line><line x1="0" y1="282.75" x2="1456.828125" y2="282.75" fill="rgb(0, 0, 0)" stroke="rgb(66, 66, 66)" stroke-width="1px" opacity="0.25"></line><line x1="0" y1="235.625" x2="1456.828125" y2="235.625" fill="rgb(0, 0, 0)" stroke="rgb(66, 66, 66)" stroke-width="1px" opacity="0.25"></line><line x1="0" y1="188.5" x2="1456.828125" y2="188.5" fill="rgb(0, 0, 0)" stroke="rgb(66, 66, 66)" stroke-width="1px" opacity="0.25"></line><line x1="0" y1="141.375" x2="1456.828125" y2="141.375" fill="rgb(0, 0, 0)" stroke="rgb(66, 66, 66)" stroke-width="1px" opacity="0.25"></line><line x1="0" y1="94.25000000000004" x2="1456.828125" y2="94.25000000000004" fill="rgb(0, 0, 0)" stroke="rgb(66, 66, 66)" stroke-width="1px" opacity="0.25"></line><line x1="0" y1="47.125" x2="1456.828125" y2="47.125" fill="rgb(0, 0, 0)" stroke="rgb(66, 66, 66)" stroke-width="1px" opacity="0.25"></line><line x1="0" y1="0" x2="1456.828125" y2="0" fill="rgb(0, 0, 0)" stroke="rgb(66, 66, 66)" stroke-width="1px" opacity="0.25"></line></g></g></g><g><g><line x1="0" y1="424.125" x2="1456.828125" y2="424.125" fill="rgb(0, 0, 0)" stroke="rgb(153, 153, 153)" stroke-width="1.5px"></line></g></g><g><g><line x1="121.40234375" y1="0" x2="121.40234375" y2="377" fill="rgb(0, 0, 0)" stroke="rgb(153, 153, 153)" stroke-width="1.5px"></line></g></g><g><g><g><g><g><path stroke="rgb(0, 119, 187)" stroke-width="2px" d="M182.103515625,384.45237813378134L194.24375,374.32956874868887L206.38398437499998,365.017267826734L218.52421875,359.0743450333236L230.664453125,350.1663614581561L242.8046875,342.6515484198177L254.94492187499998,336.516938136238L267.08515624999995,327.91299572780946L279.22539062500005,322.27619284478567L291.365625,315.03867479605987L303.505859375,307.5669803373705L315.64609375000003,302.004237851679L327.786328125,295.8594061031322L339.9265625,290.32798515401026L352.066796875,285.75496834327885L364.20703125,276.8888416876347L376.34726562500003,269.1084695483789L388.4875,262.73701711544857L400.62773437500005,257.202641671273L412.76796874999997,249.95530197139587L424.908203125,244.5031868981275L437.0484375,237.72445193333226L449.188671875,231.64758644590387L461.32890625,225.16515134493446L473.469140625,220.72453543852131L485.609375,215.4813885994507L497.74960937500003,207.89513391722852L509.88984374999995,202.64406861007788L522.030078125,195.9603049934661L534.1703124999999,192.3397718928188L546.310546875,189.74090847445746L558.4507812500001,187.0514251844929L570.591015625,184.46651824091757L582.73125,178.50002094831888L594.871484375,173.76905934611446L607.01171875,170.48860237096588L619.151953125,169.35089948179112L631.2921875000001,165.32381374363126L643.4324218749999,164.68135176721424L655.57265625,164.1731045401952L667.712890625,161.0058401616542L679.853125,158.49579968992194L691.993359375,155.8512284930548L704.13359375,153.52009057852476L716.2738281249999,151.60292434007076L728.4140625,148.25742615048546L740.554296875,145.91472582091873L752.6945312500001,143.55066338222795L764.834765625,140.00886710310553L776.975,136.6682007659925L789.115234375,133.28252283629365L801.2554687500001,129.37511749205854L813.3957031250001,126.36224213920711L825.5359374999999,123.26625730206152L837.6761718749999,121.26473995810487L849.81640625,118.74922273615437L861.956640625,116.60389460360666L874.096875,115.51966658971105L886.2371093749999,114.07497266376849L898.37734375,113.24912085202239L910.517578125,112.54468609730539L922.6578125,112.55871447229468L934.7980468750001,113.29419035496757L946.93828125,113.28245027531652L959.078515625,111.97789980572142L971.21875,111.35891534448672L983.3589843750001,111.58739794231064L995.4992187500001,111.50748552642227L1007.6394531249999,110.93552673317173L1019.7796874999999,109.5898886231016L1031.919921875,109.49458772584387L1044.06015625,108.46035899904122L1056.200390625,107.09258399121013L1068.3406249999998,107.41442078776383L1080.4808593750001,107.62709506408702L1092.62109375,107.11941213641367L1104.7613281249999,106.56063345214011L1116.9015625000002,105.83587724650079L1129.041796875,104.77340985944375L1141.18203125,103.95872350699015L1153.322265625,102.85962313512748L1165.4625,102.1079758352029L1177.602734375,101.4420752791159L1189.74296875,100.73224481747107L1201.883203125,100.24704570058317L1214.0234375,99.94140999605261L1226.163671875,99.29043055230382L1238.30390625,98.91903307827712L1250.4441406249998,98.32380599255801L1262.5843750000001,97.93592948004869L1274.724609375,97.42360876372615L1286.8648437499999,96.93575212580657L1299.0050781250002,96.73176469339548L1311.1453125,96.82495853861347L1323.285546875,95.96034109926327L1335.42578125,95.55097046098767" style="fill: none;" fill="none"></path></g><g><path stroke="rgb(0, 153, 136)" stroke-width="2px" d="M133.54257812499998,381.1072994247079L145.6828125,361.5462003651322L157.82304687500002,329.88101654551815L169.96328125,302.98313657059947L182.103515625,273.74700300843045L194.24375,253.2019520085537L206.38398437499998,229.9236814857621L218.52421875,210.1614485416941L230.664453125,196.31699246870792L242.8046875,182.65616050091478L254.94492187499998,172.55367357374195L267.08515624999995,161.15267856746004L279.22539062500005,154.25957297580874L291.365625,151.64543542743067L303.505859375,143.98912457497556L315.64609375000003,141.227469270055L327.786328125,139.51287300331015L339.9265625,134.31649890863693L352.066796875,128.95203692095396L364.20703125,126.654511097317L376.34726562500003,124.8100191428242L388.4875,121.34956744207811L400.62773437500005,117.29582714020091L412.76796874999997,114.56506781851262L424.908203125,113.93967680987832L437.0484375,110.8808917499982L449.188671875,107.96569061652986L461.32890625,108.95575855719413L473.469140625,108.25409005595712L485.609375,106.0450302979528L497.74960937500003,103.56083500410186L509.88984374999995,102.37679927074446L522.030078125,99.93967623000499L534.1703124999999,98.67677596713783L546.310546875,96.1539201267954L558.4507812500001,94.42412597231834L570.591015625,92.93890902619077L582.73125,91.03154133264765L594.871484375,93.12017375214678L607.01171875,89.82245753729364L619.151953125,90.99600788723691L631.2921875000001,91.1910586999697L643.4324218749999,91.50917049335047L655.57265625,90.44136095087516L667.712890625,87.31303982143437L679.853125,85.5653562318913L691.993359375,85.8604415399875L704.13359375,84.88105893390322L716.2738281249999,83.1228051737222L728.4140625,81.2411129209471L740.554296875,79.837929495156L752.6945312500001,79.91547458051463L764.834765625,79.36088121937945L776.975,78.15039861802529L789.115234375,76.88252542975066L801.2554687500001,75.23169343806774L813.3957031250001,74.43230968199639L825.5359374999999,72.37071323682333L837.6761718749999,70.94924639039907L849.81640625,69.46204503997366L861.956640625,69.79514384045724L874.096875,67.55787117942879L886.2371093749999,66.26439313688705L898.37734375,66.19433235883011L910.517578125,66.45884460663376L922.6578125,67.2815236178373L934.7980468750001,67.70032522841308L946.93828125,67.33817170121675L959.078515625,67.53015425240045L971.21875,67.82023519536875L983.3589843750001,66.54558154500141L995.4992187500001,65.08387527797588L1007.6394531249999,64.21032327970255L1019.7796874999999,64.00380773878325L1031.919921875,61.560896262742496L1044.06015625,60.9306418092355L1056.200390625,61.02479482241302L1068.3406249999998,61.162665179656905L1080.4808593750001,61.53266726808969L1092.62109375,60.28600086496602L1104.7613281249999,60.596933357276505L1116.9015625000002,60.36390401861544L1129.041796875,60.09466497267172L1141.18203125,59.417918814211404L1153.322265625,59.635069240921325L1165.4625,59.05633357750988L1177.602734375,59.180274317190786L1189.74296875,58.933843463376604L1201.883203125,58.80820872170658L1214.0234375,58.33229440917328L1226.163671875,58.24547891300771L1238.30390625,58.51927458335075L1250.4441406249998,56.873516876036575L1262.5843750000001,55.887286918481976L1274.724609375,55.659005342197915L1286.8648437499999,55.60736983315502L1299.0050781250002,55.667732943870746" style="fill: none;" fill="none"></path></g></g></g></g><g opacity="0.2"><g><g><g><path stroke="rgb(0, 119, 187)" stroke-width="2px" d="M169.96328125,382.53577076271176L182.103515625,369.13525419682264L194.24375,359.8537893630564L206.38398437499998,351.4398436844349L218.52421875,350.3096882663667L230.664453125,336.93904402107L242.8046875,331.44748766347766L254.94492187499998,327.3484069891274L267.08515624999995,315.0351754799485L279.22539062500005,313.8320316039026L291.365625,304.1909051537514L303.505859375,296.3647082671523L315.64609375000003,293.6624780893326L327.786328125,286.6437186524272L339.9265625,282.0316963866353L352.066796875,278.8958611190319L364.20703125,263.59013794362545L376.34726562500003,257.43816735595465L388.4875,253.17996425926685L400.62773437500005,248.90114406496286L412.76796874999997,239.08434393256903L424.908203125,236.32503753900528L437.0484375,227.55636683106422L449.188671875,222.53229754418135L461.32890625,215.4415046647191L473.469140625,214.0636140331626L485.609375,207.61667007952929L497.74960937500003,196.515753403306L509.88984374999995,194.76747127622366L522.030078125,185.9346600472927L534.1703124999999,186.90897239744663L546.310546875,185.84261341392994L558.4507812500001,183.01720029115677L570.591015625,180.58915784955025L582.73125,169.55027504265308L594.871484375,166.67261695861816L607.01171875,165.56791691482067L619.151953125,167.64434514939785L631.2921875000001,159.28318513929844L643.4324218749999,163.71765880286694L655.57265625,163.41073369979858L667.712890625,156.2549435943365L679.853125,154.73073898255825L691.993359375,151.88437169790268L704.13359375,150.0233837068081L716.2738281249999,148.72717498242855L728.4140625,143.239178866148L740.554296875,142.40067532658577L752.6945312500001,140.00456972420216L764.834765625,134.69617268443108L776.975,131.6572012603283L789.115234375,128.20400594174862L801.2554687500001,123.51400947570801L813.3957031250001,121.84292910993099L825.5359374999999,118.6222800463438L837.6761718749999,118.26246394217014L849.81640625,114.97594690322876L861.956640625,113.38590240478516L874.096875,113.89332456886768L886.2371093749999,111.90793177485466L898.37734375,112.01034313440323L910.517578125,111.48803396522999L922.6578125,112.5797570347786L934.7980468750001,114.39740417897701L946.93828125,113.26484015583992L959.078515625,110.02107410132885L971.21875,110.43043865263462L983.3589843750001,111.93012183904648L995.4992187500001,111.3876169025898L1007.6394531249999,110.07758854329586L1019.7796874999999,107.57143145799637L1031.919921875,109.3516363799572L1044.06015625,106.90901590883732L1056.200390625,105.04092147946358L1068.3406249999998,107.89717598259449L1080.4808593750001,107.94610647857189L1092.62109375,106.35788774490356L1104.7613281249999,105.72246542572975L1116.9015625000002,104.74874293804169L1129.041796875,103.17970877885818L1141.18203125,102.73669397830963L1153.322265625,101.21097257733345L1165.4625,100.9805048853159L1177.602734375,100.44322444498539L1189.74296875,99.66749912500381L1201.883203125,99.51924702525139L1214.0234375,99.48295643925667L1226.163671875,98.3139613866806L1238.30390625,98.36193686723709L1250.4441406249998,97.43096536397934L1262.5843750000001,97.35411471128464L1274.724609375,96.65512768924236L1286.8648437499999,96.20396716892719L1299.0050781250002,96.42578354477882L1311.1453125,96.96474930644035L1323.285546875,94.663414940238L1335.42578125,94.93691450357437" style="fill: none;" fill="none"></path></g><g><path stroke="rgb(0, 153, 136)" stroke-width="2px" d="M121.40234375,406.4124694317579L133.54257812499998,365.92419742047787L145.6828125,342.76754526793957L157.82304687500002,292.642760373652L169.96328125,267.8652644753456L182.103515625,233.3029052838683L194.24375,223.82220035791397L206.38398437499998,195.98373959213495L218.52421875,181.01599356532097L230.664453125,175.75958868861198L242.8046875,162.2888152897358L254.94492187499998,157.45492047071457L267.08515624999995,144.08841228485107L279.22539062500005,143.93341889977455L291.365625,147.72730192542076L303.505859375,132.51005811989307L315.64609375000003,137.0861549526453L327.786328125,136.94141393899918L339.9265625,126.52272938191891L352.066796875,120.90583427250385L364.20703125,123.20834836363792L376.34726562500003,122.04334190487862L388.4875,116.15895821154118L400.62773437500005,111.21526470780373L412.76796874999997,110.46894824504852L424.908203125,113.00159296393394L437.0484375,106.29272198677063L449.188671875,103.59289339184761L461.32890625,110.44085955619812L473.469140625,107.20158769190311L485.609375,102.7314413934946L497.74960937500003,99.83454255759716L509.88984374999995,100.60074581205845L522.030078125,96.28399184346199L534.1703124999999,96.78242562711239L546.310546875,92.3696364313364L558.4507812500001,91.82943476736546L570.591015625,90.71108362078667L582.73125,88.17048980295658L594.871484375,96.2531223744154L607.01171875,84.87588322162628L619.151953125,92.7563334107399L631.2921875000001,91.48363491892815L643.4324218749999,91.9863381832838L655.57265625,88.83964663743973L667.712890625,82.62055812776089L679.853125,82.94383084774017L691.993359375,86.30306950211525L704.13359375,83.41198502480984L716.2738281249999,80.48542453348637L728.4140625,78.41857454180717L740.554296875,77.73315435647964L752.6945312500001,80.03179220855236L764.834765625,78.52899117767811L776.975,76.33467471599579L789.115234375,74.98071564733982L801.2554687500001,72.75544545054436L813.3957031250001,73.23323404788971L825.5359374999999,69.27831856906414L837.6761718749999,68.81704612076283L849.81640625,67.23124301433563L861.956640625,70.29479204118252L874.096875,64.20196218788624L886.2371093749999,64.32417607307434L898.37734375,66.0892411917448L910.517578125,66.8556129783392L922.6578125,68.5155421346426L934.7980468750001,68.32852764427662L946.93828125,66.79494141042233L959.078515625,67.81812807917595L971.21875,68.25535660982132L983.3589843750001,64.63360106945038L995.4992187500001,62.89131587743759L1007.6394531249999,62.899995282292366L1019.7796874999999,63.694034427404404L1031.919921875,57.89652904868126L1044.06015625,59.985260128974915L1056.200390625,61.1660243421793L1068.3406249999998,61.369470715522766L1080.4808593750001,62.087670400738716L1092.62109375,58.41600126028061L1104.7613281249999,61.063332095742226L1116.9015625000002,60.01436001062393L1129.041796875,59.69080640375614L1141.18203125,58.40279957652092L1153.322265625,59.960794880986214L1165.4625,58.18823008239269L1177.602734375,59.366185426712036L1189.74296875,58.564197182655334L1201.883203125,58.61975660920143L1214.0234375,57.61842294037342L1226.163671875,58.115255668759346L1238.30390625,58.92996808886528L1250.4441406249998,54.404880315065384L1262.5843750000001,54.40794198215008L1274.724609375,55.31658297777176L1286.8648437499999,55.52991656959057L1299.0050781250002,55.758277609944344" style="fill: none;" fill="none"></path></g></g></g></g></g></g><g transform="translate(41, 377)" clip-path="url(#clip_1)"><clipPath id="clip_1"><rect width="1456" height="23"></rect></clipPath><g><g><line x1="0" y1="0" x2="0" y2="5" style="visibility: inherit;" fill="rgb(0, 0, 0)" stroke="rgb(204, 204, 204)" stroke-width="1px"></line><line x1="121.40234375" y1="0" x2="121.40234375" y2="5" style="visibility: inherit;" fill="rgb(0, 0, 0)" stroke="rgb(204, 204, 204)" stroke-width="1px"></line><line x1="242.8046875" y1="0" x2="242.8046875" y2="5" style="visibility: inherit;" fill="rgb(0, 0, 0)" stroke="rgb(204, 204, 204)" stroke-width="1px"></line><line x1="364.20703125" y1="0" x2="364.20703125" y2="5" style="visibility: inherit;" fill="rgb(0, 0, 0)" stroke="rgb(204, 204, 204)" stroke-width="1px"></line><line x1="485.609375" y1="0" x2="485.609375" y2="5" style="visibility: inherit;" fill="rgb(0, 0, 0)" stroke="rgb(204, 204, 204)" stroke-width="1px"></line><line x1="607.01171875" y1="0" x2="607.01171875" y2="5" style="visibility: inherit;" fill="rgb(0, 0, 0)" stroke="rgb(204, 204, 204)" stroke-width="1px"></line><line x1="728.4140625" y1="0" x2="728.4140625" y2="5" style="visibility: inherit;" fill="rgb(0, 0, 0)" stroke="rgb(204, 204, 204)" stroke-width="1px"></line><line x1="849.81640625" y1="0" x2="849.81640625" y2="5" style="visibility: inherit;" fill="rgb(0, 0, 0)" stroke="rgb(204, 204, 204)" stroke-width="1px"></line><line x1="971.21875" y1="0" x2="971.21875" y2="5" style="visibility: inherit;" fill="rgb(0, 0, 0)" stroke="rgb(204, 204, 204)" stroke-width="1px"></line><line x1="1092.62109375" y1="0" x2="1092.62109375" y2="5" style="visibility: inherit;" fill="rgb(0, 0, 0)" stroke="rgb(204, 204, 204)" stroke-width="1px"></line><line x1="1214.0234375" y1="0" x2="1214.0234375" y2="5" style="visibility: inherit;" fill="rgb(0, 0, 0)" stroke="rgb(204, 204, 204)" stroke-width="1px"></line><line x1="1335.42578125" y1="0" x2="1335.42578125" y2="5" style="visibility: inherit;" fill="rgb(0, 0, 0)" stroke="rgb(204, 204, 204)" stroke-width="1px"></line><line x1="1456.828125" y1="0" x2="1456.828125" y2="5" style="visibility: inherit;" fill="rgb(0, 0, 0)" stroke="rgb(204, 204, 204)" stroke-width="1px"></line></g><g transform="translate(0, 8)"><text x="0" y="0" dx="0em" dy="0.95em" style="text-anchor: middle; visibility: hidden; font-family: Roboto, sans-serif; font-size: 12px; font-weight: 200;" fill="rgb(33, 33, 33)" stroke="none" stroke-width="1px">-10</text><text x="121.40234375" y="0" dx="0em" dy="0.95em" style="text-anchor: middle; visibility: inherit; font-family: Roboto, sans-serif; font-size: 12px; font-weight: 200;" fill="rgb(33, 33, 33)" stroke="none" stroke-width="1px">0</text><text x="242.8046875" y="0" dx="0em" dy="0.95em" style="text-anchor: middle; visibility: inherit; font-family: Roboto, sans-serif; font-size: 12px; font-weight: 200;" fill="rgb(33, 33, 33)" stroke="none" stroke-width="1px">10</text><text x="364.20703125" y="0" dx="0em" dy="0.95em" style="text-anchor: middle; visibility: inherit; font-family: Roboto, sans-serif; font-size: 12px; font-weight: 200;" fill="rgb(33, 33, 33)" stroke="none" stroke-width="1px">20</text><text x="485.609375" y="0" dx="0em" dy="0.95em" style="text-anchor: middle; visibility: inherit; font-family: Roboto, sans-serif; font-size: 12px; font-weight: 200;" fill="rgb(33, 33, 33)" stroke="none" stroke-width="1px">30</text><text x="607.01171875" y="0" dx="0em" dy="0.95em" style="text-anchor: middle; visibility: inherit; font-family: Roboto, sans-serif; font-size: 12px; font-weight: 200;" fill="rgb(33, 33, 33)" stroke="none" stroke-width="1px">40</text><text x="728.4140625" y="0" dx="0em" dy="0.95em" style="text-anchor: middle; visibility: inherit; font-family: Roboto, sans-serif; font-size: 12px; font-weight: 200;" fill="rgb(33, 33, 33)" stroke="none" stroke-width="1px">50</text><text x="849.81640625" y="0" dx="0em" dy="0.95em" style="text-anchor: middle; visibility: inherit; font-family: Roboto, sans-serif; font-size: 12px; font-weight: 200;" fill="rgb(33, 33, 33)" stroke="none" stroke-width="1px">60</text><text x="971.21875" y="0" dx="0em" dy="0.95em" style="text-anchor: middle; visibility: inherit; font-family: Roboto, sans-serif; font-size: 12px; font-weight: 200;" fill="rgb(33, 33, 33)" stroke="none" stroke-width="1px">70</text><text x="1092.62109375" y="0" dx="0em" dy="0.95em" style="text-anchor: middle; visibility: inherit; font-family: Roboto, sans-serif; font-size: 12px; font-weight: 200;" fill="rgb(33, 33, 33)" stroke="none" stroke-width="1px">80</text><text x="1214.0234375" y="0" dx="0em" dy="0.95em" style="text-anchor: middle; visibility: inherit; font-family: Roboto, sans-serif; font-size: 12px; font-weight: 200;" fill="rgb(33, 33, 33)" stroke="none" stroke-width="1px">90</text><text x="1335.42578125" y="0" dx="0em" dy="0.95em" style="text-anchor: middle; visibility: inherit; font-family: Roboto, sans-serif; font-size: 12px; font-weight: 200;" fill="rgb(33, 33, 33)" stroke="none" stroke-width="1px">100</text><text x="1456.828125" y="0" dx="0em" dy="0.95em" style="text-anchor: middle; visibility: hidden; font-family: Roboto, sans-serif; font-size: 12px; font-weight: 200;" fill="rgb(33, 33, 33)" stroke="none" stroke-width="1px">110</text></g><line x1="0" y1="0" x2="1456.828125" y2="0" fill="rgb(0, 0, 0)" stroke="rgb(204, 204, 204)" stroke-width="1px"></line></g></g></g></g></svg>