<svg viewBox="0 0 1498 400" xmlns="http://www.w3.org/2000/svg"><g><g><g><g><g><line x1="51.5625" y1="377" x2="46.5625" y2="377" style="visibility: inherit;" fill="rgb(0, 0, 0)" stroke="rgb(204, 204, 204)" stroke-width="1px"></line><line x1="51.5625" y1="351.8666666666667" x2="46.5625" y2="351.8666666666667" style="visibility: inherit;" fill="rgb(0, 0, 0)" stroke="rgb(204, 204, 204)" stroke-width="1px"></line><line x1="51.5625" y1="326.73333333333335" x2="46.5625" y2="326.73333333333335" style="visibility: inherit;" fill="rgb(0, 0, 0)" stroke="rgb(204, 204, 204)" stroke-width="1px"></line><line x1="51.5625" y1="301.59999999999997" x2="46.5625" y2="301.59999999999997" style="visibility: inherit;" fill="rgb(0, 0, 0)" stroke="rgb(204, 204, 204)" stroke-width="1px"></line><line x1="51.5625" y1="276.4666666666667" x2="46.5625" y2="276.4666666666667" style="visibility: inherit;" fill="rgb(0, 0, 0)" stroke="rgb(204, 204, 204)" stroke-width="1px"></line><line x1="51.5625" y1="251.33333333333337" x2="46.5625" y2="251.33333333333337" style="visibility: inherit;" fill="rgb(0, 0, 0)" stroke="rgb(204, 204, 204)" stroke-width="1px"></line><line x1="51.5625" y1="226.2" x2="46.5625" y2="226.2" style="visibility: inherit;" fill="rgb(0, 0, 0)" stroke="rgb(204, 204, 204)" stroke-width="1px"></line><line x1="51.5625" y1="201.06666666666663" x2="46.5625" y2="201.06666666666663" style="visibility: inherit;" fill="rgb(0, 0, 0)" stroke="rgb(204, 204, 204)" stroke-width="1px"></line><line x1="51.5625" y1="175.93333333333334" x2="46.5625" y2="175.93333333333334" style="visibility: inherit;" fill="rgb(0, 0, 0)" stroke="rgb(204, 204, 204)" stroke-width="1px"></line><line x1="51.5625" y1="150.8" x2="46.5625" y2="150.8" style="visibility: inherit;" fill="rgb(0, 0, 0)" stroke="rgb(204, 204, 204)" stroke-width="1px"></line><line x1="51.5625" y1="125.66666666666664" x2="46.5625" y2="125.66666666666664" style="visibility: inherit;" fill="rgb(0, 0, 0)" stroke="rgb(204, 204, 204)" stroke-width="1px"></line><line x1="51.5625" y1="100.53333333333336" x2="46.5625" y2="100.53333333333336" style="visibility: inherit;" fill="rgb(0, 0, 0)" stroke="rgb(204, 204, 204)" stroke-width="1px"></line><line x1="51.5625" y1="75.39999999999998" x2="46.5625" y2="75.39999999999998" style="visibility: inherit;" fill="rgb(0, 0, 0)" stroke="rgb(204, 204, 204)" stroke-width="1px"></line><line x1="51.5625" y1="50.26666666666666" x2="46.5625" y2="50.26666666666666" style="visibility: inherit;" fill="rgb(0, 0, 0)" stroke="rgb(204, 204, 204)" stroke-width="1px"></line><line x1="51.5625" y1="25.13333333333337" x2="46.5625" y2="25.13333333333337" style="visibility: inherit;" fill="rgb(0, 0, 0)" stroke="rgb(204, 204, 204)" stroke-width="1px"></line><line x1="51.5625" y1="0" x2="46.5625" y2="0" style="visibility: inherit;" fill="rgb(0, 0, 0)" stroke="rgb(204, 204, 204)" stroke-width="1px"></line></g><g transform="translate(41.5625, 0)"><text x="0" y="377" dx="0em" dy="0.3em" style="text-anchor: end; visibility: hidden; font-family: Roboto, sans-serif; font-size: 12px; font-weight: 200;" fill="rgb(33, 33, 33)" stroke="none" stroke-width="1px">0.08</text><text x="0" y="351.8666666666667" dx="0em" dy="0.3em" style="text-anchor: end; visibility: inherit; font-family: Roboto, sans-serif; font-size: 12px; font-weight: 200;" fill="rgb(33, 33, 33)" stroke="none" stroke-width="1px">0.1</text><text x="0" y="326.73333333333335" dx="0em" dy="0.3em" style="text-anchor: end; visibility: inherit; font-family: Roboto, sans-serif; font-size: 12px; font-weight: 200;" fill="rgb(33, 33, 33)" stroke="none" stroke-width="1px">0.12</text><text x="0" y="301.59999999999997" dx="0em" dy="0.3em" style="text-anchor: end; visibility: inherit; font-family: Roboto, sans-serif; font-size: 12px; font-weight: 200;" fill="rgb(33, 33, 33)" stroke="none" stroke-width="1px">0.14</text><text x="0" y="276.4666666666667" dx="0em" dy="0.3em" style="text-anchor: end; visibility: inherit; font-family: Roboto, sans-serif; font-size: 12px; font-weight: 200;" fill="rgb(33, 33, 33)" stroke="none" stroke-width="1px">0.16</text><text x="0" y="251.33333333333337" dx="0em" dy="0.3em" style="text-anchor: end; visibility: inherit; font-family: Roboto, sans-serif; font-size: 12px; font-weight: 200;" fill="rgb(33, 33, 33)" stroke="none" stroke-width="1px">0.18</text><text x="0" y="226.2" dx="0em" dy="0.3em" style="text-anchor: end; visibility: inherit; font-family: Roboto, sans-serif; font-size: 12px; font-weight: 200;" fill="rgb(33, 33, 33)" stroke="none" stroke-width="1px">0.2</text><text x="0" y="201.06666666666663" dx="0em" dy="0.3em" style="text-anchor: end; visibility: inherit; font-family: Roboto, sans-serif; font-size: 12px; font-weight: 200;" fill="rgb(33, 33, 33)" stroke="none" stroke-width="1px">0.22</text><text x="0" y="175.93333333333334" dx="0em" dy="0.3em" style="text-anchor: end; visibility: inherit; font-family: Roboto, sans-serif; font-size: 12px; font-weight: 200;" fill="rgb(33, 33, 33)" stroke="none" stroke-width="1px">0.24</text><text x="0" y="150.8" dx="0em" dy="0.3em" style="text-anchor: end; visibility: inherit; font-family: Roboto, sans-serif; font-size: 12px; font-weight: 200;" fill="rgb(33, 33, 33)" stroke="none" stroke-width="1px">0.26</text><text x="0" y="125.66666666666664" dx="0em" dy="0.3em" style="text-anchor: end; visibility: inherit; font-family: Roboto, sans-serif; font-size: 12px; font-weight: 200;" fill="rgb(33, 33, 33)" stroke="none" stroke-width="1px">0.28</text><text x="0" y="100.53333333333336" dx="0em" dy="0.3em" style="text-anchor: end; visibility: inherit; font-family: Roboto, sans-serif; font-size: 12px; font-weight: 200;" fill="rgb(33, 33, 33)" stroke="none" stroke-width="1px">0.3</text><text x="0" y="75.39999999999998" dx="0em" dy="0.3em" style="text-anchor: end; visibility: inherit; font-family: Roboto, sans-serif; font-size: 12px; font-weight: 200;" fill="rgb(33, 33, 33)" stroke="none" stroke-width="1px">0.32</text><text x="0" y="50.26666666666666" dx="0em" dy="0.3em" style="text-anchor: end; visibility: inherit; font-family: Roboto, sans-serif; font-size: 12px; font-weight: 200;" fill="rgb(33, 33, 33)" stroke="none" stroke-width="1px">0.34</text><text x="0" y="25.13333333333337" dx="0em" dy="0.3em" style="text-anchor: end; visibility: inherit; font-family: Roboto, sans-serif; font-size: 12px; font-weight: 200;" fill="rgb(33, 33, 33)" stroke="none" stroke-width="1px">0.36</text><text x="0" y="0" dx="0em" dy="0.3em" style="text-anchor: end; visibility: hidden; font-family: Roboto, sans-serif; font-size: 12px; font-weight: 200;" fill="rgb(33, 33, 33)" stroke="none" stroke-width="1px">0.38</text></g><line x1="51.5625" y1="0" x2="51.5625" y2="377" fill="rgb(0, 0, 0)" stroke="rgb(204, 204, 204)" stroke-width="1px"></line></g></g><g transform="translate(51, 0)" clip-path="url(#clip_0)"><clipPath id="clip_0"><rect width="1446" height="377"></rect></clipPath><g><g><g><line x1="0" y1="0" x2="0" y2="377" fill="rgb(0, 0, 0)" stroke="rgb(66, 66, 66)" stroke-width="1px" opacity="0.25"></line><line x1="160.71527777777777" y1="0" x2="160.71527777777777" y2="377" fill="rgb(0, 0, 0)" stroke="rgb(66, 66, 66)" stroke-width="1px" opacity="0.25"></line><line x1="321.43055555555554" y1="0" x2="321.43055555555554" y2="377" fill="rgb(0, 0, 0)" stroke="rgb(66, 66, 66)" stroke-width="1px" opacity="0.25"></line><line x1="482.1458333333333" y1="0" x2="482.1458333333333" y2="377" fill="rgb(0, 0, 0)" stroke="rgb(66, 66, 66)" stroke-width="1px" opacity="0.25"></line><line x1="642.8611111111111" y1="0" x2="642.8611111111111" y2="377" fill="rgb(0, 0, 0)" stroke="rgb(66, 66, 66)" stroke-width="1px" opacity="0.25"></line><line x1="803.5763888888889" y1="0" x2="803.5763888888889" y2="377" fill="rgb(0, 0, 0)" stroke="rgb(66, 66, 66)" stroke-width="1px" opacity="0.25"></line><line x1="964.2916666666666" y1="0" x2="964.2916666666666" y2="377" fill="rgb(0, 0, 0)" stroke="rgb(66, 66, 66)" stroke-width="1px" opacity="0.25"></line><line x1="1125.0069444444446" y1="0" x2="1125.0069444444446" y2="377" fill="rgb(0, 0, 0)" stroke="rgb(66, 66, 66)" stroke-width="1px" opacity="0.25"></line><line x1="1285.7222222222222" y1="0" x2="1285.7222222222222" y2="377" fill="rgb(0, 0, 0)" stroke="rgb(66, 66, 66)" stroke-width="1px" opacity="0.25"></line><line x1="1446.4375" y1="0" x2="1446.4375" y2="377" fill="rgb(0, 0, 0)" stroke="rgb(66, 66, 66)" stroke-width="1px" opacity="0.25"></line></g><g><line x1="0" y1="377" x2="1446.4375" y2="377" fill="rgb(0, 0, 0)" stroke="rgb(66, 66, 66)" stroke-width="1px" opacity="0.25"></line><line x1="0" y1="351.8666666666667" x2="1446.4375" y2="351.8666666666667" fill="rgb(0, 0, 0)" stroke="rgb(66, 66, 66)" stroke-width="1px" opacity="0.25"></line><line x1="0" y1="326.73333333333335" x2="1446.4375" y2="326.73333333333335" fill="rgb(0, 0, 0)" stroke="rgb(66, 66, 66)" stroke-width="1px" opacity="0.25"></line><line x1="0" y1="301.59999999999997" x2="1446.4375" y2="301.59999999999997" fill="rgb(0, 0, 0)" stroke="rgb(66, 66, 66)" stroke-width="1px" opacity="0.25"></line><line x1="0" y1="276.4666666666667" x2="1446.4375" y2="276.4666666666667" fill="rgb(0, 0, 0)" stroke="rgb(66, 66, 66)" stroke-width="1px" opacity="0.25"></line><line x1="0" y1="251.33333333333337" x2="1446.4375" y2="251.33333333333337" fill="rgb(0, 0, 0)" stroke="rgb(66, 66, 66)" stroke-width="1px" opacity="0.25"></line><line x1="0" y1="226.2" x2="1446.4375" y2="226.2" fill="rgb(0, 0, 0)" stroke="rgb(66, 66, 66)" stroke-width="1px" opacity="0.25"></line><line x1="0" y1="201.06666666666663" x2="1446.4375" y2="201.06666666666663" fill="rgb(0, 0, 0)" stroke="rgb(66, 66, 66)" stroke-width="1px" opacity="0.25"></line><line x1="0" y1="175.93333333333334" x2="1446.4375" y2="175.93333333333334" fill="rgb(0, 0, 0)" stroke="rgb(66, 66, 66)" stroke-width="1px" opacity="0.25"></line><line x1="0" y1="150.8" x2="1446.4375" y2="150.8" fill="rgb(0, 0, 0)" stroke="rgb(66, 66, 66)" stroke-width="1px" opacity="0.25"></line><line x1="0" y1="125.66666666666664" x2="1446.4375" y2="125.66666666666664" fill="rgb(0, 0, 0)" stroke="rgb(66, 66, 66)" stroke-width="1px" opacity="0.25"></line><line x1="0" y1="100.53333333333336" x2="1446.4375" y2="100.53333333333336" fill="rgb(0, 0, 0)" stroke="rgb(66, 66, 66)" stroke-width="1px" opacity="0.25"></line><line x1="0" y1="75.39999999999998" x2="1446.4375" y2="75.39999999999998" fill="rgb(0, 0, 0)" stroke="rgb(66, 66, 66)" stroke-width="1px" opacity="0.25"></line><line x1="0" y1="50.26666666666666" x2="1446.4375" y2="50.26666666666666" fill="rgb(0, 0, 0)" stroke="rgb(66, 66, 66)" stroke-width="1px" opacity="0.25"></line><line x1="0" y1="25.13333333333337" x2="1446.4375" y2="25.13333333333337" fill="rgb(0, 0, 0)" stroke="rgb(66, 66, 66)" stroke-width="1px" opacity="0.25"></line><line x1="0" y1="0" x2="1446.4375" y2="0" fill="rgb(0, 0, 0)" stroke="rgb(66, 66, 66)" stroke-width="1px" opacity="0.25"></line></g></g></g><g><g><line x1="0" y1="477.5333333333333" x2="1446.4375" y2="477.5333333333333" fill="rgb(0, 0, 0)" stroke="rgb(153, 153, 153)" stroke-width="1.5px"></line></g></g><g><g><line x1="160.71527777777777" y1="0" x2="160.71527777777777" y2="377" fill="rgb(0, 0, 0)" stroke="rgb(153, 153, 153)" stroke-width="1.5px"></line></g></g><g><g><g><g><g><path stroke="rgb(238, 51, 119)" stroke-width="2px" d="M160.71527777777777,144.69177080392836L168.75104166666668,127.0631692379713L176.78680555555556,291.37330728334433L184.82256944444444,358.67718482925653L192.85833333333332,381.5761420867943L233.0371527777778,377.22184207501783L241.07291666666666,373.81408251849655L249.10868055555557,364.9768353877778L257.14444444444445,355.91473806058855L265.1802083333333,351.8718708638114L273.2159722222222,340.6516056207221L281.25173611111114,336.9581461079975L289.2875,332.2183316515484L297.3232638888889,330.0840993787327L305.3590277777778,328.38420044845003L313.39479166666666,328.29260635431217L321.43055555555554,326.1212165370685L329.4663194444444,326.29755299495804L337.50208333333336,320.8864329093141L345.53784722222224,319.38548227504486L353.5736111111111,309.1954962336521L361.609375,300.50767355171104L369.6451388888889,299.0342568882436L377.6809027777778,293.1832182879905L385.71666666666664,294.514901911479L393.7524305555555,288.50061303331L401.78819444444446,289.822707181228L409.82395833333334,290.21981563930296L417.85972222222216,281.6886642806789L425.8954861111111,279.7239590586415L433.93125,273.6905640388183L441.9670138888889,267.72172094613865L450.0027777777778,255.1369491435924L458.0385416666666,257.06234837876474L466.0743055555556,257.48916207313295L474.11006944444443,252.12587213212404L482.1458333333333,248.23823386810838L490.18159722222225,246.44299876513685L498.21736111111113,248.32710210907786L506.25312499999995,246.64466543900627L514.2888888888889,244.93207988745647L522.3246527777777,240.00739151053713L530.3604166666667,239.39359467790064L538.3961805555556,241.73688624525687L546.4319444444444,239.3871338348745L554.4677083333333,235.1523917154819L562.5034722222223,237.63700237571516L570.5392361111111,235.03965860306053L578.575,218.08656105097447L586.6107638888889,212.0898052304701L594.6465277777778,212.17788655338987L602.6822916666667,208.07760922657272L610.7180555555556,205.39806642540333L618.7538194444444,201.21949166382117L626.7895833333333,198.16817527487706L634.8253472222223,190.54608204528554L642.8611111111111,186.68385194161436L650.896875,187.26728895437063L658.9326388888888,177.4538074012477L666.9684027777778,171.28910106157528L675.0041666666667,165.0600631467616L683.0399305555555,163.82367223374737L691.0756944444445,163.67854630155978L699.1114583333333,165.3216066400426L707.1472222222222,168.85765610060398L715.1829861111112,160.0556995474575L723.21875,155.93714266319748L731.2545138888888,160.11038413504562L739.2902777777778,154.80447506701827L747.3260416666667,152.11010725058642L755.3618055555556,148.9111570888213L763.3975694444445,154.60397147656195L771.4333333333333,154.22239895058107L779.4690972222222,149.13543055966954L787.504861111111,148.52963200796916L795.5406250000001,150.85920648012132L803.5763888888889,148.8271649581208L811.6121527777777,147.12481459669357L819.6479166666667,148.63361849084748L827.6836805555555,151.74029002087468L835.7194444444443,146.24662942666103L843.7552083333334,130.7215167827107L851.7909722222222,127.04148959875289L859.8267361111111,122.53656757211793L867.8625,122.0939223834044L875.8982638888888,113.78586203345652L883.9340277777778,113.44118733777006L891.9697916666668,114.32034366353395L900.0055555555556,114.91528027350132L908.0413194444444,115.52134022252415L916.0770833333332,118.18069843810791L924.1128472222222,114.97939449843958L932.1486111111112,114.90773171840425L940.184375,114.02473993773252L948.2201388888889,120.23106187467766L956.2559027777778,118.51281014294422L964.2916666666666,116.93307353662051L972.3274305555557,115.64726846857825L980.3631944444445,113.88345324741182L988.3989583333333,106.58195491162762L996.4347222222223,104.79740952051378L1004.4704861111111,103.99622883437094L1012.5062499999999,100.22951834303947L1020.542013888889,95.82207807920067L1028.5777777777778,94.0611267754735L1036.6135416666666,92.31176159079682L1044.6493055555554,91.46614875453201L1052.6850694444445,90.40488708927722L1060.7208333333333,91.52474425860935L1068.7565972222224,89.6925706749878L1076.7923611111112,88.12747367018785L1084.828125,87.1318785543898L1092.8638888888888,86.50279250198561L1100.8996527777776,87.73532459291194L1108.9354166666667,88.92725899588496L1116.9711805555555,89.97337180517974L1125.0069444444446,87.38504191404296L1133.0427083333334,86.02710681537226L1141.0784722222222,79.12132481443548L1149.114236111111,74.1226112157563L1157.15,70.78537501039855L1165.185763888889,69.90034889743386L1173.2215277777777,69.01170055289458L1181.2572916666666,63.81839582732955L1189.2930555555556,62.38010918028142L1197.3288194444444,60.37775510784185L1205.3645833333335,59.14013447187063L1213.4003472222223,61.94263925525581L1221.4361111111111,57.919831271010835L1229.471875,55.72287131331657L1237.5076388888888,52.25398563016828L1245.5434027777778,49.69830742360779L1253.5791666666667,52.23624733894048L1261.6149305555555,48.65782076085992L1269.6506944444445,46.18280877331132L1277.6864583333333,43.543184191738966L1285.7222222222222,42.00113050863471L1293.7579861111112,40.9686219783147L1301.79375,41.6100068671417L1309.8295138888889,42.109739263628576L1317.8652777777777,42.646632254784166L1325.9010416666665,41.70224532405431L1333.9368055555556,40.770115655977825L1341.9725694444444,39.363593115599556L1350.0083333333334,38.00738684864339L1358.0440972222223,38.06827744641797L1366.079861111111,38.27711905796667L1374.115625,39.42501708602511L1382.151388888889,40.320938071820706L1390.1871527777778,40.471151389209545L1398.2229166666666,40.653694911119175L1406.2586805555554,41.11602993686018L1414.2944444444445,42.00431124774025" style="fill: none;" fill="none"></path></g></g></g></g><g opacity="0.2"><g><g><g><path stroke="rgb(238, 51, 119)" stroke-width="2px" d="M160.71527777777777,144.69177080392836L168.75104166666668,116.48600829839705L176.78680555555556,449.11103980690245L225.0013888888889,383.23618740538757L233.0371527777778,364.5485486408075L241.07291666666666,368.733351312081L249.10868055555557,351.76905660033225L257.14444444444445,342.3511813898881L265.1802083333333,345.81549046635627L273.2159722222222,323.83439675668876L281.25173611111114,331.4205617527167L289.2875,325.1106156975031L297.3232638888889,326.883292850852L305.3590277777778,325.8346110155185L313.39479166666666,328.1552235851685L321.43055555555554,322.86425089538096L329.4663194444444,326.5620518793662L337.50208333333336,312.76985961397486L345.53784722222224,317.13407410383223L353.5736111111111,293.91058959762256L361.609375,287.4759765783946L369.6451388888889,296.824135663112L377.6809027777778,284.40666937033336L385.71666666666664,296.5124261200428L393.7524305555555,279.4791830400626L401.78819444444446,291.8058479646842L409.82395833333334,290.8154782474041L417.85972222222216,268.89193826119106L425.8954861111111,276.77690136631327L433.93125,264.6404717683792L441.9670138888889,258.7684564610322L450.0027777777778,236.25979163448017L458.0385416666666,259.95044721364974L466.0743055555556,258.12938261230784L474.11006944444443,244.08093723853426L482.1458333333333,242.40677647988002L490.18159722222225,243.7501461128394L498.21736111111113,251.15325712362926L506.25312499999995,244.12101043462752L514.2888888888889,242.36320156057673L522.3246527777777,232.620358945926L530.3604166666667,238.4728994290034L538.3961805555556,245.25182359615962L546.4319444444444,235.86250521938007L554.4677083333333,228.8002785364787L562.5034722222223,241.3639183660348L570.5392361111111,231.1436429440975L578.575,192.6569147229195L586.6107638888889,203.0946714997292L594.6465277777778,212.31000853776936L602.6822916666667,201.92719323635106L610.7180555555556,201.37875222365062L618.7538194444444,194.95162952144943L626.7895833333333,193.5912006914616L634.8253472222223,179.1129422008991L642.8611111111111,180.890506786108L650.896875,188.142444473505L658.9326388888888,162.7335850715637L666.9684027777778,162.0420415520668L675.0041666666667,155.71650627454125L683.0399305555555,161.96908586422603L691.0756944444445,163.46085740327834L699.1114583333333,167.78619714776676L707.1472222222222,174.16173029144608L715.1829861111112,146.85276471773784L723.21875,149.75930733680724L731.2545138888888,166.37024634281795L739.2902777777778,146.84561146497725L747.3260416666667,148.06855552593868L755.3618055555556,144.11273184617363L763.3975694444445,163.14319305817287L771.4333333333333,153.65004016160964L779.4690972222222,141.50497797330223L787.504861111111,147.62093418041866L795.5406250000001,154.3535681883494L803.5763888888889,145.77910267512004L811.6121527777777,144.57128905455272L819.6479166666667,150.89682433207832L827.6836805555555,156.40029731591545L835.7194444444443,138.00613853534065L843.7552083333334,107.4338478167852L851.7909722222222,121.52144882281624L859.8267361111111,115.77918453216552L867.8625,121.42995460033416L875.8982638888888,101.32377150853478L883.9340277777778,112.92417529424034L891.9697916666668,115.6390781521797L900.0055555555556,115.80768518845241L908.0413194444444,116.43043014605843L916.0770833333332,122.16973576148354L924.1128472222222,110.17743858893715L932.1486111111112,114.80023754835128L940.184375,112.70025226672493L948.2201388888889,129.54054478009544L956.2559027777778,115.93543254534404L964.2916666666666,114.56346862713497L972.3274305555557,113.71856086651485L980.3631944444445,111.23773041566216L988.3989583333333,95.62970740795134L996.4347222222223,102.120591433843L1004.4704861111111,102.7944578051567L1012.5062499999999,94.57945260604225L1020.542013888889,89.21091768344246L1028.5777777777778,91.41969981988274L1036.6135416666666,89.68771381378173L1044.6493055555554,90.19772950013481L1052.6850694444445,88.81299459139507L1060.7208333333333,93.20453001260756L1068.7565972222224,86.94431029955547L1076.7923611111112,85.77982816298805L1084.828125,85.63848588069283L1092.8638888888888,85.55916342337929L1100.8996527777776,89.58412272930144L1108.9354166666667,90.71516060034435L1116.9711805555555,91.54254101912181L1125.0069444444446,83.50254707733791L1133.0427083333334,83.99020416736602L1141.0784722222222,68.76265181303023L1149.114236111111,66.62454081773757L1157.15,65.77952070236205L1165.185763888889,68.57280972798668L1173.2215277777777,67.67872803608577L1181.2572916666666,56.02843873898189L1189.2930555555556,60.222679209709156L1197.3288194444444,57.37422399918239L1205.3645833333335,57.28370351791381L1213.4003472222223,66.14639643033348L1221.4361111111111,51.88561929464339L1229.471875,52.427431376775125L1237.5076388888888,47.05065710544585L1245.5434027777778,45.86479011376701L1253.5791666666667,56.0431572119395L1261.6149305555555,43.290180893739084L1269.6506944444445,42.47029079198836L1277.6864583333333,39.58374731938045L1285.7222222222222,39.68804998397826L1293.7579861111112,39.419859182834614L1301.79375,42.57208420038222L1309.8295138888889,42.85933785835903L1317.8652777777777,43.451971741517404L1325.9010416666665,40.28566492795943L1333.9368055555556,39.37192115386329L1341.9725694444444,37.253809305032114L1350.0083333333334,35.973077448209146L1358.0440972222223,38.159613343079904L1366.079861111111,38.59038147528968L1374.115625,41.14686412811278L1382.151388888889,41.66481955051421L1390.1871527777778,40.696471365292886L1398.2229166666666,40.92751019398372L1406.2586805555554,41.809532475471485L1414.2944444444445,43.33673321406047" style="fill: none;" fill="none"></path></g></g></g></g></g></g><g transform="translate(51, 377)" clip-path="url(#clip_1)"><clipPath id="clip_1"><rect width="1446" height="23"></rect></clipPath><g><g><line x1="0" y1="0" x2="0" y2="5" style="visibility: inherit;" fill="rgb(0, 0, 0)" stroke="rgb(204, 204, 204)" stroke-width="1px"></line><line x1="160.71527777777777" y1="0" x2="160.71527777777777" y2="5" style="visibility: inherit;" fill="rgb(0, 0, 0)" stroke="rgb(204, 204, 204)" stroke-width="1px"></line><line x1="321.43055555555554" y1="0" x2="321.43055555555554" y2="5" style="visibility: inherit;" fill="rgb(0, 0, 0)" stroke="rgb(204, 204, 204)" stroke-width="1px"></line><line x1="482.1458333333333" y1="0" x2="482.1458333333333" y2="5" style="visibility: inherit;" fill="rgb(0, 0, 0)" stroke="rgb(204, 204, 204)" stroke-width="1px"></line><line x1="642.8611111111111" y1="0" x2="642.8611111111111" y2="5" style="visibility: inherit;" fill="rgb(0, 0, 0)" stroke="rgb(204, 204, 204)" stroke-width="1px"></line><line x1="803.5763888888889" y1="0" x2="803.5763888888889" y2="5" style="visibility: inherit;" fill="rgb(0, 0, 0)" stroke="rgb(204, 204, 204)" stroke-width="1px"></line><line x1="964.2916666666666" y1="0" x2="964.2916666666666" y2="5" style="visibility: inherit;" fill="rgb(0, 0, 0)" stroke="rgb(204, 204, 204)" stroke-width="1px"></line><line x1="1125.0069444444446" y1="0" x2="1125.0069444444446" y2="5" style="visibility: inherit;" fill="rgb(0, 0, 0)" stroke="rgb(204, 204, 204)" stroke-width="1px"></line><line x1="1285.7222222222222" y1="0" x2="1285.7222222222222" y2="5" style="visibility: inherit;" fill="rgb(0, 0, 0)" stroke="rgb(204, 204, 204)" stroke-width="1px"></line><line x1="1446.4375" y1="0" x2="1446.4375" y2="5" style="visibility: inherit;" fill="rgb(0, 0, 0)" stroke="rgb(204, 204, 204)" stroke-width="1px"></line></g><g transform="translate(0, 8)"><text x="0" y="0" dx="0em" dy="0.95em" style="text-anchor: middle; visibility: hidden; font-family: Roboto, sans-serif; font-size: 12px; font-weight: 200;" fill="rgb(33, 33, 33)" stroke="none" stroke-width="1px">-20</text><text x="160.71527777777777" y="0" dx="0em" dy="0.95em" style="text-anchor: middle; visibility: inherit; font-family: Roboto, sans-serif; font-size: 12px; font-weight: 200;" fill="rgb(33, 33, 33)" stroke="none" stroke-width="1px">0</text><text x="321.43055555555554" y="0" dx="0em" dy="0.95em" style="text-anchor: middle; visibility: inherit; font-family: Roboto, sans-serif; font-size: 12px; font-weight: 200;" fill="rgb(33, 33, 33)" stroke="none" stroke-width="1px">20</text><text x="482.1458333333333" y="0" dx="0em" dy="0.95em" style="text-anchor: middle; visibility: inherit; font-family: Roboto, sans-serif; font-size: 12px; font-weight: 200;" fill="rgb(33, 33, 33)" stroke="none" stroke-width="1px">40</text><text x="642.8611111111111" y="0" dx="0em" dy="0.95em" style="text-anchor: middle; visibility: inherit; font-family: Roboto, sans-serif; font-size: 12px; font-weight: 200;" fill="rgb(33, 33, 33)" stroke="none" stroke-width="1px">60</text><text x="803.5763888888889" y="0" dx="0em" dy="0.95em" style="text-anchor: middle; visibility: inherit; font-family: Roboto, sans-serif; font-size: 12px; font-weight: 200;" fill="rgb(33, 33, 33)" stroke="none" stroke-width="1px">80</text><text x="964.2916666666666" y="0" dx="0em" dy="0.95em" style="text-anchor: middle; visibility: inherit; font-family: Roboto, sans-serif; font-size: 12px; font-weight: 200;" fill="rgb(33, 33, 33)" stroke="none" stroke-width="1px">100</text><text x="1125.0069444444446" y="0" dx="0em" dy="0.95em" style="text-anchor: middle; visibility: inherit; font-family: Roboto, sans-serif; font-size: 12px; font-weight: 200;" fill="rgb(33, 33, 33)" stroke="none" stroke-width="1px">120</text><text x="1285.7222222222222" y="0" dx="0em" dy="0.95em" style="text-anchor: middle; visibility: inherit; font-family: Roboto, sans-serif; font-size: 12px; font-weight: 200;" fill="rgb(33, 33, 33)" stroke="none" stroke-width="1px">140</text><text x="1446.4375" y="0" dx="0em" dy="0.95em" style="text-anchor: middle; visibility: hidden; font-family: Roboto, sans-serif; font-size: 12px; font-weight: 200;" fill="rgb(33, 33, 33)" stroke="none" stroke-width="1px">160</text></g><line x1="0" y1="0" x2="1446.4375" y2="0" fill="rgb(0, 0, 0)" stroke="rgb(204, 204, 204)" stroke-width="1px"></line></g></g></g></g></svg>