<svg viewBox="0 0 1498 400" xmlns="http://www.w3.org/2000/svg"><g><g><g><g><g><line x1="41.171875" y1="377" x2="36.171875" y2="377" style="visibility: inherit;" fill="rgb(0, 0, 0)" stroke="rgb(204, 204, 204)" stroke-width="1px"></line><line x1="41.171875" y1="329.875" x2="36.171875" y2="329.875" style="visibility: inherit;" fill="rgb(0, 0, 0)" stroke="rgb(204, 204, 204)" stroke-width="1px"></line><line x1="41.171875" y1="282.75" x2="36.171875" y2="282.75" style="visibility: inherit;" fill="rgb(0, 0, 0)" stroke="rgb(204, 204, 204)" stroke-width="1px"></line><line x1="41.171875" y1="235.625" x2="36.171875" y2="235.625" style="visibility: inherit;" fill="rgb(0, 0, 0)" stroke="rgb(204, 204, 204)" stroke-width="1px"></line><line x1="41.171875" y1="188.5" x2="36.171875" y2="188.5" style="visibility: inherit;" fill="rgb(0, 0, 0)" stroke="rgb(204, 204, 204)" stroke-width="1px"></line><line x1="41.171875" y1="141.37500000000003" x2="36.171875" y2="141.37500000000003" style="visibility: inherit;" fill="rgb(0, 0, 0)" stroke="rgb(204, 204, 204)" stroke-width="1px"></line><line x1="41.171875" y1="94.24999999999996" x2="36.171875" y2="94.24999999999996" style="visibility: inherit;" fill="rgb(0, 0, 0)" stroke="rgb(204, 204, 204)" stroke-width="1px"></line><line x1="41.171875" y1="47.12500000000004" x2="36.171875" y2="47.12500000000004" style="visibility: inherit;" fill="rgb(0, 0, 0)" stroke="rgb(204, 204, 204)" stroke-width="1px"></line><line x1="41.171875" y1="0" x2="36.171875" y2="0" style="visibility: inherit;" fill="rgb(0, 0, 0)" stroke="rgb(204, 204, 204)" stroke-width="1px"></line></g><g transform="translate(31.171875, 0)"><text x="0" y="377" dx="0em" dy="0.3em" style="text-anchor: end; visibility: hidden; font-family: Roboto, sans-serif; font-size: 12px; font-weight: 200;" fill="rgb(33, 33, 33)" stroke="none" stroke-width="1px">0.2</text><text x="0" y="329.875" dx="0em" dy="0.3em" style="text-anchor: end; visibility: inherit; font-family: Roboto, sans-serif; font-size: 12px; font-weight: 200;" fill="rgb(33, 33, 33)" stroke="none" stroke-width="1px">0.3</text><text x="0" y="282.75" dx="0em" dy="0.3em" style="text-anchor: end; visibility: inherit; font-family: Roboto, sans-serif; font-size: 12px; font-weight: 200;" fill="rgb(33, 33, 33)" stroke="none" stroke-width="1px">0.4</text><text x="0" y="235.625" dx="0em" dy="0.3em" style="text-anchor: end; visibility: inherit; font-family: Roboto, sans-serif; font-size: 12px; font-weight: 200;" fill="rgb(33, 33, 33)" stroke="none" stroke-width="1px">0.5</text><text x="0" y="188.5" dx="0em" dy="0.3em" style="text-anchor: end; visibility: inherit; font-family: Roboto, sans-serif; font-size: 12px; font-weight: 200;" fill="rgb(33, 33, 33)" stroke="none" stroke-width="1px">0.6</text><text x="0" y="141.37500000000003" dx="0em" dy="0.3em" style="text-anchor: end; visibility: inherit; font-family: Roboto, sans-serif; font-size: 12px; font-weight: 200;" fill="rgb(33, 33, 33)" stroke="none" stroke-width="1px">0.7</text><text x="0" y="94.24999999999996" dx="0em" dy="0.3em" style="text-anchor: end; visibility: inherit; font-family: Roboto, sans-serif; font-size: 12px; font-weight: 200;" fill="rgb(33, 33, 33)" stroke="none" stroke-width="1px">0.8</text><text x="0" y="47.12500000000004" dx="0em" dy="0.3em" style="text-anchor: end; visibility: inherit; font-family: Roboto, sans-serif; font-size: 12px; font-weight: 200;" fill="rgb(33, 33, 33)" stroke="none" stroke-width="1px">0.9</text><text x="0" y="0" dx="0em" dy="0.3em" style="text-anchor: end; visibility: hidden; font-family: Roboto, sans-serif; font-size: 12px; font-weight: 200;" fill="rgb(33, 33, 33)" stroke="none" stroke-width="1px">1</text></g><line x1="41.171875" y1="0" x2="41.171875" y2="377" fill="rgb(0, 0, 0)" stroke="rgb(204, 204, 204)" stroke-width="1px"></line></g></g><g transform="translate(41, 0)" clip-path="url(#clip_0)"><clipPath id="clip_0"><rect width="1456" height="377"></rect></clipPath><g><g><g><line x1="0" y1="0" x2="0" y2="377" fill="rgb(0, 0, 0)" stroke="rgb(66, 66, 66)" stroke-width="1px" opacity="0.25"></line><line x1="121.40234375" y1="0" x2="121.40234375" y2="377" fill="rgb(0, 0, 0)" stroke="rgb(66, 66, 66)" stroke-width="1px" opacity="0.25"></line><line x1="242.8046875" y1="0" x2="242.8046875" y2="377" fill="rgb(0, 0, 0)" stroke="rgb(66, 66, 66)" stroke-width="1px" opacity="0.25"></line><line x1="364.20703125" y1="0" x2="364.20703125" y2="377" fill="rgb(0, 0, 0)" stroke="rgb(66, 66, 66)" stroke-width="1px" opacity="0.25"></line><line x1="485.609375" y1="0" x2="485.609375" y2="377" fill="rgb(0, 0, 0)" stroke="rgb(66, 66, 66)" stroke-width="1px" opacity="0.25"></line><line x1="607.01171875" y1="0" x2="607.01171875" y2="377" fill="rgb(0, 0, 0)" stroke="rgb(66, 66, 66)" stroke-width="1px" opacity="0.25"></line><line x1="728.4140625" y1="0" x2="728.4140625" y2="377" fill="rgb(0, 0, 0)" stroke="rgb(66, 66, 66)" stroke-width="1px" opacity="0.25"></line><line x1="849.81640625" y1="0" x2="849.81640625" y2="377" fill="rgb(0, 0, 0)" stroke="rgb(66, 66, 66)" stroke-width="1px" opacity="0.25"></line><line x1="971.21875" y1="0" x2="971.21875" y2="377" fill="rgb(0, 0, 0)" stroke="rgb(66, 66, 66)" stroke-width="1px" opacity="0.25"></line><line x1="1092.62109375" y1="0" x2="1092.62109375" y2="377" fill="rgb(0, 0, 0)" stroke="rgb(66, 66, 66)" stroke-width="1px" opacity="0.25"></line><line x1="1214.0234375" y1="0" x2="1214.0234375" y2="377" fill="rgb(0, 0, 0)" stroke="rgb(66, 66, 66)" stroke-width="1px" opacity="0.25"></line><line x1="1335.42578125" y1="0" x2="1335.42578125" y2="377" fill="rgb(0, 0, 0)" stroke="rgb(66, 66, 66)" stroke-width="1px" opacity="0.25"></line><line x1="1456.828125" y1="0" x2="1456.828125" y2="377" fill="rgb(0, 0, 0)" stroke="rgb(66, 66, 66)" stroke-width="1px" opacity="0.25"></line></g><g><line x1="0" y1="377" x2="1456.828125" y2="377" fill="rgb(0, 0, 0)" stroke="rgb(66, 66, 66)" stroke-width="1px" opacity="0.25"></line><line x1="0" y1="329.875" x2="1456.828125" y2="329.875" fill="rgb(0, 0, 0)" stroke="rgb(66, 66, 66)" stroke-width="1px" opacity="0.25"></line><line x1="0" y1="282.75" x2="1456.828125" y2="282.75" fill="rgb(0, 0, 0)" stroke="rgb(66, 66, 66)" stroke-width="1px" opacity="0.25"></line><line x1="0" y1="235.625" x2="1456.828125" y2="235.625" fill="rgb(0, 0, 0)" stroke="rgb(66, 66, 66)" stroke-width="1px" opacity="0.25"></line><line x1="0" y1="188.5" x2="1456.828125" y2="188.5" fill="rgb(0, 0, 0)" stroke="rgb(66, 66, 66)" stroke-width="1px" opacity="0.25"></line><line x1="0" y1="141.37500000000003" x2="1456.828125" y2="141.37500000000003" fill="rgb(0, 0, 0)" stroke="rgb(66, 66, 66)" stroke-width="1px" opacity="0.25"></line><line x1="0" y1="94.24999999999996" x2="1456.828125" y2="94.24999999999996" fill="rgb(0, 0, 0)" stroke="rgb(66, 66, 66)" stroke-width="1px" opacity="0.25"></line><line x1="0" y1="47.12500000000004" x2="1456.828125" y2="47.12500000000004" fill="rgb(0, 0, 0)" stroke="rgb(66, 66, 66)" stroke-width="1px" opacity="0.25"></line><line x1="0" y1="0" x2="1456.828125" y2="0" fill="rgb(0, 0, 0)" stroke="rgb(66, 66, 66)" stroke-width="1px" opacity="0.25"></line></g></g></g><g><g><line x1="0" y1="471.25" x2="1456.828125" y2="471.25" fill="rgb(0, 0, 0)" stroke="rgb(153, 153, 153)" stroke-width="1.5px"></line></g></g><g><g><line x1="121.40234375" y1="0" x2="121.40234375" y2="377" fill="rgb(0, 0, 0)" stroke="rgb(153, 153, 153)" stroke-width="1.5px"></line></g></g><g><g><g><g><g><path stroke="rgb(0, 119, 187)" stroke-width="2px" d="M169.96328125,389.5307332236628L182.103515625,371.7330264192323L194.24375,360.68640690485773L206.38398437499998,352.8698787089511L218.52421875,349.5139042782034L230.664453125,338.8123067350206L242.8046875,329.02216088281455L254.94492187499998,338.65865028450804L267.08515624999995,331.4267097930527L279.22539062500005,326.97768357255575L291.365625,319.3200745398219L303.505859375,313.111792307182L315.64609375000003,308.5942649415887L327.786328125,305.37516303750834L339.9265625,299.68598297451246L352.066796875,294.22675427328454L364.20703125,275.7997770321793L376.34726562500003,264.1681135836412L388.4875,249.48338600956973L400.62773437500005,239.8626207098871L412.76796874999997,226.67651974162084L424.908203125,216.43391124416786L437.0484375,216.31997124817602L449.188671875,201.99434188322383L461.32890625,192.2967356314759L473.469140625,186.5657434829606L485.609375,173.06773429691938L497.74960937500003,167.86141345538599L509.88984374999995,150.86874054969513L522.030078125,147.86893154788896L534.1703124999999,144.20227190872305L546.310546875,144.95516140653572L558.4507812500001,138.97393365611828L570.591015625,138.01250063962496L582.73125,133.19993395678947L594.871484375,122.12073231689935L607.01171875,122.86410939724952L619.151953125,120.53471476938502L631.2921875000001,121.54737961980842L643.4324218749999,114.93932019174743L655.57265625,111.83466130761214L667.712890625,104.6447225462954L679.853125,101.13738778527733L691.993359375,102.026106377241L704.13359375,102.92614210237107L716.2738281249999,97.24104719508487L728.4140625,93.15898518052981L740.554296875,87.48744729330858L752.6945312500001,84.30994190674892L764.834765625,89.49442817510837L776.975,95.2779609187978L789.115234375,85.70717646029455L801.2554687500001,76.48735981194089L813.3957031250001,73.48046318297295L825.5359374999999,73.67007157566972L837.6761718749999,73.8107006333043L849.81640625,71.7570007790189L861.956640625,68.2988871007598L874.096875,65.57675438341116L886.2371093749999,60.86872957477935L898.37734375,62.53561063009485L910.517578125,60.39844619272933L922.6578125,56.766663533680344L934.7980468750001,55.57272043361228L946.93828125,55.74324930628514L959.078515625,54.94095355224834L971.21875,58.845849573327456L983.3589843750001,55.75556963069047L995.4992187500001,55.01663496722459L1007.6394531249999,56.15629649537614L1019.7796874999999,54.26714704261905L1031.919921875,51.45802101985625L1044.06015625,51.453709611272956L1056.200390625,50.78636462031373L1068.3406249999998,50.625250783792495L1080.4808593750001,49.5957234187313L1092.62109375,50.035006832086324L1104.7613281249999,51.922597456576426L1116.9015625000002,50.888255547643894L1129.041796875,50.719305283523305L1141.18203125,50.9766726235728L1153.322265625,51.14290151239522L1165.4625,49.73084943438224L1177.602734375,48.73943332996761L1189.74296875,47.91907643775221L1201.883203125,46.71821838915393L1214.0234375,45.932908572554894L1226.163671875,45.70339776146425L1238.30390625,44.81113920848381L1250.4441406249998,43.9618087127257L1262.5843750000001,43.671953845885355L1274.724609375,43.49696232012924L1286.8648437499999,42.683323491406576L1299.0050781250002,42.03283251451977L1311.1453125,41.81337333397592L1323.285546875,41.496806840160595L1335.42578125,40.89363738897989" style="fill: none;" fill="none"></path></g><g><path stroke="rgb(0, 153, 136)" stroke-width="2px" d="M133.54257812499998,388.1412971508689L145.6828125,361.95339701423535L157.82304687500002,332.75660070844054L169.96328125,289.5208821698925L182.103515625,258.79300619511804L194.24375,220.98056021645948L206.38398437499998,189.4995972814746L218.52421875,171.72550063008734L230.664453125,148.05128026526617L242.8046875,133.17811601214498L254.94492187499998,118.41865827206688L267.08515624999995,107.85157524527774L279.22539062500005,94.73738639320183L291.365625,81.17635390728958L303.505859375,75.83293360775077L315.64609375000003,68.41045851831882L327.786328125,66.7814382824785L339.9265625,63.47889856149232L352.066796875,60.550430669668906L364.20703125,57.23047334924689L376.34726562500003,55.63514060430877L388.4875,55.435130307972614L400.62773437500005,53.94880619292972L412.76796874999997,51.897669156145746L424.908203125,52.98861464376092L437.0484375,51.23139356837757L449.188671875,51.24885968605031L461.32890625,50.34873742816884L473.469140625,49.371503071262595L485.609375,48.369382532395186L497.74960937500003,47.569062593635984L509.88984374999995,45.45325500580687L522.030078125,43.94133141961932L534.1703124999999,43.31276091643786L546.310546875,42.78932149292717L558.4507812500001,41.341452292075104L570.591015625,40.51121228116636L582.73125,40.600852180787335L594.871484375,40.04401049495906L607.01171875,40.81304941525849L619.151953125,41.65220945488533L631.2921875000001,41.94442236080934L643.4324218749999,41.92819648179228L655.57265625,41.220479507329955L667.712890625,41.55634495563388L679.853125,41.38740812507891L691.993359375,40.676914720326344L704.13359375,40.132803480969386L716.2738281249999,37.92118123836298L728.4140625,38.79026023547463L740.554296875,38.46329440474786L752.6945312500001,37.87306430816715L764.834765625,37.33096797990779L776.975,37.95049008564979L789.115234375,35.921451877574256L801.2554687500001,36.5909708923223L813.3957031250001,34.77548479355085L825.5359374999999,34.95671194384524L837.6761718749999,33.75854895466587L849.81640625,33.46521726819289L861.956640625,35.316435108020414L874.096875,36.105988508125805L886.2371093749999,35.63440134266654L898.37734375,35.361235142586544L910.517578125,34.64211192777027L922.6578125,34.80506206780837L934.7980468750001,36.83341267842162L946.93828125,35.19693808637918L959.078515625,34.64140592147624L971.21875,34.247325170813255L983.3589843750001,33.36697161720891L995.4992187500001,33.67567882255727L1007.6394531249999,32.808386268115214L1019.7796874999999,32.28099979871288L1031.919921875,30.92570214220147L1044.06015625,30.9114220365779L1056.200390625,30.130358852439894L1068.3406249999998,30.273537527021027L1080.4808593750001,30.88253476649303L1092.62109375,31.236866166769097L1104.7613281249999,30.799953401433598L1116.9015625000002,30.905992275683342L1129.041796875,31.225436142807194L1141.18203125,32.58426613314448L1153.322265625,33.43900064649283L1165.4625,32.963400393856155L1177.602734375,33.17899639018327L1189.74296875,33.16652858023613L1201.883203125,33.2194498107718L1214.0234375,33.36562463199412L1226.163671875,33.30515607330394L1238.30390625,33.05538966735115L1250.4441406249998,32.565589275836366L1262.5843750000001,32.46548728756869L1274.724609375,32.33546278841947L1286.8648437499999,32.21734867672718L1299.0050781250002,32.27718249667041" style="fill: none;" fill="none"></path></g></g></g></g><g opacity="0.2"><g><g><g><path stroke="rgb(0, 119, 187)" stroke-width="2px" d="M145.6828125,410.26360001415014L157.82304687500002,367.79751915484667L169.96328125,370.588586833328L182.103515625,347.1123907342553L194.24375,344.88956425338984L206.38398437499998,341.47330556064844L218.52421875,344.5644938573241L230.664453125,322.9216815903783L242.8046875,314.4257380068302L254.94492187499998,353.0609430372715L267.08515624999995,320.60241259634495L279.22539062500005,320.31286034733057L291.365625,307.84266222268343L303.505859375,303.80374751985073L315.64609375000003,301.81988555938005L327.786328125,300.54732751101255L339.9265625,291.15307956933975L352.066796875,286.0384102165699L364.20703125,248.1603217497468L376.34726562500003,246.72100115567446L388.4875,227.45658457279205L400.62773437500005,225.43158672749996L412.76796874999997,206.8974620103836L424.908203125,201.07004217803478L437.0484375,216.14906154572964L449.188671875,180.50591982901096L461.32890625,177.7503351867199L473.469140625,177.96925842761993L485.609375,152.82072499394417L497.74960937500003,160.05193322896957L509.88984374999995,125.37973321974277L522.030078125,143.36921826004982L534.1703124999999,138.7022826075554L546.310546875,146.08449563384056L558.4507812500001,130.00209212303162L570.591015625,136.57035112380981L582.73125,125.98108395934105L594.871484375,105.5019298940897L607.01171875,123.97917501628399L619.151953125,117.04062283039093L631.2921875000001,123.06637689471245L643.4324218749999,105.02723105251789L655.57265625,107.17767298221588L667.712890625,93.85981440544128L679.853125,95.87638564407825L691.993359375,103.35918426513672L704.13359375,104.27619569003582L716.2738281249999,88.71340483427048L728.4140625,87.03589215874672L740.554296875,78.98014046251774L752.6945312500001,79.54368382692337L764.834765625,97.27115757763386L776.975,103.95326003432274L789.115234375,71.35099977254868L801.2554687500001,62.65763483941555L813.3957031250001,68.97011823952198L825.5359374999999,73.95448416471481L837.6761718749999,74.02164421975613L849.81640625,68.67645099759102L861.956640625,63.11171658337116L874.096875,61.493555307388306L886.2371093749999,53.806692361831665L898.37734375,65.03593221306801L910.517578125,57.192699536681175L922.6578125,51.31898954510689L934.7980468750001,53.78180578351021L946.93828125,55.99904261529446L959.078515625,53.73750992119312L971.21875,64.70319360494614L983.3589843750001,51.120149716734886L995.4992187500001,53.90823297202587L1007.6394531249999,57.86578878760338L1019.7796874999999,51.43342286348343L1031.919921875,47.24433198571205L1044.06015625,51.44724249839783L1056.200390625,49.78534713387489L1068.3406249999998,50.38358002901077L1080.4808593750001,48.051432371139526L1092.62109375,50.693931952118874L1104.7613281249999,54.7539833933115L1116.9015625000002,49.33674268424511L1129.041796875,50.46587988734245L1141.18203125,51.362723633646965L1153.322265625,51.39224484562874L1165.4625,47.612771317362785L1177.602734375,47.252309173345566L1189.74296875,46.68854109942913L1201.883203125,44.91693131625652L1214.0234375,44.75494384765625L1226.163671875,45.359131544828415L1238.30390625,43.47275137901306L1250.4441406249998,42.687812969088554L1262.5843750000001,43.23717154562473L1274.724609375,43.234475031495094L1286.8648437499999,41.46286524832249L1299.0050781250002,41.05709604918957L1311.1453125,41.48418456315994L1323.285546875,41.021957099437714L1335.42578125,39.98888321220875" style="fill: none;" fill="none"></path></g><g><path stroke="rgb(0, 153, 136)" stroke-width="2px" d="M121.40234375,428.219322450459L133.54257812499998,364.0944819711149L145.6828125,336.81301288306713L157.82304687500002,298.42116825282574L169.96328125,233.07232804596424L182.103515625,216.2852916866541L194.24375,166.9081574678421L206.38398437499998,143.60005110502243L218.52421875,145.51216050982475L230.664453125,112.89782211184502L242.8046875,111.0032681375742L254.94492187499998,96.35979197919369L267.08515624999995,92.03545406460762L279.22539062500005,75.09179517626762L291.365625,60.85074566304684L303.505859375,67.82157175242901L315.64609375000003,57.279886826872826L327.786328125,64.3383215367794L339.9265625,58.52559208869934L352.066796875,56.157996505498886L364.20703125,52.2507194429636L376.34726562500003,53.24219398200512L388.4875,55.13511881232262L400.62773437500005,51.71933762729168L412.76796874999997,48.82097817957401L424.908203125,54.6250282227993L437.0484375,48.59556645154953L449.188671875,51.27505883574486L461.32890625,48.99855487048626L473.469140625,47.905652076005936L485.609375,46.86620205640793L497.74960937500003,46.36858284473419L509.88984374999995,42.27954387664795L522.030078125,41.67344614863396L534.1703124999999,42.369905188679695L546.310546875,42.0041623711586L558.4507812500001,39.1696485131979L570.591015625,39.26585227251053L582.73125,40.73531202971935L594.871484375,39.20874796807766L607.01171875,41.96660779416561L619.151953125,42.910949513316154L631.2921875000001,42.38274171948433L643.4324218749999,41.90385766327381L655.57265625,40.158904045820236L667.712890625,42.06014312803745L679.853125,41.13400287926197L691.993359375,39.61117461323738L704.13359375,39.31663662195206L716.2738281249999,34.60374787449837L728.4140625,40.093878731131554L740.554296875,37.972845658659935L752.6945312500001,36.98771916329861L764.834765625,36.51782348752022L776.975,38.87977324426174L789.115234375,32.877894565463066L801.2554687500001,37.59524941444397L813.3957031250001,32.052255645394325L825.5359374999999,35.22855266928673L837.6761718749999,31.96130447089672L849.81640625,33.02521973848343L861.956640625,38.09326186776161L874.096875,37.290318608284L886.2371093749999,34.92702059447765L898.37734375,34.951485842466354L910.517578125,33.563427105546L922.6578125,35.04948727786541L934.7980468750001,39.87593859434128L946.93828125,32.74222619831562L959.078515625,33.80810767412186L971.21875,33.65620404481888L983.3589843750001,32.04644128680229L995.4992187500001,34.13873963057995L1007.6394531249999,31.507447436451912L1019.7796874999999,31.48992009460926L1031.919921875,28.892755657434464L1044.06015625,30.890001878142357L1056.200390625,28.95876407623291L1068.3406249999998,30.488305538892746L1080.4808593750001,31.79603062570095L1092.62109375,31.768363267183304L1104.7613281249999,30.144584253430367L1116.9015625000002,31.065050587058067L1129.041796875,31.70460194349289L1141.18203125,34.622511118650436L1153.322265625,34.72110241651535L1165.4625,32.25000001490116L1177.602734375,33.50239038467407L1189.74296875,33.14782686531544L1201.883203125,33.2988316565752L1214.0234375,33.584886863827705L1226.163671875,33.21445323526859L1238.30390625,32.68074005842209L1250.4441406249998,31.8308886885643L1262.5843750000001,32.3153343051672L1274.724609375,32.14042603969574L1286.8648437499999,32.04017750918865L1299.0050781250002,32.36693322658539" style="fill: none;" fill="none"></path></g></g></g></g></g></g><g transform="translate(41, 377)" clip-path="url(#clip_1)"><clipPath id="clip_1"><rect width="1456" height="23"></rect></clipPath><g><g><line x1="0" y1="0" x2="0" y2="5" style="visibility: inherit;" fill="rgb(0, 0, 0)" stroke="rgb(204, 204, 204)" stroke-width="1px"></line><line x1="121.40234375" y1="0" x2="121.40234375" y2="5" style="visibility: inherit;" fill="rgb(0, 0, 0)" stroke="rgb(204, 204, 204)" stroke-width="1px"></line><line x1="242.8046875" y1="0" x2="242.8046875" y2="5" style="visibility: inherit;" fill="rgb(0, 0, 0)" stroke="rgb(204, 204, 204)" stroke-width="1px"></line><line x1="364.20703125" y1="0" x2="364.20703125" y2="5" style="visibility: inherit;" fill="rgb(0, 0, 0)" stroke="rgb(204, 204, 204)" stroke-width="1px"></line><line x1="485.609375" y1="0" x2="485.609375" y2="5" style="visibility: inherit;" fill="rgb(0, 0, 0)" stroke="rgb(204, 204, 204)" stroke-width="1px"></line><line x1="607.01171875" y1="0" x2="607.01171875" y2="5" style="visibility: inherit;" fill="rgb(0, 0, 0)" stroke="rgb(204, 204, 204)" stroke-width="1px"></line><line x1="728.4140625" y1="0" x2="728.4140625" y2="5" style="visibility: inherit;" fill="rgb(0, 0, 0)" stroke="rgb(204, 204, 204)" stroke-width="1px"></line><line x1="849.81640625" y1="0" x2="849.81640625" y2="5" style="visibility: inherit;" fill="rgb(0, 0, 0)" stroke="rgb(204, 204, 204)" stroke-width="1px"></line><line x1="971.21875" y1="0" x2="971.21875" y2="5" style="visibility: inherit;" fill="rgb(0, 0, 0)" stroke="rgb(204, 204, 204)" stroke-width="1px"></line><line x1="1092.62109375" y1="0" x2="1092.62109375" y2="5" style="visibility: inherit;" fill="rgb(0, 0, 0)" stroke="rgb(204, 204, 204)" stroke-width="1px"></line><line x1="1214.0234375" y1="0" x2="1214.0234375" y2="5" style="visibility: inherit;" fill="rgb(0, 0, 0)" stroke="rgb(204, 204, 204)" stroke-width="1px"></line><line x1="1335.42578125" y1="0" x2="1335.42578125" y2="5" style="visibility: inherit;" fill="rgb(0, 0, 0)" stroke="rgb(204, 204, 204)" stroke-width="1px"></line><line x1="1456.828125" y1="0" x2="1456.828125" y2="5" style="visibility: inherit;" fill="rgb(0, 0, 0)" stroke="rgb(204, 204, 204)" stroke-width="1px"></line></g><g transform="translate(0, 8)"><text x="0" y="0" dx="0em" dy="0.95em" style="text-anchor: middle; visibility: hidden; font-family: Roboto, sans-serif; font-size: 12px; font-weight: 200;" fill="rgb(33, 33, 33)" stroke="none" stroke-width="1px">-10</text><text x="121.40234375" y="0" dx="0em" dy="0.95em" style="text-anchor: middle; visibility: inherit; font-family: Roboto, sans-serif; font-size: 12px; font-weight: 200;" fill="rgb(33, 33, 33)" stroke="none" stroke-width="1px">0</text><text x="242.8046875" y="0" dx="0em" dy="0.95em" style="text-anchor: middle; visibility: inherit; font-family: Roboto, sans-serif; font-size: 12px; font-weight: 200;" fill="rgb(33, 33, 33)" stroke="none" stroke-width="1px">10</text><text x="364.20703125" y="0" dx="0em" dy="0.95em" style="text-anchor: middle; visibility: inherit; font-family: Roboto, sans-serif; font-size: 12px; font-weight: 200;" fill="rgb(33, 33, 33)" stroke="none" stroke-width="1px">20</text><text x="485.609375" y="0" dx="0em" dy="0.95em" style="text-anchor: middle; visibility: inherit; font-family: Roboto, sans-serif; font-size: 12px; font-weight: 200;" fill="rgb(33, 33, 33)" stroke="none" stroke-width="1px">30</text><text x="607.01171875" y="0" dx="0em" dy="0.95em" style="text-anchor: middle; visibility: inherit; font-family: Roboto, sans-serif; font-size: 12px; font-weight: 200;" fill="rgb(33, 33, 33)" stroke="none" stroke-width="1px">40</text><text x="728.4140625" y="0" dx="0em" dy="0.95em" style="text-anchor: middle; visibility: inherit; font-family: Roboto, sans-serif; font-size: 12px; font-weight: 200;" fill="rgb(33, 33, 33)" stroke="none" stroke-width="1px">50</text><text x="849.81640625" y="0" dx="0em" dy="0.95em" style="text-anchor: middle; visibility: inherit; font-family: Roboto, sans-serif; font-size: 12px; font-weight: 200;" fill="rgb(33, 33, 33)" stroke="none" stroke-width="1px">60</text><text x="971.21875" y="0" dx="0em" dy="0.95em" style="text-anchor: middle; visibility: inherit; font-family: Roboto, sans-serif; font-size: 12px; font-weight: 200;" fill="rgb(33, 33, 33)" stroke="none" stroke-width="1px">70</text><text x="1092.62109375" y="0" dx="0em" dy="0.95em" style="text-anchor: middle; visibility: inherit; font-family: Roboto, sans-serif; font-size: 12px; font-weight: 200;" fill="rgb(33, 33, 33)" stroke="none" stroke-width="1px">80</text><text x="1214.0234375" y="0" dx="0em" dy="0.95em" style="text-anchor: middle; visibility: inherit; font-family: Roboto, sans-serif; font-size: 12px; font-weight: 200;" fill="rgb(33, 33, 33)" stroke="none" stroke-width="1px">90</text><text x="1335.42578125" y="0" dx="0em" dy="0.95em" style="text-anchor: middle; visibility: inherit; font-family: Roboto, sans-serif; font-size: 12px; font-weight: 200;" fill="rgb(33, 33, 33)" stroke="none" stroke-width="1px">100</text><text x="1456.828125" y="0" dx="0em" dy="0.95em" style="text-anchor: middle; visibility: hidden; font-family: Roboto, sans-serif; font-size: 12px; font-weight: 200;" fill="rgb(33, 33, 33)" stroke="none" stroke-width="1px">110</text></g><line x1="0" y1="0" x2="1456.828125" y2="0" fill="rgb(0, 0, 0)" stroke="rgb(204, 204, 204)" stroke-width="1px"></line></g></g></g></g></svg>