<svg viewBox="0 0 1498 400" xmlns="http://www.w3.org/2000/svg"><g><g><g><g><g><line x1="41.171875" y1="377" x2="36.171875" y2="377" style="visibility: inherit;" fill="rgb(0, 0, 0)" stroke="rgb(204, 204, 204)" stroke-width="1px"></line><line x1="41.171875" y1="329.875" x2="36.171875" y2="329.875" style="visibility: inherit;" fill="rgb(0, 0, 0)" stroke="rgb(204, 204, 204)" stroke-width="1px"></line><line x1="41.171875" y1="282.75" x2="36.171875" y2="282.75" style="visibility: inherit;" fill="rgb(0, 0, 0)" stroke="rgb(204, 204, 204)" stroke-width="1px"></line><line x1="41.171875" y1="235.625" x2="36.171875" y2="235.625" style="visibility: inherit;" fill="rgb(0, 0, 0)" stroke="rgb(204, 204, 204)" stroke-width="1px"></line><line x1="41.171875" y1="188.5" x2="36.171875" y2="188.5" style="visibility: inherit;" fill="rgb(0, 0, 0)" stroke="rgb(204, 204, 204)" stroke-width="1px"></line><line x1="41.171875" y1="141.37500000000003" x2="36.171875" y2="141.37500000000003" style="visibility: inherit;" fill="rgb(0, 0, 0)" stroke="rgb(204, 204, 204)" stroke-width="1px"></line><line x1="41.171875" y1="94.24999999999996" x2="36.171875" y2="94.24999999999996" style="visibility: inherit;" fill="rgb(0, 0, 0)" stroke="rgb(204, 204, 204)" stroke-width="1px"></line><line x1="41.171875" y1="47.12500000000004" x2="36.171875" y2="47.12500000000004" style="visibility: inherit;" fill="rgb(0, 0, 0)" stroke="rgb(204, 204, 204)" stroke-width="1px"></line><line x1="41.171875" y1="0" x2="36.171875" y2="0" style="visibility: inherit;" fill="rgb(0, 0, 0)" stroke="rgb(204, 204, 204)" stroke-width="1px"></line></g><g transform="translate(31.171875, 0)"><text x="0" y="377" dx="0em" dy="0.3em" style="text-anchor: end; visibility: hidden; font-family: Roboto, sans-serif; font-size: 12px; font-weight: 200;" fill="rgb(33, 33, 33)" stroke="none" stroke-width="1px">0.2</text><text x="0" y="329.875" dx="0em" dy="0.3em" style="text-anchor: end; visibility: inherit; font-family: Roboto, sans-serif; font-size: 12px; font-weight: 200;" fill="rgb(33, 33, 33)" stroke="none" stroke-width="1px">0.3</text><text x="0" y="282.75" dx="0em" dy="0.3em" style="text-anchor: end; visibility: inherit; font-family: Roboto, sans-serif; font-size: 12px; font-weight: 200;" fill="rgb(33, 33, 33)" stroke="none" stroke-width="1px">0.4</text><text x="0" y="235.625" dx="0em" dy="0.3em" style="text-anchor: end; visibility: inherit; font-family: Roboto, sans-serif; font-size: 12px; font-weight: 200;" fill="rgb(33, 33, 33)" stroke="none" stroke-width="1px">0.5</text><text x="0" y="188.5" dx="0em" dy="0.3em" style="text-anchor: end; visibility: inherit; font-family: Roboto, sans-serif; font-size: 12px; font-weight: 200;" fill="rgb(33, 33, 33)" stroke="none" stroke-width="1px">0.6</text><text x="0" y="141.37500000000003" dx="0em" dy="0.3em" style="text-anchor: end; visibility: inherit; font-family: Roboto, sans-serif; font-size: 12px; font-weight: 200;" fill="rgb(33, 33, 33)" stroke="none" stroke-width="1px">0.7</text><text x="0" y="94.24999999999996" dx="0em" dy="0.3em" style="text-anchor: end; visibility: inherit; font-family: Roboto, sans-serif; font-size: 12px; font-weight: 200;" fill="rgb(33, 33, 33)" stroke="none" stroke-width="1px">0.8</text><text x="0" y="47.12500000000004" dx="0em" dy="0.3em" style="text-anchor: end; visibility: inherit; font-family: Roboto, sans-serif; font-size: 12px; font-weight: 200;" fill="rgb(33, 33, 33)" stroke="none" stroke-width="1px">0.9</text><text x="0" y="0" dx="0em" dy="0.3em" style="text-anchor: end; visibility: hidden; font-family: Roboto, sans-serif; font-size: 12px; font-weight: 200;" fill="rgb(33, 33, 33)" stroke="none" stroke-width="1px">1</text></g><line x1="41.171875" y1="0" x2="41.171875" y2="377" fill="rgb(0, 0, 0)" stroke="rgb(204, 204, 204)" stroke-width="1px"></line></g></g><g transform="translate(41, 0)" clip-path="url(#clip_0)"><clipPath id="clip_0"><rect width="1456" height="377"></rect></clipPath><g><g><g><line x1="0" y1="0" x2="0" y2="377" fill="rgb(0, 0, 0)" stroke="rgb(66, 66, 66)" stroke-width="1px" opacity="0.25"></line><line x1="121.40234375" y1="0" x2="121.40234375" y2="377" fill="rgb(0, 0, 0)" stroke="rgb(66, 66, 66)" stroke-width="1px" opacity="0.25"></line><line x1="242.8046875" y1="0" x2="242.8046875" y2="377" fill="rgb(0, 0, 0)" stroke="rgb(66, 66, 66)" stroke-width="1px" opacity="0.25"></line><line x1="364.20703125" y1="0" x2="364.20703125" y2="377" fill="rgb(0, 0, 0)" stroke="rgb(66, 66, 66)" stroke-width="1px" opacity="0.25"></line><line x1="485.609375" y1="0" x2="485.609375" y2="377" fill="rgb(0, 0, 0)" stroke="rgb(66, 66, 66)" stroke-width="1px" opacity="0.25"></line><line x1="607.01171875" y1="0" x2="607.01171875" y2="377" fill="rgb(0, 0, 0)" stroke="rgb(66, 66, 66)" stroke-width="1px" opacity="0.25"></line><line x1="728.4140625" y1="0" x2="728.4140625" y2="377" fill="rgb(0, 0, 0)" stroke="rgb(66, 66, 66)" stroke-width="1px" opacity="0.25"></line><line x1="849.81640625" y1="0" x2="849.81640625" y2="377" fill="rgb(0, 0, 0)" stroke="rgb(66, 66, 66)" stroke-width="1px" opacity="0.25"></line><line x1="971.21875" y1="0" x2="971.21875" y2="377" fill="rgb(0, 0, 0)" stroke="rgb(66, 66, 66)" stroke-width="1px" opacity="0.25"></line><line x1="1092.62109375" y1="0" x2="1092.62109375" y2="377" fill="rgb(0, 0, 0)" stroke="rgb(66, 66, 66)" stroke-width="1px" opacity="0.25"></line><line x1="1214.0234375" y1="0" x2="1214.0234375" y2="377" fill="rgb(0, 0, 0)" stroke="rgb(66, 66, 66)" stroke-width="1px" opacity="0.25"></line><line x1="1335.42578125" y1="0" x2="1335.42578125" y2="377" fill="rgb(0, 0, 0)" stroke="rgb(66, 66, 66)" stroke-width="1px" opacity="0.25"></line><line x1="1456.828125" y1="0" x2="1456.828125" y2="377" fill="rgb(0, 0, 0)" stroke="rgb(66, 66, 66)" stroke-width="1px" opacity="0.25"></line></g><g><line x1="0" y1="377" x2="1456.828125" y2="377" fill="rgb(0, 0, 0)" stroke="rgb(66, 66, 66)" stroke-width="1px" opacity="0.25"></line><line x1="0" y1="329.875" x2="1456.828125" y2="329.875" fill="rgb(0, 0, 0)" stroke="rgb(66, 66, 66)" stroke-width="1px" opacity="0.25"></line><line x1="0" y1="282.75" x2="1456.828125" y2="282.75" fill="rgb(0, 0, 0)" stroke="rgb(66, 66, 66)" stroke-width="1px" opacity="0.25"></line><line x1="0" y1="235.625" x2="1456.828125" y2="235.625" fill="rgb(0, 0, 0)" stroke="rgb(66, 66, 66)" stroke-width="1px" opacity="0.25"></line><line x1="0" y1="188.5" x2="1456.828125" y2="188.5" fill="rgb(0, 0, 0)" stroke="rgb(66, 66, 66)" stroke-width="1px" opacity="0.25"></line><line x1="0" y1="141.37500000000003" x2="1456.828125" y2="141.37500000000003" fill="rgb(0, 0, 0)" stroke="rgb(66, 66, 66)" stroke-width="1px" opacity="0.25"></line><line x1="0" y1="94.24999999999996" x2="1456.828125" y2="94.24999999999996" fill="rgb(0, 0, 0)" stroke="rgb(66, 66, 66)" stroke-width="1px" opacity="0.25"></line><line x1="0" y1="47.12500000000004" x2="1456.828125" y2="47.12500000000004" fill="rgb(0, 0, 0)" stroke="rgb(66, 66, 66)" stroke-width="1px" opacity="0.25"></line><line x1="0" y1="0" x2="1456.828125" y2="0" fill="rgb(0, 0, 0)" stroke="rgb(66, 66, 66)" stroke-width="1px" opacity="0.25"></line></g></g></g><g><g><line x1="0" y1="471.25" x2="1456.828125" y2="471.25" fill="rgb(0, 0, 0)" stroke="rgb(153, 153, 153)" stroke-width="1.5px"></line></g></g><g><g><line x1="121.40234375" y1="0" x2="121.40234375" y2="377" fill="rgb(0, 0, 0)" stroke="rgb(153, 153, 153)" stroke-width="1.5px"></line></g></g><g><g><g><g><g><path stroke="rgb(0, 119, 187)" stroke-width="2px" d="M194.24375,380.83058368213034L206.38398437499998,367.74626073535023L218.52421875,357.32401010936644L230.664453125,345.0682085271963L242.8046875,334.34863916658946L254.94492187499998,325.66578182252744L267.08515624999995,314.2287065499834L279.22539062500005,305.22397361771584L291.365625,295.89548873804324L303.505859375,286.53528151409944L315.64609375000003,277.7567390352339L327.786328125,268.6422312766835L339.9265625,260.1997951122596L352.066796875,253.73691279352465L364.20703125,241.88398319497685L376.34726562500003,232.72591292706235L388.4875,223.3606645547457L400.62773437500005,214.26454871717553L412.76796874999997,205.5335428136516L424.908203125,197.63034523352292L437.0484375,189.37940170781894L449.188671875,180.2909588757383L461.32890625,172.12525871190576L473.469140625,165.61718973760932L485.609375,159.45955748088957L497.74960937500003,150.30879534806616L509.88984374999995,142.37984698416847L522.030078125,134.8839208505757L534.1703124999999,130.41918413248797L546.310546875,126.24536099543835L558.4507812500001,122.09871025803842L570.591015625,120.41951677725953L582.73125,115.4568548778969L594.871484375,110.01079005945562L607.01171875,106.68855799735665L619.151953125,102.48033576107807L631.2921875000001,98.28273223455814L643.4324218749999,96.45966852642937L655.57265625,94.66689383927933L667.712890625,91.25547478144318L679.853125,90.68873995269176L691.993359375,85.42434742274888L704.13359375,83.04962226878192L716.2738281249999,81.66396527963103L728.4140625,77.32690047904076L740.554296875,76.17051000406539L752.6945312500001,73.68838125472946L764.834765625,70.14795559051672L776.975,67.5003629768059L789.115234375,64.51797925496973L801.2554687500001,58.73794405498897L813.3957031250001,54.399712883464716L825.5359374999999,51.33886113943564L837.6761718749999,49.48485645760233L849.81640625,49.19653083747114L861.956640625,46.95603943386955L874.096875,46.039894858117556L886.2371093749999,44.41240017957424L898.37734375,45.944324406069164L910.517578125,44.645742131520244L922.6578125,44.05795538619109L934.7980468750001,43.76857277271117L946.93828125,42.70444188426115L959.078515625,42.30043649023873L971.21875,42.096649583256806L983.3589843750001,42.34690086607737L995.4992187500001,42.502478370455464L1007.6394531249999,41.67671803199507L1019.7796874999999,40.14431732036628L1031.919921875,39.48594440304015L1044.06015625,38.84460532237756L1056.200390625,37.94310482483912L1068.3406249999998,37.552108240972764L1080.4808593750001,37.17011208704166L1092.62109375,36.93004968983566L1104.7613281249999,36.69898225797793L1116.9015625000002,36.096350365481264L1129.041796875,35.4683106920728L1141.18203125,36.98311402092036L1153.322265625,37.85357069188155L1165.4625,36.647929675661224L1177.602734375,36.070033238698656L1189.74296875,35.55523513339138L1201.883203125,35.263647667063324L1214.0234375,35.087897468503094L1226.163671875,34.843352162179805L1238.30390625,33.943893059097206L1250.4441406249998,33.087714251281305L1262.5843750000001,32.679755262375764L1274.724609375,32.02870507350016L1286.8648437499999,31.446240450802172L1299.0050781250002,30.910297725118863L1311.1453125,31.42107858867502L1323.285546875,31.78891527420915L1335.42578125,32.03220059136535" style="fill: none;" fill="none"></path></g><g><path stroke="rgb(0, 153, 136)" stroke-width="2px" d="M133.54257812499998,389.44243500125594L145.6828125,349.91769601020735L157.82304687500002,304.3450294236776L169.96328125,265.9611897118258L182.103515625,223.86663029554185L194.24375,190.16088596811247L206.38398437499998,162.84463459891094L218.52421875,137.59229004816294L230.664453125,121.98773680622698L242.8046875,105.609330048609L254.94492187499998,91.47993234343689L267.08515624999995,78.16873702812873L279.22539062500005,68.73948251405591L291.365625,62.026466256125545L303.505859375,56.716639348868995L315.64609375000003,51.95412032501179L327.786328125,49.065201661609784L339.9265625,47.424230944681014L352.066796875,44.70247594635548L364.20703125,41.39571236298365L376.34726562500003,40.1493867309844L388.4875,39.00226742533894L400.62773437500005,37.30219733122545L412.76796874999997,35.931477770783L424.908203125,35.91788055697913L437.0484375,34.89865200033688L449.188671875,33.87045890318348L461.32890625,33.51350997782695L473.469140625,32.65581746748142L485.609375,32.280690529960154L497.74960937500003,33.196869153588864L509.88984374999995,32.14481310518079L522.030078125,31.109214732012287L534.1703124999999,28.483716507696226L546.310546875,28.337783579479378L558.4507812500001,27.864925658429282L570.591015625,27.48886653386466L582.73125,27.339576116485123L594.871484375,28.839023938563724L607.01171875,27.247023688939294L619.151953125,28.20983157036573L631.2921875000001,28.453137311277708L643.4324218749999,29.27427171658079L655.57265625,28.35225992783621L667.712890625,27.684743126498073L679.853125,26.74860422027562L691.993359375,26.752885485961883L704.13359375,26.565057876867385L716.2738281249999,25.715314115971854L728.4140625,25.864450970823594L740.554296875,26.12352135153791L752.6945312500001,26.065264835191684L764.834765625,25.919068482060855L776.975,26.22961457165474L789.115234375,25.5062057709238L801.2554687500001,24.736118652554595L813.3957031250001,22.75373800881613L825.5359374999999,22.574670995997796L837.6761718749999,22.08842673047034L849.81640625,21.789163638017456L861.956640625,22.158964359081995L874.096875,21.945795943330058L886.2371093749999,22.65351091622734L898.37734375,22.44134685277604L910.517578125,23.285579984662824L922.6578125,23.729358497427754L934.7980468750001,24.058555503586987L946.93828125,23.42250254148256L959.078515625,23.935192146265532L971.21875,23.899270009019347L983.3589843750001,23.755160159479676L995.4992187500001,23.53763242757978L1007.6394531249999,21.591597766856356L1019.7796874999999,20.42104451130624L1031.919921875,19.116131533806286L1044.06015625,18.98551545716808L1056.200390625,18.608506871327673L1068.3406249999998,19.106394411960235L1080.4808593750001,19.528009332322465L1092.62109375,19.71236323541608L1104.7613281249999,20.72065636650443L1116.9015625000002,21.022364289377443L1129.041796875,20.862740660199105L1141.18203125,19.921766599707983L1153.322265625,19.76601864736865L1165.4625,20.101753806123707L1177.602734375,20.578576406866016L1189.74296875,20.44446318210946L1201.883203125,21.36075045980092L1214.0234375,22.008934356672107L1226.163671875,22.287444912137158L1238.30390625,22.452461446965632L1250.4441406249998,21.700507685926496L1262.5843750000001,21.18527074777297L1274.724609375,20.84172555877696L1286.8648437499999,20.63059865876394L1299.0050781250002,20.505641546513814" style="fill: none;" fill="none"></path></g></g></g></g><g opacity="0.2"><g><g><g><path stroke="rgb(0, 119, 187)" stroke-width="2px" d="M169.96328125,394.09289268776774L182.103515625,366.3902337104082L194.24375,360.67357460036874L206.38398437499998,348.66919226944447L218.52421875,341.953214854002L230.664453125,326.8697715178132L242.8046875,318.3665108308196L254.94492187499998,312.68874753266573L267.08515624999995,297.11043767631054L279.22539062500005,291.7345154285431L291.365625,281.9137267023325L303.505859375,272.50157222151756L315.64609375000003,264.59264010190964L327.786328125,254.9727838113904L339.9265625,247.53742698580027L352.066796875,244.04318004846573L364.20703125,224.10523883998394L376.34726562500003,218.98910887539387L388.4875,209.31297689676285L400.62773437500005,200.62048271298409L412.76796874999997,192.43709601461887L424.908203125,185.77558256685734L437.0484375,177.00300753116608L449.188671875,166.65830858051777L461.32890625,159.87671598792076L473.469140625,155.85508987307549L485.609375,150.22311113774776L497.74960937500003,136.5826539695263L509.88984374999995,130.4864253848791L522.030078125,123.64003218710423L534.1703124999999,123.72207924723625L546.310546875,119.9846263974905L558.4507812500001,115.87873421609402L570.591015625,117.90072657167912L582.73125,108.01286205649376L594.871484375,101.8416928499937L607.01171875,101.7052099108696L619.151953125,96.16800241172314L631.2921875000001,91.98632694780827L643.4324218749999,93.7250729650259L655.57265625,91.97773180902004L667.712890625,86.13834619522095L679.853125,89.83863770961761L691.993359375,77.52775862812996L704.13359375,79.48753453791142L716.2738281249999,79.58547979593277L728.4140625,70.82130327820778L740.554296875,74.43592429161072L752.6945312500001,69.96518813073635L764.834765625,64.83731709420681L776.975,63.5289740562439L789.115234375,60.04440367221832L801.2554687500001,50.067891255021095L813.3957031250001,47.892366126179695L825.5359374999999,46.74758352339268L837.6761718749999,46.7038494348526L849.81640625,48.764042407274246L861.956640625,43.59530232846737L874.096875,44.66567799448967L886.2371093749999,41.97115816175938L898.37734375,48.24221074581146L910.517578125,42.697868719697L922.6578125,43.17627526819706L934.7980468750001,43.33449885249138L946.93828125,41.10824555158615L959.078515625,41.69442839920521L971.21875,41.79096922278404L983.3589843750001,42.722277790308L995.4992187500001,42.73584462702274L1007.6394531249999,40.43807752430439L1019.7796874999999,37.84571625292301L1031.919921875,38.49838502705097L1044.06015625,37.88259670138359L1056.200390625,36.590854078531265L1068.3406249999998,36.96561336517334L1080.4808593750001,36.597117856144905L1092.62109375,36.569956094026566L1104.7613281249999,36.352381110191345L1116.9015625000002,35.19240252673626L1129.041796875,34.526251181960106L1141.18203125,39.25531901419163L1153.322265625,39.15925569832325L1165.4625,34.83946815133095L1177.602734375,35.203188583254814L1189.74296875,34.78303797543049L1201.883203125,34.82626646757126L1214.0234375,34.82427217066288L1226.163671875,34.47653420269489L1238.30390625,32.594704404473305L1250.4441406249998,31.803446039557457L1262.5843750000001,32.06781677901745L1274.724609375,31.052129790186882L1286.8648437499999,30.572543516755104L1299.0050781250002,30.10638363659382L1311.1453125,32.18724988400936L1323.285546875,32.34067030251026L1335.42578125,32.39712856709957" style="fill: none;" fill="none"></path></g><g><path stroke="rgb(0, 153, 136)" stroke-width="2px" d="M121.40234375,436.4376269001514L133.54257812499998,361.2453198619187L145.6828125,311.9739465788007L157.82304687500002,250.7515735179186L169.96328125,215.84724858403206L182.103515625,165.6347005814314L194.24375,141.96113228797913L206.38398437499998,123.01727786660194L218.52421875,100.34998685121536L230.664453125,98.81679385900497L242.8046875,81.19027085602283L254.94492187499998,70.3627273440361L267.08515624999995,58.24540741741657L279.22539062500005,54.614073634147644L291.365625,51.9648327678442L303.505859375,48.755643889307976L315.64609375000003,44.81235712766647L327.786328125,44.73255716264248L339.9265625,44.963024854660034L352.066796875,40.620092228055L364.20703125,36.43574833869934L376.34726562500003,38.27993929386139L388.4875,37.28161111474037L400.62773437500005,34.752112329006195L412.76796874999997,33.87540817260742L424.908203125,35.89748479425907L437.0484375,33.36981177330017L449.188671875,32.32817083597183L461.32890625,32.97808691859245L473.469140625,31.36927917599678L485.609375,31.71800024807453L497.74960937500003,34.57113690674305L509.88984374999995,30.56672915816307L522.030078125,29.555817246437073L534.1703124999999,24.545469284057617L546.310546875,28.118884190917015L558.4507812500001,27.15563878417015L570.591015625,26.92477785050869L582.73125,27.115640491247177L594.871484375,31.0881956666708L607.01171875,24.859023317694664L619.151953125,29.65404339134693L631.2921875000001,28.818095922470093L643.4324218749999,30.50597332417965L655.57265625,26.969242244958878L667.712890625,26.68346792459488L679.853125,25.344395861029625L691.993359375,26.759307384490967L704.13359375,26.28331646323204L716.2738281249999,24.440698474645615L728.4140625,26.08815625309944L740.554296875,26.512126922607422L752.6945312500001,25.97788006067276L764.834765625,25.69977395236492L776.975,26.69543370604515L789.115234375,24.421092569828033L801.2554687500001,23.580987975001335L813.3957031250001,19.780167043209076L825.5359374999999,22.3060704767704L837.6761718749999,21.35906033217907L849.81640625,21.34026899933815L861.956640625,22.713665440678596L874.096875,21.62604331970215L886.2371093749999,23.71508337557316L898.37734375,22.123100757598877L910.517578125,24.55192968249321L922.6578125,24.39502626657486L934.7980468750001,24.552351012825966L946.93828125,22.46842309832573L959.078515625,24.704226553440094L971.21875,23.845386803150177L983.3589843750001,23.538995385169983L995.4992187500001,23.211340829730034L1007.6394531249999,18.67254577577114L1019.7796874999999,18.665214627981186L1031.919921875,17.15876206755638L1044.06015625,18.78959134221077L1056.200390625,18.042993992567062L1068.3406249999998,19.853225722908974L1080.4808593750001,20.16043171286583L1092.62109375,19.98889409005642L1104.7613281249999,22.233096063137054L1116.9015625000002,21.47492617368698L1129.041796875,20.623305216431618L1141.18203125,18.510305508971214L1153.322265625,19.532396718859673L1165.4625,20.60535654425621L1177.602734375,21.293810307979584L1189.74296875,20.243293344974518L1201.883203125,22.735181376338005L1214.0234375,22.981210201978683L1226.163671875,22.705210745334625L1238.30390625,22.69998624920845L1250.4441406249998,20.57257704436779L1262.5843750000001,20.412415340542793L1274.724609375,20.32640777528286L1286.8648437499999,20.31390830874443L1299.0050781250002,20.318205878138542" style="fill: none;" fill="none"></path></g></g></g></g></g></g><g transform="translate(41, 377)" clip-path="url(#clip_1)"><clipPath id="clip_1"><rect width="1456" height="23"></rect></clipPath><g><g><line x1="0" y1="0" x2="0" y2="5" style="visibility: inherit;" fill="rgb(0, 0, 0)" stroke="rgb(204, 204, 204)" stroke-width="1px"></line><line x1="121.40234375" y1="0" x2="121.40234375" y2="5" style="visibility: inherit;" fill="rgb(0, 0, 0)" stroke="rgb(204, 204, 204)" stroke-width="1px"></line><line x1="242.8046875" y1="0" x2="242.8046875" y2="5" style="visibility: inherit;" fill="rgb(0, 0, 0)" stroke="rgb(204, 204, 204)" stroke-width="1px"></line><line x1="364.20703125" y1="0" x2="364.20703125" y2="5" style="visibility: inherit;" fill="rgb(0, 0, 0)" stroke="rgb(204, 204, 204)" stroke-width="1px"></line><line x1="485.609375" y1="0" x2="485.609375" y2="5" style="visibility: inherit;" fill="rgb(0, 0, 0)" stroke="rgb(204, 204, 204)" stroke-width="1px"></line><line x1="607.01171875" y1="0" x2="607.01171875" y2="5" style="visibility: inherit;" fill="rgb(0, 0, 0)" stroke="rgb(204, 204, 204)" stroke-width="1px"></line><line x1="728.4140625" y1="0" x2="728.4140625" y2="5" style="visibility: inherit;" fill="rgb(0, 0, 0)" stroke="rgb(204, 204, 204)" stroke-width="1px"></line><line x1="849.81640625" y1="0" x2="849.81640625" y2="5" style="visibility: inherit;" fill="rgb(0, 0, 0)" stroke="rgb(204, 204, 204)" stroke-width="1px"></line><line x1="971.21875" y1="0" x2="971.21875" y2="5" style="visibility: inherit;" fill="rgb(0, 0, 0)" stroke="rgb(204, 204, 204)" stroke-width="1px"></line><line x1="1092.62109375" y1="0" x2="1092.62109375" y2="5" style="visibility: inherit;" fill="rgb(0, 0, 0)" stroke="rgb(204, 204, 204)" stroke-width="1px"></line><line x1="1214.0234375" y1="0" x2="1214.0234375" y2="5" style="visibility: inherit;" fill="rgb(0, 0, 0)" stroke="rgb(204, 204, 204)" stroke-width="1px"></line><line x1="1335.42578125" y1="0" x2="1335.42578125" y2="5" style="visibility: inherit;" fill="rgb(0, 0, 0)" stroke="rgb(204, 204, 204)" stroke-width="1px"></line><line x1="1456.828125" y1="0" x2="1456.828125" y2="5" style="visibility: inherit;" fill="rgb(0, 0, 0)" stroke="rgb(204, 204, 204)" stroke-width="1px"></line></g><g transform="translate(0, 8)"><text x="0" y="0" dx="0em" dy="0.95em" style="text-anchor: middle; visibility: hidden; font-family: Roboto, sans-serif; font-size: 12px; font-weight: 200;" fill="rgb(33, 33, 33)" stroke="none" stroke-width="1px">-10</text><text x="121.40234375" y="0" dx="0em" dy="0.95em" style="text-anchor: middle; visibility: inherit; font-family: Roboto, sans-serif; font-size: 12px; font-weight: 200;" fill="rgb(33, 33, 33)" stroke="none" stroke-width="1px">0</text><text x="242.8046875" y="0" dx="0em" dy="0.95em" style="text-anchor: middle; visibility: inherit; font-family: Roboto, sans-serif; font-size: 12px; font-weight: 200;" fill="rgb(33, 33, 33)" stroke="none" stroke-width="1px">10</text><text x="364.20703125" y="0" dx="0em" dy="0.95em" style="text-anchor: middle; visibility: inherit; font-family: Roboto, sans-serif; font-size: 12px; font-weight: 200;" fill="rgb(33, 33, 33)" stroke="none" stroke-width="1px">20</text><text x="485.609375" y="0" dx="0em" dy="0.95em" style="text-anchor: middle; visibility: inherit; font-family: Roboto, sans-serif; font-size: 12px; font-weight: 200;" fill="rgb(33, 33, 33)" stroke="none" stroke-width="1px">30</text><text x="607.01171875" y="0" dx="0em" dy="0.95em" style="text-anchor: middle; visibility: inherit; font-family: Roboto, sans-serif; font-size: 12px; font-weight: 200;" fill="rgb(33, 33, 33)" stroke="none" stroke-width="1px">40</text><text x="728.4140625" y="0" dx="0em" dy="0.95em" style="text-anchor: middle; visibility: inherit; font-family: Roboto, sans-serif; font-size: 12px; font-weight: 200;" fill="rgb(33, 33, 33)" stroke="none" stroke-width="1px">50</text><text x="849.81640625" y="0" dx="0em" dy="0.95em" style="text-anchor: middle; visibility: inherit; font-family: Roboto, sans-serif; font-size: 12px; font-weight: 200;" fill="rgb(33, 33, 33)" stroke="none" stroke-width="1px">60</text><text x="971.21875" y="0" dx="0em" dy="0.95em" style="text-anchor: middle; visibility: inherit; font-family: Roboto, sans-serif; font-size: 12px; font-weight: 200;" fill="rgb(33, 33, 33)" stroke="none" stroke-width="1px">70</text><text x="1092.62109375" y="0" dx="0em" dy="0.95em" style="text-anchor: middle; visibility: inherit; font-family: Roboto, sans-serif; font-size: 12px; font-weight: 200;" fill="rgb(33, 33, 33)" stroke="none" stroke-width="1px">80</text><text x="1214.0234375" y="0" dx="0em" dy="0.95em" style="text-anchor: middle; visibility: inherit; font-family: Roboto, sans-serif; font-size: 12px; font-weight: 200;" fill="rgb(33, 33, 33)" stroke="none" stroke-width="1px">90</text><text x="1335.42578125" y="0" dx="0em" dy="0.95em" style="text-anchor: middle; visibility: inherit; font-family: Roboto, sans-serif; font-size: 12px; font-weight: 200;" fill="rgb(33, 33, 33)" stroke="none" stroke-width="1px">100</text><text x="1456.828125" y="0" dx="0em" dy="0.95em" style="text-anchor: middle; visibility: hidden; font-family: Roboto, sans-serif; font-size: 12px; font-weight: 200;" fill="rgb(33, 33, 33)" stroke="none" stroke-width="1px">110</text></g><line x1="0" y1="0" x2="1456.828125" y2="0" fill="rgb(0, 0, 0)" stroke="rgb(204, 204, 204)" stroke-width="1px"></line></g></g></g></g></svg>