<svg viewBox="0 0 1498 400" xmlns="http://www.w3.org/2000/svg"><g><g><g><g><g><line x1="51.5625" y1="377" x2="46.5625" y2="377" style="visibility: inherit;" fill="rgb(0, 0, 0)" stroke="rgb(204, 204, 204)" stroke-width="1px"></line><line x1="51.5625" y1="329.87499999999994" x2="46.5625" y2="329.87499999999994" style="visibility: inherit;" fill="rgb(0, 0, 0)" stroke="rgb(204, 204, 204)" stroke-width="1px"></line><line x1="51.5625" y1="282.75" x2="46.5625" y2="282.75" style="visibility: inherit;" fill="rgb(0, 0, 0)" stroke="rgb(204, 204, 204)" stroke-width="1px"></line><line x1="51.5625" y1="235.625" x2="46.5625" y2="235.625" style="visibility: inherit;" fill="rgb(0, 0, 0)" stroke="rgb(204, 204, 204)" stroke-width="1px"></line><line x1="51.5625" y1="188.49999999999997" x2="46.5625" y2="188.49999999999997" style="visibility: inherit;" fill="rgb(0, 0, 0)" stroke="rgb(204, 204, 204)" stroke-width="1px"></line><line x1="51.5625" y1="141.375" x2="46.5625" y2="141.375" style="visibility: inherit;" fill="rgb(0, 0, 0)" stroke="rgb(204, 204, 204)" stroke-width="1px"></line><line x1="51.5625" y1="94.24999999999996" x2="46.5625" y2="94.24999999999996" style="visibility: inherit;" fill="rgb(0, 0, 0)" stroke="rgb(204, 204, 204)" stroke-width="1px"></line><line x1="51.5625" y1="47.12500000000004" x2="46.5625" y2="47.12500000000004" style="visibility: inherit;" fill="rgb(0, 0, 0)" stroke="rgb(204, 204, 204)" stroke-width="1px"></line><line x1="51.5625" y1="0" x2="46.5625" y2="0" style="visibility: inherit;" fill="rgb(0, 0, 0)" stroke="rgb(204, 204, 204)" stroke-width="1px"></line></g><g transform="translate(41.5625, 0)"><text x="0" y="377" dx="0em" dy="0.3em" style="text-anchor: end; visibility: hidden; font-family: Roboto, sans-serif; font-size: 12px; font-weight: 200;" fill="rgb(33, 33, 33)" stroke="none" stroke-width="1px">0.6</text><text x="0" y="329.87499999999994" dx="0em" dy="0.3em" style="text-anchor: end; visibility: inherit; font-family: Roboto, sans-serif; font-size: 12px; font-weight: 200;" fill="rgb(33, 33, 33)" stroke="none" stroke-width="1px">0.65</text><text x="0" y="282.75" dx="0em" dy="0.3em" style="text-anchor: end; visibility: inherit; font-family: Roboto, sans-serif; font-size: 12px; font-weight: 200;" fill="rgb(33, 33, 33)" stroke="none" stroke-width="1px">0.7</text><text x="0" y="235.625" dx="0em" dy="0.3em" style="text-anchor: end; visibility: inherit; font-family: Roboto, sans-serif; font-size: 12px; font-weight: 200;" fill="rgb(33, 33, 33)" stroke="none" stroke-width="1px">0.75</text><text x="0" y="188.49999999999997" dx="0em" dy="0.3em" style="text-anchor: end; visibility: inherit; font-family: Roboto, sans-serif; font-size: 12px; font-weight: 200;" fill="rgb(33, 33, 33)" stroke="none" stroke-width="1px">0.8</text><text x="0" y="141.375" dx="0em" dy="0.3em" style="text-anchor: end; visibility: inherit; font-family: Roboto, sans-serif; font-size: 12px; font-weight: 200;" fill="rgb(33, 33, 33)" stroke="none" stroke-width="1px">0.85</text><text x="0" y="94.24999999999996" dx="0em" dy="0.3em" style="text-anchor: end; visibility: inherit; font-family: Roboto, sans-serif; font-size: 12px; font-weight: 200;" fill="rgb(33, 33, 33)" stroke="none" stroke-width="1px">0.9</text><text x="0" y="47.12500000000004" dx="0em" dy="0.3em" style="text-anchor: end; visibility: inherit; font-family: Roboto, sans-serif; font-size: 12px; font-weight: 200;" fill="rgb(33, 33, 33)" stroke="none" stroke-width="1px">0.95</text><text x="0" y="0" dx="0em" dy="0.3em" style="text-anchor: end; visibility: hidden; font-family: Roboto, sans-serif; font-size: 12px; font-weight: 200;" fill="rgb(33, 33, 33)" stroke="none" stroke-width="1px">1</text></g><line x1="51.5625" y1="0" x2="51.5625" y2="377" fill="rgb(0, 0, 0)" stroke="rgb(204, 204, 204)" stroke-width="1px"></line></g></g><g transform="translate(51, 0)" clip-path="url(#clip_0)"><clipPath id="clip_0"><rect width="1446" height="377"></rect></clipPath><g><g><g><line x1="0" y1="0" x2="0" y2="377" fill="rgb(0, 0, 0)" stroke="rgb(66, 66, 66)" stroke-width="1px" opacity="0.25"></line><line x1="120.53645833333333" y1="0" x2="120.53645833333333" y2="377" fill="rgb(0, 0, 0)" stroke="rgb(66, 66, 66)" stroke-width="1px" opacity="0.25"></line><line x1="241.07291666666666" y1="0" x2="241.07291666666666" y2="377" fill="rgb(0, 0, 0)" stroke="rgb(66, 66, 66)" stroke-width="1px" opacity="0.25"></line><line x1="361.609375" y1="0" x2="361.609375" y2="377" fill="rgb(0, 0, 0)" stroke="rgb(66, 66, 66)" stroke-width="1px" opacity="0.25"></line><line x1="482.1458333333333" y1="0" x2="482.1458333333333" y2="377" fill="rgb(0, 0, 0)" stroke="rgb(66, 66, 66)" stroke-width="1px" opacity="0.25"></line><line x1="602.6822916666667" y1="0" x2="602.6822916666667" y2="377" fill="rgb(0, 0, 0)" stroke="rgb(66, 66, 66)" stroke-width="1px" opacity="0.25"></line><line x1="723.21875" y1="0" x2="723.21875" y2="377" fill="rgb(0, 0, 0)" stroke="rgb(66, 66, 66)" stroke-width="1px" opacity="0.25"></line><line x1="843.7552083333334" y1="0" x2="843.7552083333334" y2="377" fill="rgb(0, 0, 0)" stroke="rgb(66, 66, 66)" stroke-width="1px" opacity="0.25"></line><line x1="964.2916666666666" y1="0" x2="964.2916666666666" y2="377" fill="rgb(0, 0, 0)" stroke="rgb(66, 66, 66)" stroke-width="1px" opacity="0.25"></line><line x1="1084.828125" y1="0" x2="1084.828125" y2="377" fill="rgb(0, 0, 0)" stroke="rgb(66, 66, 66)" stroke-width="1px" opacity="0.25"></line><line x1="1205.3645833333335" y1="0" x2="1205.3645833333335" y2="377" fill="rgb(0, 0, 0)" stroke="rgb(66, 66, 66)" stroke-width="1px" opacity="0.25"></line><line x1="1325.9010416666665" y1="0" x2="1325.9010416666665" y2="377" fill="rgb(0, 0, 0)" stroke="rgb(66, 66, 66)" stroke-width="1px" opacity="0.25"></line><line x1="1446.4375" y1="0" x2="1446.4375" y2="377" fill="rgb(0, 0, 0)" stroke="rgb(66, 66, 66)" stroke-width="1px" opacity="0.25"></line></g><g><line x1="0" y1="377" x2="1446.4375" y2="377" fill="rgb(0, 0, 0)" stroke="rgb(66, 66, 66)" stroke-width="1px" opacity="0.25"></line><line x1="0" y1="329.87499999999994" x2="1446.4375" y2="329.87499999999994" fill="rgb(0, 0, 0)" stroke="rgb(66, 66, 66)" stroke-width="1px" opacity="0.25"></line><line x1="0" y1="282.75" x2="1446.4375" y2="282.75" fill="rgb(0, 0, 0)" stroke="rgb(66, 66, 66)" stroke-width="1px" opacity="0.25"></line><line x1="0" y1="235.625" x2="1446.4375" y2="235.625" fill="rgb(0, 0, 0)" stroke="rgb(66, 66, 66)" stroke-width="1px" opacity="0.25"></line><line x1="0" y1="188.49999999999997" x2="1446.4375" y2="188.49999999999997" fill="rgb(0, 0, 0)" stroke="rgb(66, 66, 66)" stroke-width="1px" opacity="0.25"></line><line x1="0" y1="141.375" x2="1446.4375" y2="141.375" fill="rgb(0, 0, 0)" stroke="rgb(66, 66, 66)" stroke-width="1px" opacity="0.25"></line><line x1="0" y1="94.24999999999996" x2="1446.4375" y2="94.24999999999996" fill="rgb(0, 0, 0)" stroke="rgb(66, 66, 66)" stroke-width="1px" opacity="0.25"></line><line x1="0" y1="47.12500000000004" x2="1446.4375" y2="47.12500000000004" fill="rgb(0, 0, 0)" stroke="rgb(66, 66, 66)" stroke-width="1px" opacity="0.25"></line><line x1="0" y1="0" x2="1446.4375" y2="0" fill="rgb(0, 0, 0)" stroke="rgb(66, 66, 66)" stroke-width="1px" opacity="0.25"></line></g></g></g><g><g><line x1="0" y1="942.5" x2="1446.4375" y2="942.5" fill="rgb(0, 0, 0)" stroke="rgb(153, 153, 153)" stroke-width="1.5px"></line></g></g><g><g><line x1="120.53645833333333" y1="0" x2="120.53645833333333" y2="377" fill="rgb(0, 0, 0)" stroke="rgb(153, 153, 153)" stroke-width="1.5px"></line></g></g><g><g><g><g><g><path stroke="rgb(0, 119, 187)" stroke-width="2px" d="M144.64375,414.43982320939443L156.69739583333333,372.34301877951265L168.75104166666668,345.06422866595483L180.8046875,302.7051902182267L192.85833333333332,279.875308619243L204.91197916666667,254.95787955833885L216.965625,253.11223537933753L229.0192708333333,258.13282776906027L241.07291666666666,250.55389135589525L253.12656249999998,193.09910059156724L265.1802083333333,181.35357120811506L277.2338541666667,173.9821238579366L289.2875,165.73102380783865L301.34114583333337,160.53597928625757L313.39479166666666,152.9806770347985L325.4484375,136.24539341481324L337.50208333333336,128.3478670519402L349.55572916666665,128.33183260954965L361.609375,204.06540538528736L373.66302083333335,258.03248124256953L385.71666666666664,293.76047029878697L397.77031250000005,308.49333749384243L409.82395833333334,319.0002051457622L421.8776041666667,347.3540548634444L433.93125,315.0272429023929L445.9848958333334,316.02831890276826L458.0385416666666,323.6634080533274L470.0921875,339.900818774028L482.1458333333333,340.7251254870682L494.19947916666666,314.9331887790989L506.25312499999995,348.1873214763889L518.3067708333333,350.03333636580976L530.3604166666667,330.30428362821397L542.4140625,304.7412356060665L554.4677083333333,280.61901776894024L566.5213541666667,272.5674355857861L578.575,281.82566029902387L590.6286458333333,285.5556617612399L602.6822916666667,282.4659124847162L614.7359375,262.3458986683765L626.7895833333333,246.66907794047214L638.8432291666667,248.0382784414805L650.896875,245.89325119285442L662.9505208333333,242.29199653381698L675.0041666666667,249.3760177228395L687.0578125,235.53601150085518L699.1114583333333,227.50289508314034L711.1651041666667,239.56825964824827L723.21875,228.8969843576419L735.2723958333332,238.1766734713626L747.3260416666667,243.1693429466758L759.3796875,213.0765590498535L771.4333333333333,173.43313589270534L783.4869791666666,188.1142941986116L795.5406250000001,187.31685983387172L807.5942708333333,167.86102937011185L819.6479166666667,144.35100255219905L831.7015624999999,129.9760316479722L843.7552083333334,128.11010895183793L855.8088541666667,115.88118677145872L867.8625,110.30951091531882L879.9161458333333,110.95229034950728L891.9697916666668,112.82281598645689L904.0234375,111.93982369421856L916.0770833333332,122.10325733851772L928.1307291666667,123.23278800267812L940.184375,115.55182943116917L952.2380208333333,116.24824136120843L964.2916666666666,115.12042414917218L976.3453125000001,116.27401525839369L988.3989583333333,120.41546091475593L1000.4526041666667,116.68243637703966L1012.5062499999999,113.17743969573452L1024.5598958333335,110.4015939987532L1036.6135416666666,105.87966916303823L1048.6671875,102.25951926315425L1060.7208333333333,99.02286801579355L1072.7744791666667,93.58976783658719L1084.828125,89.85361344996497L1096.8817708333333,85.36828623642566L1108.9354166666667,84.39063475388313L1120.9890625,79.8116075149656L1133.0427083333334,82.1582209558177L1145.0963541666665,83.0159428412251L1157.15,80.49472801056692L1169.2036458333334,78.4350561628771L1181.2572916666666,77.94722113192269L1193.3109375,78.72950794208163L1205.3645833333335,78.22307897751399L1217.4182291666666,76.49575426068827L1229.471875,75.15038385323837L1241.5255208333333,73.70393046338646L1253.5791666666667,71.84569620251231L1265.6328125,69.16888972019899L1277.6864583333333,64.89586347279395L1289.7401041666667,62.23564734421641L1301.79375,61.159001114144736L1313.8473958333334,60.244755162104894L1325.9010416666665,59.04412306148111" style="fill: none;" fill="none"></path></g><g><path stroke="rgb(0, 153, 136)" stroke-width="2px" d="M120.53645833333333,400.17904445528984L132.59010416666666,264.44891730323434L144.64375,201.73519780745315L156.69739583333333,163.57801064027137L168.75104166666668,193.77866635361454L180.8046875,186.1278534261859L192.85833333333332,178.06374361916983L204.91197916666667,217.08595856788696L216.965625,214.91100885685307L229.0192708333333,225.7007087076802L241.07291666666666,214.4189083989541L253.12656249999998,200.8356165216801L265.1802083333333,163.00061075645462L277.2338541666667,137.4534624345302L289.2875,135.4801681877756L301.34114583333337,116.95434092373685L313.39479166666666,123.15366243481986L325.4484375,110.80242391366382L337.50208333333336,94.67920096174687L349.55572916666665,76.7904406280155L361.609375,78.38303277671201L373.66302083333335,66.27985002385324L385.71666666666664,69.30761702906457L397.77031250000005,68.48371042651885L409.82395833333334,66.52920241105323L421.8776041666667,62.39464498570192L433.93125,56.72382320914102L445.9848958333334,49.184114629942115L458.0385416666666,46.26671885936185L470.0921875,44.264090545243796L482.1458333333333,41.79317458712367L494.19947916666666,44.01981552823994L506.25312499999995,50.79093906063503L518.3067708333333,48.85079034240617L530.3604166666667,44.2575215984823L542.4140625,40.99589658528723L554.4677083333333,41.76673778027591L566.5213541666667,39.34293870103562L578.575,38.22060014934965L590.6286458333333,39.520191469330086L602.6822916666667,39.835673939563705L614.7359375,35.788807134694174L626.7895833333333,33.85754225249931L638.8432291666667,32.94391892891689L650.896875,33.56369508834105L662.9505208333333,34.338105401632255L675.0041666666667,31.70726572339064L687.0578125,33.126701384006005L699.1114583333333,34.95173696831422L711.1651041666667,35.36361893508496L723.21875,33.81455511148213L735.2723958333332,33.42601508078139L747.3260416666667,33.85600882874286L759.3796875,32.629304397738835L771.4333333333333,32.23946921148092L783.4869791666666,32.712144685496234L795.5406250000001,34.12091543239949L807.5942708333333,32.950623452440354L819.6479166666667,31.797613572940417L831.7015624999999,31.06367461196501L843.7552083333334,34.41860993094413L855.8088541666667,34.38316416375141L867.8625,35.05238408823192L879.9161458333333,32.381035953637145L891.9697916666668,32.13567475669152L904.0234375,31.44706541414598L916.0770833333332,29.67582293817731L928.1307291666667,28.844910254891747L940.184375,30.19621627975466L952.2380208333333,31.44055442481606L964.2916666666666,31.329530992921406L976.3453125000001,32.174608361015395L988.3989583333333,31.91009220557789L1000.4526041666667,31.620646518930158L1012.5062499999999,30.415090562382044L1024.5598958333335,29.08798500387591L1036.6135416666666,28.681997147135228L1048.6671875,27.857013515789674L1060.7208333333333,28.838117642497597L1072.7744791666667,30.202612175521597L1084.828125,29.553955789790955L1096.8817708333333,28.322415886155653L1108.9354166666667,28.874268315930216L1120.9890625,28.8895954982633L1133.0427083333334,26.855216103565372L1145.0963541666665,26.53526912794805L1157.15,26.69040972391543L1169.2036458333334,24.2130419874178L1181.2572916666666,23.102605298995133L1193.3109375,23.276711914443418L1205.3645833333335,23.005371697845128L1217.4182291666666,22.551568751396022L1229.471875,23.383262339151628L1241.5255208333333,25.155078102896564L1253.5791666666667,24.767712610810957L1265.6328125,24.49387935271857L1277.6864583333333,24.69405822438588L1289.7401041666667,24.829490736023086" style="fill: none;" fill="none"></path></g></g></g></g><g opacity="0.2"><g><g><g><path stroke="rgb(0, 119, 187)" stroke-width="2px" d="M120.53645833333333,942.468210334946L132.59010416666666,217.2514583170414L144.64375,342.6626227796078L156.69739583333333,322.83717676997185L168.75104166666668,309.44904029369354L180.8046875,244.10739079117775L192.85833333333332,247.2282126545906L204.91197916666667,218.62802878022194L216.965625,250.39026871323586L229.0192708333333,265.5878223478794L241.07291666666666,239.25422713160515L253.12656249999998,107.22958087921143L265.1802083333333,163.77362832427025L277.2338541666667,162.93939426541328L289.2875,153.36407259106636L301.34114583333337,152.7470764517784L313.39479166666666,141.65092080831528L325.4484375,111.1467170715332L337.50208333333336,116.50278061628342L349.55572916666665,128.30778241157532L361.609375,317.6616111397743L373.66302083333335,338.981319218874L385.71666666666664,347.351748496294L397.77031250000005,330.59246376156807L409.82395833333334,334.76043194532394L421.8776041666667,389.8847085237503L433.93125,266.5371076762676L445.9848958333334,317.52993136644363L458.0385416666666,335.11603474617004L470.0921875,364.25692588090897L482.1458333333333,341.9615852832794L494.19947916666666,276.24528884887695L506.25312499999995,398.0685165524483L518.3067708333333,352.8023585677147L530.3604166666667,300.7107053697109L542.4140625,266.3966642320156L554.4677083333333,244.43569138646126L566.5213541666667,260.4900623857975L578.575,295.71299731731415L590.6286458333333,291.1506639420986L602.6822916666667,277.8312885761261L614.7359375,232.1658779680729L626.7895833333333,223.15384685993195L638.8432291666667,250.09207919239998L650.896875,242.67571032047272L662.9505208333333,236.89011454582214L675.0041666666667,260.0020495057106L687.0578125,214.7760021686554L699.1114583333333,215.4532204568386L711.1651041666667,257.6663064956665L723.21875,212.89007142186165L735.2723958333332,252.09620714187622L747.3260416666667,250.6583471596241L759.3796875,167.93738320469856L771.4333333333333,113.96800115704536L783.4869791666666,210.13603165745735L795.5406250000001,186.12070828676224L807.5942708333333,138.67728367447853L819.6479166666667,109.08596232533455L831.7015624999999,108.4135752916336L843.7552083333334,125.31122490763664L855.8088541666667,97.53780350089073L867.8625,101.95199713110924L879.9161458333333,111.91645950078964L891.9697916666668,115.62860444188118L904.0234375,110.61533525586128L916.0770833333332,137.34840780496597L928.1307291666667,124.92708399891853L940.184375,104.03039157390594L952.2380208333333,117.29285925626755L964.2916666666666,113.42869833111763L976.3453125000001,118.00440192222595L988.3989583333333,126.62762939929962L1000.4526041666667,111.08289957046509L1012.5062499999999,107.91994467377663L1024.5598958333335,106.2378254532814L1036.6135416666666,99.09678190946579L1048.6671875,96.82929441332817L1060.7208333333333,94.1678911447525L1072.7744791666667,85.44011756777763L1084.828125,84.24938187003136L1096.8817708333333,78.64029541611671L1108.9354166666667,82.92415753006935L1120.9890625,72.94306665658951L1133.0427083333334,85.67814111709595L1145.0963541666665,84.30252566933632L1157.15,76.71290576457977L1169.2036458333334,75.34554839134216L1181.2572916666666,77.21546858549118L1193.3109375,79.90293815732002L1205.3645833333335,77.46343553066254L1217.4182291666666,73.9047671854496L1229.471875,73.13232824206352L1241.5255208333333,71.5342503786087L1253.5791666666667,69.0583448112011L1265.6328125,65.1536799967289L1277.6864583333333,58.48632410168648L1289.7401041666667,58.24532315135002L1301.79375,59.54403176903725L1313.8473958333334,58.87338623404503L1325.9010416666665,57.24317491054535" style="fill: none;" fill="none"></path></g><g><path stroke="rgb(0, 153, 136)" stroke-width="2px" d="M120.53645833333333,400.17904445528984L132.59010416666666,183.01084101200104L144.64375,141.53002709150314L156.69739583333333,118.7051585316658L168.75104166666668,233.20864245295525L180.8046875,175.54402485489845L192.85833333333332,166.5319375693798L204.91197916666667,273.9807225763798L216.965625,211.70338049530983L229.0192708333333,241.72215551137924L241.07291666666666,197.59853303432465L253.12656249999998,180.53459838032722L265.1802083333333,106.37163996696472L277.2338541666667,99.18278947472572L289.2875,132.52254635095596L301.34114583333337,89.17866587638855L313.39479166666666,132.45002135634422L325.4484375,92.27870211005211L337.50208333333336,70.49682274460793L349.55572916666665,49.95893523097038L361.609375,80.77183365821838L373.66302083333335,48.12547415494919L385.71666666666664,73.8492077589035L397.77031250000005,67.24786028265953L409.82395833333334,63.59745427966118L421.8776041666667,56.192826479673386L433.93125,48.21760505437851L445.9848958333334,37.874563336372375L458.0385416666666,41.89062789082527L470.0921875,41.26014918088913L482.1458333333333,38.08680146932602L494.19947916666666,47.35977649688721L506.25312499999995,60.947623550891876L518.3067708333333,45.94056740403175L530.3604166666667,37.367618680000305L542.4140625,36.103459149599075L554.4677083333333,42.92299956083298L566.5213541666667,35.70724010467529L578.575,36.537092328071594L590.6286458333333,41.46957844495773L602.6822916666667,40.30889764428139L614.7359375,29.718506932258606L626.7895833333333,30.96064493060112L638.8432291666667,31.57348394393921L650.896875,34.493359327316284L662.9505208333333,35.49972087144852L675.0041666666667,27.761006206274033L687.0578125,35.25585487484932L699.1114583333333,37.68929034471512L711.1651041666667,35.981441885232925L723.21875,31.490959376096725L735.2723958333332,32.84320503473282L747.3260416666667,34.500999450683594L759.3796875,30.789247751235962L771.4333333333333,31.654716432094574L783.4869791666666,33.42115789651871L795.5406250000001,36.23407155275345L807.5942708333333,31.195185482501984L819.6479166666667,30.06809875369072L831.7015624999999,29.96276617050171L843.7552083333334,39.451012909412384L855.8088541666667,34.32999551296234L867.8625,36.0562139749527L879.9161458333333,28.374013751745224L891.9697916666668,31.767632961273193L904.0234375,30.414151400327682L916.0770833333332,27.01895922422409L928.1307291666667,27.598541229963303L940.184375,32.22317531704903L952.2380208333333,33.30706164240837L964.2916666666666,31.162995845079422L976.3453125000001,33.44222441315651L988.3989583333333,31.513317972421646L1000.4526041666667,31.18647798895836L1012.5062499999999,28.606756627559662L1024.5598958333335,27.097326666116714L1036.6135416666666,28.073015362024307L1048.6671875,26.619538068771362L1060.7208333333333,30.309773832559586L1072.7744791666667,32.2493539750576L1084.828125,28.580971211194992L1096.8817708333333,26.47510603070259L1108.9354166666667,29.70204696059227L1120.9890625,28.912586271762848L1133.0427083333334,23.80364701151848L1145.0963541666665,26.05534866452217L1157.15,26.923120617866516L1169.2036458333334,20.496990382671356L1181.2572916666666,21.436950266361237L1193.3109375,23.537871837615967L1205.3645833333335,22.598361372947693L1217.4182291666666,21.87086433172226L1229.471875,24.63080272078514L1241.5255208333333,27.812801748514175L1253.5791666666667,24.18666437268257L1265.6328125,24.083129465579987L1277.6864583333333,24.994326531887054L1289.7401041666667,25.032639503479004" style="fill: none;" fill="none"></path></g></g></g></g></g></g><g transform="translate(51, 377)" clip-path="url(#clip_1)"><clipPath id="clip_1"><rect width="1446" height="23"></rect></clipPath><g><g><line x1="0" y1="0" x2="0" y2="5" style="visibility: inherit;" fill="rgb(0, 0, 0)" stroke="rgb(204, 204, 204)" stroke-width="1px"></line><line x1="120.53645833333333" y1="0" x2="120.53645833333333" y2="5" style="visibility: inherit;" fill="rgb(0, 0, 0)" stroke="rgb(204, 204, 204)" stroke-width="1px"></line><line x1="241.07291666666666" y1="0" x2="241.07291666666666" y2="5" style="visibility: inherit;" fill="rgb(0, 0, 0)" stroke="rgb(204, 204, 204)" stroke-width="1px"></line><line x1="361.609375" y1="0" x2="361.609375" y2="5" style="visibility: inherit;" fill="rgb(0, 0, 0)" stroke="rgb(204, 204, 204)" stroke-width="1px"></line><line x1="482.1458333333333" y1="0" x2="482.1458333333333" y2="5" style="visibility: inherit;" fill="rgb(0, 0, 0)" stroke="rgb(204, 204, 204)" stroke-width="1px"></line><line x1="602.6822916666667" y1="0" x2="602.6822916666667" y2="5" style="visibility: inherit;" fill="rgb(0, 0, 0)" stroke="rgb(204, 204, 204)" stroke-width="1px"></line><line x1="723.21875" y1="0" x2="723.21875" y2="5" style="visibility: inherit;" fill="rgb(0, 0, 0)" stroke="rgb(204, 204, 204)" stroke-width="1px"></line><line x1="843.7552083333334" y1="0" x2="843.7552083333334" y2="5" style="visibility: inherit;" fill="rgb(0, 0, 0)" stroke="rgb(204, 204, 204)" stroke-width="1px"></line><line x1="964.2916666666666" y1="0" x2="964.2916666666666" y2="5" style="visibility: inherit;" fill="rgb(0, 0, 0)" stroke="rgb(204, 204, 204)" stroke-width="1px"></line><line x1="1084.828125" y1="0" x2="1084.828125" y2="5" style="visibility: inherit;" fill="rgb(0, 0, 0)" stroke="rgb(204, 204, 204)" stroke-width="1px"></line><line x1="1205.3645833333335" y1="0" x2="1205.3645833333335" y2="5" style="visibility: inherit;" fill="rgb(0, 0, 0)" stroke="rgb(204, 204, 204)" stroke-width="1px"></line><line x1="1325.9010416666665" y1="0" x2="1325.9010416666665" y2="5" style="visibility: inherit;" fill="rgb(0, 0, 0)" stroke="rgb(204, 204, 204)" stroke-width="1px"></line><line x1="1446.4375" y1="0" x2="1446.4375" y2="5" style="visibility: inherit;" fill="rgb(0, 0, 0)" stroke="rgb(204, 204, 204)" stroke-width="1px"></line></g><g transform="translate(0, 8)"><text x="0" y="0" dx="0em" dy="0.95em" style="text-anchor: middle; visibility: hidden; font-family: Roboto, sans-serif; font-size: 12px; font-weight: 200;" fill="rgb(33, 33, 33)" stroke="none" stroke-width="1px">-10</text><text x="120.53645833333333" y="0" dx="0em" dy="0.95em" style="text-anchor: middle; visibility: inherit; font-family: Roboto, sans-serif; font-size: 12px; font-weight: 200;" fill="rgb(33, 33, 33)" stroke="none" stroke-width="1px">0</text><text x="241.07291666666666" y="0" dx="0em" dy="0.95em" style="text-anchor: middle; visibility: inherit; font-family: Roboto, sans-serif; font-size: 12px; font-weight: 200;" fill="rgb(33, 33, 33)" stroke="none" stroke-width="1px">10</text><text x="361.609375" y="0" dx="0em" dy="0.95em" style="text-anchor: middle; visibility: inherit; font-family: Roboto, sans-serif; font-size: 12px; font-weight: 200;" fill="rgb(33, 33, 33)" stroke="none" stroke-width="1px">20</text><text x="482.1458333333333" y="0" dx="0em" dy="0.95em" style="text-anchor: middle; visibility: inherit; font-family: Roboto, sans-serif; font-size: 12px; font-weight: 200;" fill="rgb(33, 33, 33)" stroke="none" stroke-width="1px">30</text><text x="602.6822916666667" y="0" dx="0em" dy="0.95em" style="text-anchor: middle; visibility: inherit; font-family: Roboto, sans-serif; font-size: 12px; font-weight: 200;" fill="rgb(33, 33, 33)" stroke="none" stroke-width="1px">40</text><text x="723.21875" y="0" dx="0em" dy="0.95em" style="text-anchor: middle; visibility: inherit; font-family: Roboto, sans-serif; font-size: 12px; font-weight: 200;" fill="rgb(33, 33, 33)" stroke="none" stroke-width="1px">50</text><text x="843.7552083333334" y="0" dx="0em" dy="0.95em" style="text-anchor: middle; visibility: inherit; font-family: Roboto, sans-serif; font-size: 12px; font-weight: 200;" fill="rgb(33, 33, 33)" stroke="none" stroke-width="1px">60</text><text x="964.2916666666666" y="0" dx="0em" dy="0.95em" style="text-anchor: middle; visibility: inherit; font-family: Roboto, sans-serif; font-size: 12px; font-weight: 200;" fill="rgb(33, 33, 33)" stroke="none" stroke-width="1px">70</text><text x="1084.828125" y="0" dx="0em" dy="0.95em" style="text-anchor: middle; visibility: inherit; font-family: Roboto, sans-serif; font-size: 12px; font-weight: 200;" fill="rgb(33, 33, 33)" stroke="none" stroke-width="1px">80</text><text x="1205.3645833333335" y="0" dx="0em" dy="0.95em" style="text-anchor: middle; visibility: inherit; font-family: Roboto, sans-serif; font-size: 12px; font-weight: 200;" fill="rgb(33, 33, 33)" stroke="none" stroke-width="1px">90</text><text x="1325.9010416666665" y="0" dx="0em" dy="0.95em" style="text-anchor: middle; visibility: inherit; font-family: Roboto, sans-serif; font-size: 12px; font-weight: 200;" fill="rgb(33, 33, 33)" stroke="none" stroke-width="1px">100</text><text x="1446.4375" y="0" dx="0em" dy="0.95em" style="text-anchor: middle; visibility: hidden; font-family: Roboto, sans-serif; font-size: 12px; font-weight: 200;" fill="rgb(33, 33, 33)" stroke="none" stroke-width="1px">110</text></g><line x1="0" y1="0" x2="1446.4375" y2="0" fill="rgb(0, 0, 0)" stroke="rgb(204, 204, 204)" stroke-width="1px"></line></g></g></g></g></svg>