<svg viewBox="0 0 1498 400" xmlns="http://www.w3.org/2000/svg"><g><g><g><g><g><line x1="51.5625" y1="377" x2="46.5625" y2="377" style="visibility: inherit;" fill="rgb(0, 0, 0)" stroke="rgb(204, 204, 204)" stroke-width="1px"></line><line x1="51.5625" y1="323.1428571428571" x2="46.5625" y2="323.1428571428571" style="visibility: inherit;" fill="rgb(0, 0, 0)" stroke="rgb(204, 204, 204)" stroke-width="1px"></line><line x1="51.5625" y1="269.2857142857143" x2="46.5625" y2="269.2857142857143" style="visibility: inherit;" fill="rgb(0, 0, 0)" stroke="rgb(204, 204, 204)" stroke-width="1px"></line><line x1="51.5625" y1="215.42857142857142" x2="46.5625" y2="215.42857142857142" style="visibility: inherit;" fill="rgb(0, 0, 0)" stroke="rgb(204, 204, 204)" stroke-width="1px"></line><line x1="51.5625" y1="161.57142857142856" x2="46.5625" y2="161.57142857142856" style="visibility: inherit;" fill="rgb(0, 0, 0)" stroke="rgb(204, 204, 204)" stroke-width="1px"></line><line x1="51.5625" y1="107.71428571428571" x2="46.5625" y2="107.71428571428571" style="visibility: inherit;" fill="rgb(0, 0, 0)" stroke="rgb(204, 204, 204)" stroke-width="1px"></line><line x1="51.5625" y1="53.85714285714283" x2="46.5625" y2="53.85714285714283" style="visibility: inherit;" fill="rgb(0, 0, 0)" stroke="rgb(204, 204, 204)" stroke-width="1px"></line><line x1="51.5625" y1="0" x2="46.5625" y2="0" style="visibility: inherit;" fill="rgb(0, 0, 0)" stroke="rgb(204, 204, 204)" stroke-width="1px"></line></g><g transform="translate(41.5625, 0)"><text x="0" y="377" dx="0em" dy="0.3em" style="text-anchor: end; visibility: hidden; font-family: Roboto, sans-serif; font-size: 12px; font-weight: 200;" fill="rgb(33, 33, 33)" stroke="none" stroke-width="1px">0</text><text x="0" y="323.1428571428571" dx="0em" dy="0.3em" style="text-anchor: end; visibility: inherit; font-family: Roboto, sans-serif; font-size: 12px; font-weight: 200;" fill="rgb(33, 33, 33)" stroke="none" stroke-width="1px">0.05</text><text x="0" y="269.2857142857143" dx="0em" dy="0.3em" style="text-anchor: end; visibility: inherit; font-family: Roboto, sans-serif; font-size: 12px; font-weight: 200;" fill="rgb(33, 33, 33)" stroke="none" stroke-width="1px">0.1</text><text x="0" y="215.42857142857142" dx="0em" dy="0.3em" style="text-anchor: end; visibility: inherit; font-family: Roboto, sans-serif; font-size: 12px; font-weight: 200;" fill="rgb(33, 33, 33)" stroke="none" stroke-width="1px">0.15</text><text x="0" y="161.57142857142856" dx="0em" dy="0.3em" style="text-anchor: end; visibility: inherit; font-family: Roboto, sans-serif; font-size: 12px; font-weight: 200;" fill="rgb(33, 33, 33)" stroke="none" stroke-width="1px">0.2</text><text x="0" y="107.71428571428571" dx="0em" dy="0.3em" style="text-anchor: end; visibility: inherit; font-family: Roboto, sans-serif; font-size: 12px; font-weight: 200;" fill="rgb(33, 33, 33)" stroke="none" stroke-width="1px">0.25</text><text x="0" y="53.85714285714283" dx="0em" dy="0.3em" style="text-anchor: end; visibility: inherit; font-family: Roboto, sans-serif; font-size: 12px; font-weight: 200;" fill="rgb(33, 33, 33)" stroke="none" stroke-width="1px">0.3</text><text x="0" y="0" dx="0em" dy="0.3em" style="text-anchor: end; visibility: hidden; font-family: Roboto, sans-serif; font-size: 12px; font-weight: 200;" fill="rgb(33, 33, 33)" stroke="none" stroke-width="1px">0.35</text></g><line x1="51.5625" y1="0" x2="51.5625" y2="377" fill="rgb(0, 0, 0)" stroke="rgb(204, 204, 204)" stroke-width="1px"></line></g></g><g transform="translate(51, 0)" clip-path="url(#clip_0)"><clipPath id="clip_0"><rect width="1446" height="377"></rect></clipPath><g><g><g><line x1="0" y1="0" x2="0" y2="377" fill="rgb(0, 0, 0)" stroke="rgb(66, 66, 66)" stroke-width="1px" opacity="0.25"></line><line x1="160.71527777777777" y1="0" x2="160.71527777777777" y2="377" fill="rgb(0, 0, 0)" stroke="rgb(66, 66, 66)" stroke-width="1px" opacity="0.25"></line><line x1="321.43055555555554" y1="0" x2="321.43055555555554" y2="377" fill="rgb(0, 0, 0)" stroke="rgb(66, 66, 66)" stroke-width="1px" opacity="0.25"></line><line x1="482.1458333333333" y1="0" x2="482.1458333333333" y2="377" fill="rgb(0, 0, 0)" stroke="rgb(66, 66, 66)" stroke-width="1px" opacity="0.25"></line><line x1="642.8611111111111" y1="0" x2="642.8611111111111" y2="377" fill="rgb(0, 0, 0)" stroke="rgb(66, 66, 66)" stroke-width="1px" opacity="0.25"></line><line x1="803.5763888888889" y1="0" x2="803.5763888888889" y2="377" fill="rgb(0, 0, 0)" stroke="rgb(66, 66, 66)" stroke-width="1px" opacity="0.25"></line><line x1="964.2916666666666" y1="0" x2="964.2916666666666" y2="377" fill="rgb(0, 0, 0)" stroke="rgb(66, 66, 66)" stroke-width="1px" opacity="0.25"></line><line x1="1125.0069444444446" y1="0" x2="1125.0069444444446" y2="377" fill="rgb(0, 0, 0)" stroke="rgb(66, 66, 66)" stroke-width="1px" opacity="0.25"></line><line x1="1285.7222222222222" y1="0" x2="1285.7222222222222" y2="377" fill="rgb(0, 0, 0)" stroke="rgb(66, 66, 66)" stroke-width="1px" opacity="0.25"></line><line x1="1446.4375" y1="0" x2="1446.4375" y2="377" fill="rgb(0, 0, 0)" stroke="rgb(66, 66, 66)" stroke-width="1px" opacity="0.25"></line></g><g><line x1="0" y1="377" x2="1446.4375" y2="377" fill="rgb(0, 0, 0)" stroke="rgb(66, 66, 66)" stroke-width="1px" opacity="0.25"></line><line x1="0" y1="323.1428571428571" x2="1446.4375" y2="323.1428571428571" fill="rgb(0, 0, 0)" stroke="rgb(66, 66, 66)" stroke-width="1px" opacity="0.25"></line><line x1="0" y1="269.2857142857143" x2="1446.4375" y2="269.2857142857143" fill="rgb(0, 0, 0)" stroke="rgb(66, 66, 66)" stroke-width="1px" opacity="0.25"></line><line x1="0" y1="215.42857142857142" x2="1446.4375" y2="215.42857142857142" fill="rgb(0, 0, 0)" stroke="rgb(66, 66, 66)" stroke-width="1px" opacity="0.25"></line><line x1="0" y1="161.57142857142856" x2="1446.4375" y2="161.57142857142856" fill="rgb(0, 0, 0)" stroke="rgb(66, 66, 66)" stroke-width="1px" opacity="0.25"></line><line x1="0" y1="107.71428571428571" x2="1446.4375" y2="107.71428571428571" fill="rgb(0, 0, 0)" stroke="rgb(66, 66, 66)" stroke-width="1px" opacity="0.25"></line><line x1="0" y1="53.85714285714283" x2="1446.4375" y2="53.85714285714283" fill="rgb(0, 0, 0)" stroke="rgb(66, 66, 66)" stroke-width="1px" opacity="0.25"></line><line x1="0" y1="0" x2="1446.4375" y2="0" fill="rgb(0, 0, 0)" stroke="rgb(66, 66, 66)" stroke-width="1px" opacity="0.25"></line></g></g></g><g><g><line x1="0" y1="377" x2="1446.4375" y2="377" fill="rgb(0, 0, 0)" stroke="rgb(153, 153, 153)" stroke-width="1.5px"></line></g></g><g><g><line x1="160.71527777777777" y1="0" x2="160.71527777777777" y2="377" fill="rgb(0, 0, 0)" stroke="rgb(153, 153, 153)" stroke-width="1.5px"></line></g></g><g><g><g><g><g><path stroke="rgb(238, 51, 119)" stroke-width="2px" d="M160.71527777777777,374.1849623874628L168.75104166666668,374.7117301657563L176.78680555555556,373.3877910669247L184.82256944444444,369.153060034364L192.85833333333332,362.9348626602505L200.89409722222223,358.0895672268045L208.92986111111108,354.12367766284694L216.965625,349.561412035164L225.0013888888889,345.33391164811087L233.0371527777778,340.1733471538332L241.07291666666666,334.771343825134L249.10868055555557,329.62005500835807L257.14444444444445,323.9549909279542L265.1802083333333,319.49165539961837L273.2159722222222,314.937218863223L281.25173611111114,311.87052811014286L289.2875,309.46011876243546L297.3232638888889,306.805106445894L305.3590277777778,302.67777592030745L313.39479166666666,297.5367523012549L321.43055555555554,292.35562454781643L329.4663194444444,288.11344253964853L337.50208333333336,281.8997669663413L345.53784722222224,280.9901698789765L353.5736111111111,274.38353864861983L361.609375,270.1553580379428L369.6451388888889,266.4561303127429L377.6809027777778,264.56066593596194L385.71666666666664,261.88501654666015L393.7524305555555,257.0113618125752L401.78819444444446,255.58809135709654L409.82395833333334,254.44765344678328L417.85972222222216,250.96998175459626L425.8954861111111,248.97224182922713L433.93125,244.28564077331032L441.9670138888889,242.20993770092744L450.0027777777778,236.07137635937343L458.0385416666666,233.79042693137296L466.0743055555556,231.69856230500838L474.11006944444443,229.063784916442L482.1458333333333,224.95667638063458L490.18159722222225,220.76130055137116L498.21736111111113,213.6319251850809L506.25312499999995,211.2872768599753L514.2888888888889,209.08883625852985L522.3246527777777,206.96032329794303L530.3604166666667,204.5822352227749L538.3961805555556,201.43065341874495L546.4319444444444,196.14047220423225L554.4677083333333,195.80047686910424L562.5034722222223,193.695405105266L570.5392361111111,189.73161053797654L578.575,187.66796563436566L586.6107638888889,186.15271828565255L594.6465277777778,184.83228726893816L602.6822916666667,182.86968374420078L610.7180555555556,180.05642899886314L618.7538194444444,179.82894030563216L626.7895833333333,176.34337654068204L634.8253472222223,172.36387488542172L642.8611111111111,170.14156651248854L650.896875,166.97601570253047L658.9326388888888,163.64440605551113L666.9684027777778,159.20454283660712L675.0041666666667,156.49920131201608L683.0399305555555,153.22632683519416L691.0756944444445,150.19806973289357L699.1114583333333,150.62704209008925L707.1472222222222,150.483684983112L715.1829861111112,149.19771551096463L723.21875,146.61330589995055L731.2545138888888,141.35395164269792L739.2902777777778,141.3217948682394L747.3260416666667,138.52720351943807L755.3618055555556,135.87738590539013L763.3975694444445,136.38242358454943L771.4333333333333,134.82530086161591L779.4690972222222,130.77716333393818L787.504861111111,127.55031166338236L795.5406250000001,126.70098573909756L803.5763888888889,124.18653834941209L811.6121527777777,120.44831498995465L819.6479166666667,116.1826486823774L827.6836805555555,116.18694044576984L835.7194444444443,116.58854823281789L843.7552083333334,116.08987191983032L851.7909722222222,114.4792293256315L859.8267361111111,111.99016076173564L867.8625,107.42800308033674L875.8982638888888,106.21287785713498L883.9340277777778,104.91101175990477L891.9697916666668,103.35189641299198L900.0055555555556,99.10061366343197L908.0413194444444,98.46620524345626L916.0770833333332,97.73813360668208L924.1128472222222,97.33549783243356L932.1486111111112,96.57347630032072L940.184375,95.58552519762274L948.2201388888889,92.32160047972738L956.2559027777778,90.45571040254981L964.2916666666666,89.51753619227668L972.3274305555557,88.14927277939407L980.3631944444445,87.30269784743292L988.3989583333333,86.84705242182781L996.4347222222223,84.54464100825936L1004.4704861111111,83.03091088124435L1012.5062499999999,81.26785214485288L1020.542013888889,78.90609823481607L1028.5777777777778,77.47200648760332L1036.6135416666666,75.75655101148462L1044.6493055555554,74.03216774536644L1052.6850694444445,72.44340413205481L1060.7208333333333,71.16357242188163L1068.7565972222224,70.23044128234824L1076.7923611111112,70.20903078923016L1084.828125,70.22936445769727L1092.8638888888888,70.28226918159167L1100.8996527777776,70.44661630838912L1108.9354166666667,69.62830705604263L1116.9711805555555,68.0924351199432L1125.0069444444446,65.99569405732623L1133.0427083333334,63.44964018491886L1141.0784722222222,61.380098405221425L1149.114236111111,57.47009556286465L1157.15,54.14637635567406L1165.185763888889,50.69799180450637L1173.2215277777777,48.67763957411746L1181.2572916666666,47.45382038458322L1189.2930555555556,46.32845727880421L1197.3288194444444,46.00191153284256L1205.3645833333335,45.43618927374433L1213.4003472222223,45.79944181938223L1221.4361111111111,45.71376585576767L1229.471875,45.175536752851386L1237.5076388888888,44.101658627627614L1245.5434027777778,42.66712470707453L1253.5791666666667,41.186552799599575L1261.6149305555555,40.17473498906411L1269.6506944444445,39.155925116777404L1277.6864583333333,37.795919943952526L1285.7222222222222,35.82853098798887L1293.7579861111112,33.68405529143442L1301.79375,31.390504338038134L1309.8295138888889,29.338242108808718L1317.8652777777777,29.03904402480013L1325.9010416666665,28.05039116789471L1333.9368055555556,27.616024135987285L1341.9725694444444,26.72404723474659L1350.0083333333334,25.825666321826752L1358.0440972222223,24.21851000569457L1366.079861111111,23.22823979656639L1374.115625,22.77717268756897L1382.151388888889,22.356182498627987L1390.1871527777778,21.801052340461386L1398.2229166666666,21.271822103445462L1406.2586805555554,20.823567228665773L1414.2944444444445,20.413483890470122" style="fill: none;" fill="none"></path></g></g></g></g><g opacity="0.2"><g><g><g><path stroke="rgb(238, 51, 119)" stroke-width="2px" d="M160.71527777777777,374.1849623874628L168.75104166666668,375.0277908327324L176.78680555555556,372.1168095320463L184.82256944444444,364.17301634007265L192.85833333333332,354.81638416860784L200.89409722222223,351.3867793359927L208.92986111111108,348.4523921321545L216.965625,342.90958495225226L225.0013888888889,339.0991697268827L233.0371527777778,332.5105103126594L241.07291666666666,326.71733460468903L249.10868055555557,321.92115486945426L257.14444444444445,315.4758922244821L265.1802083333333,312.8053962460586L273.2159722222222,308.11091762781143L281.25173611111114,307.27265484843934L289.2875,305.8455247453281L297.3232638888889,302.82326207842146L305.3590277777778,296.4874088891915L313.39479166666666,289.8256867825985L321.43055555555554,284.58421706301823L329.4663194444444,281.7503091182028L337.50208333333336,272.5793762845652L345.53784722222224,279.625785022974L353.5736111111111,264.47363876019205L361.609375,263.813105153186L369.6451388888889,260.90729819025313L377.6809027777778,261.7174722807748L385.71666666666664,257.8715449273586L393.7524305555555,249.70088240504265L401.78819444444446,253.45318614585057L409.82395833333334,252.73699680822236L417.85972222222216,245.7534746314798L425.8954861111111,245.9756320842675L433.93125,237.25573939085007L441.9670138888889,239.09638314587727L450.0027777777778,226.86353444201603L458.0385416666666,230.3690028105463L466.0743055555556,228.56076537711277L474.11006944444443,225.1116188423974L482.1458333333333,218.79601358515873L490.18159722222225,214.46823681252343L498.21736111111113,202.93786214079176L506.25312499999995,207.7703043733324L514.2888888888889,205.79117535693302L522.3246527777777,203.7675538573946L530.3604166666667,201.0151031102453L538.3961805555556,196.703280712877L546.4319444444444,188.20520038264138L554.4677083333333,195.29048386641912L562.5034722222223,190.53779745953423L570.5392361111111,183.7859186870711L578.575,184.57249827895845L586.6107638888889,183.87984726258685L594.6465277777778,182.8516407438687L602.6822916666667,179.92577845709664L610.7180555555556,175.8365468808583L618.7538194444444,179.48770726578576L626.7895833333333,171.11503089325768L634.8253472222223,166.39462240253175L642.8611111111111,166.80810395308902L650.896875,162.22768948759352L658.9326388888888,158.64699158498217L666.9684027777778,152.5447480082512L675.0041666666667,152.44118902512957L683.0399305555555,148.31701511996133L691.0756944444445,145.6556840794427L699.1114583333333,151.27050062588282L707.1472222222222,150.268649322646L715.1829861111112,147.26876130274363L723.21875,142.7366914834295L731.2545138888888,133.46492025681903L739.2902777777778,141.27355970655165L747.3260416666667,134.33531649623595L755.3618055555556,131.90265948431832L763.3975694444445,137.13998010328837L771.4333333333333,132.48961677721567L779.4690972222222,124.70495704242158L787.504861111111,122.71003415754862L795.5406250000001,125.42699685267038L803.5763888888889,120.41486726488385L811.6121527777777,114.84097995076857L819.6479166666667,109.78414922101155L827.6836805555555,116.19337809085846L835.7194444444443,117.19095991339002L843.7552083333334,115.34185745034895L851.7909722222222,112.06326543433323L859.8267361111111,108.25655791589189L867.8625,100.58476655823841L875.8982638888888,104.39019002233229L883.9340277777778,102.95821261405945L891.9697916666668,101.0132233926228L900.0055555555556,92.72368953909192L908.0413194444444,97.51459261349268L916.0770833333332,96.64602615152083L924.1128472222222,96.7315441710608L932.1486111111112,95.43044400215149L940.184375,94.10359854357581L948.2201388888889,87.42571340288434L956.2559027777778,87.65687528678346L964.2916666666666,88.11027487686701L972.3274305555557,86.09687766007013L980.3631944444445,86.03283544949122L988.3989583333333,86.16358428342L996.4347222222223,81.09102388790674L1004.4704861111111,80.76031569072175L1012.5062499999999,78.62326404026575L1020.542013888889,75.36346736976076L1028.5777777777778,75.3208688667842L1036.6135416666666,73.18336779730659L1044.6493055555554,71.44559284618921L1052.6850694444445,70.06025871208735L1060.7208333333333,69.24382485662184L1068.7565972222224,68.83074457304816L1076.7923611111112,70.17691504955292L1084.828125,70.25986496039796L1092.8638888888888,70.36162626743317L1100.8996527777776,70.69313699858527L1108.9354166666667,68.4008431775229L1116.9711805555555,65.78862721579414L1125.0069444444446,62.8505824634007L1133.0427083333334,59.63055937630787L1141.0784722222222,58.27578573567524L1149.114236111111,51.60509129932947L1157.15,49.16079754488807L1165.185763888889,45.525414977754835L1173.2215277777777,45.64711122853413L1181.2572916666666,45.618091600281815L1189.2930555555556,44.64041262013569L1197.3288194444444,45.51209291390009L1205.3645833333335,44.587605885096934L1213.4003472222223,46.344320637839175L1221.4361111111111,45.58525191034589L1229.471875,44.36819309847694L1237.5076388888888,42.490841439792064L1245.5434027777778,40.51532382624488L1253.5791666666667,38.96569493838716L1261.6149305555555,38.65700827326093L1269.6506944444445,37.62771030834742L1277.6864583333333,35.75591218471523L1285.7222222222222,32.87744755404334L1293.7579861111112,30.467341746602727L1301.79375,27.950177907943683L1309.8295138888889,26.259848764964488L1317.8652777777777,28.590246898787356L1325.9010416666665,26.567411882536746L1333.9368055555556,26.96447358812604L1341.9725694444444,25.386081882885506L1350.0083333333334,24.478094952447037L1358.0440972222223,21.80777553149629L1366.079861111111,21.74283448287416L1374.115625,22.10057202407289L1382.151388888889,21.724697215216494L1390.1871527777778,20.968357103211503L1398.2229166666666,20.477976747921517L1406.2586805555554,20.151184916496234L1414.2944444444445,19.79835888317652" style="fill: none;" fill="none"></path></g></g></g></g></g></g><g transform="translate(51, 377)" clip-path="url(#clip_1)"><clipPath id="clip_1"><rect width="1446" height="23"></rect></clipPath><g><g><line x1="0" y1="0" x2="0" y2="5" style="visibility: inherit;" fill="rgb(0, 0, 0)" stroke="rgb(204, 204, 204)" stroke-width="1px"></line><line x1="160.71527777777777" y1="0" x2="160.71527777777777" y2="5" style="visibility: inherit;" fill="rgb(0, 0, 0)" stroke="rgb(204, 204, 204)" stroke-width="1px"></line><line x1="321.43055555555554" y1="0" x2="321.43055555555554" y2="5" style="visibility: inherit;" fill="rgb(0, 0, 0)" stroke="rgb(204, 204, 204)" stroke-width="1px"></line><line x1="482.1458333333333" y1="0" x2="482.1458333333333" y2="5" style="visibility: inherit;" fill="rgb(0, 0, 0)" stroke="rgb(204, 204, 204)" stroke-width="1px"></line><line x1="642.8611111111111" y1="0" x2="642.8611111111111" y2="5" style="visibility: inherit;" fill="rgb(0, 0, 0)" stroke="rgb(204, 204, 204)" stroke-width="1px"></line><line x1="803.5763888888889" y1="0" x2="803.5763888888889" y2="5" style="visibility: inherit;" fill="rgb(0, 0, 0)" stroke="rgb(204, 204, 204)" stroke-width="1px"></line><line x1="964.2916666666666" y1="0" x2="964.2916666666666" y2="5" style="visibility: inherit;" fill="rgb(0, 0, 0)" stroke="rgb(204, 204, 204)" stroke-width="1px"></line><line x1="1125.0069444444446" y1="0" x2="1125.0069444444446" y2="5" style="visibility: inherit;" fill="rgb(0, 0, 0)" stroke="rgb(204, 204, 204)" stroke-width="1px"></line><line x1="1285.7222222222222" y1="0" x2="1285.7222222222222" y2="5" style="visibility: inherit;" fill="rgb(0, 0, 0)" stroke="rgb(204, 204, 204)" stroke-width="1px"></line><line x1="1446.4375" y1="0" x2="1446.4375" y2="5" style="visibility: inherit;" fill="rgb(0, 0, 0)" stroke="rgb(204, 204, 204)" stroke-width="1px"></line></g><g transform="translate(0, 8)"><text x="0" y="0" dx="0em" dy="0.95em" style="text-anchor: middle; visibility: hidden; font-family: Roboto, sans-serif; font-size: 12px; font-weight: 200;" fill="rgb(33, 33, 33)" stroke="none" stroke-width="1px">-20</text><text x="160.71527777777777" y="0" dx="0em" dy="0.95em" style="text-anchor: middle; visibility: inherit; font-family: Roboto, sans-serif; font-size: 12px; font-weight: 200;" fill="rgb(33, 33, 33)" stroke="none" stroke-width="1px">0</text><text x="321.43055555555554" y="0" dx="0em" dy="0.95em" style="text-anchor: middle; visibility: inherit; font-family: Roboto, sans-serif; font-size: 12px; font-weight: 200;" fill="rgb(33, 33, 33)" stroke="none" stroke-width="1px">20</text><text x="482.1458333333333" y="0" dx="0em" dy="0.95em" style="text-anchor: middle; visibility: inherit; font-family: Roboto, sans-serif; font-size: 12px; font-weight: 200;" fill="rgb(33, 33, 33)" stroke="none" stroke-width="1px">40</text><text x="642.8611111111111" y="0" dx="0em" dy="0.95em" style="text-anchor: middle; visibility: inherit; font-family: Roboto, sans-serif; font-size: 12px; font-weight: 200;" fill="rgb(33, 33, 33)" stroke="none" stroke-width="1px">60</text><text x="803.5763888888889" y="0" dx="0em" dy="0.95em" style="text-anchor: middle; visibility: inherit; font-family: Roboto, sans-serif; font-size: 12px; font-weight: 200;" fill="rgb(33, 33, 33)" stroke="none" stroke-width="1px">80</text><text x="964.2916666666666" y="0" dx="0em" dy="0.95em" style="text-anchor: middle; visibility: inherit; font-family: Roboto, sans-serif; font-size: 12px; font-weight: 200;" fill="rgb(33, 33, 33)" stroke="none" stroke-width="1px">100</text><text x="1125.0069444444446" y="0" dx="0em" dy="0.95em" style="text-anchor: middle; visibility: inherit; font-family: Roboto, sans-serif; font-size: 12px; font-weight: 200;" fill="rgb(33, 33, 33)" stroke="none" stroke-width="1px">120</text><text x="1285.7222222222222" y="0" dx="0em" dy="0.95em" style="text-anchor: middle; visibility: inherit; font-family: Roboto, sans-serif; font-size: 12px; font-weight: 200;" fill="rgb(33, 33, 33)" stroke="none" stroke-width="1px">140</text><text x="1446.4375" y="0" dx="0em" dy="0.95em" style="text-anchor: middle; visibility: hidden; font-family: Roboto, sans-serif; font-size: 12px; font-weight: 200;" fill="rgb(33, 33, 33)" stroke="none" stroke-width="1px">160</text></g><line x1="0" y1="0" x2="1446.4375" y2="0" fill="rgb(0, 0, 0)" stroke="rgb(204, 204, 204)" stroke-width="1px"></line></g></g></g></g></svg>