<svg viewBox="0 0 1498 400" xmlns="http://www.w3.org/2000/svg"><g><g><g><g><g><line x1="40" y1="377" x2="35" y2="377" style="visibility: inherit;" fill="rgb(0, 0, 0)" stroke="rgb(204, 204, 204)" stroke-width="1px"></line><line x1="40" y1="339.3" x2="35" y2="339.3" style="visibility: inherit;" fill="rgb(0, 0, 0)" stroke="rgb(204, 204, 204)" stroke-width="1px"></line><line x1="40" y1="301.6" x2="35" y2="301.6" style="visibility: inherit;" fill="rgb(0, 0, 0)" stroke="rgb(204, 204, 204)" stroke-width="1px"></line><line x1="40" y1="263.9" x2="35" y2="263.9" style="visibility: inherit;" fill="rgb(0, 0, 0)" stroke="rgb(204, 204, 204)" stroke-width="1px"></line><line x1="40" y1="226.2" x2="35" y2="226.2" style="visibility: inherit;" fill="rgb(0, 0, 0)" stroke="rgb(204, 204, 204)" stroke-width="1px"></line><line x1="40" y1="188.5" x2="35" y2="188.5" style="visibility: inherit;" fill="rgb(0, 0, 0)" stroke="rgb(204, 204, 204)" stroke-width="1px"></line><line x1="40" y1="150.8" x2="35" y2="150.8" style="visibility: inherit;" fill="rgb(0, 0, 0)" stroke="rgb(204, 204, 204)" stroke-width="1px"></line><line x1="40" y1="113.10000000000002" x2="35" y2="113.10000000000002" style="visibility: inherit;" fill="rgb(0, 0, 0)" stroke="rgb(204, 204, 204)" stroke-width="1px"></line><line x1="40" y1="75.39999999999998" x2="35" y2="75.39999999999998" style="visibility: inherit;" fill="rgb(0, 0, 0)" stroke="rgb(204, 204, 204)" stroke-width="1px"></line><line x1="40" y1="37.69999999999999" x2="35" y2="37.69999999999999" style="visibility: inherit;" fill="rgb(0, 0, 0)" stroke="rgb(204, 204, 204)" stroke-width="1px"></line><line x1="40" y1="0" x2="35" y2="0" style="visibility: inherit;" fill="rgb(0, 0, 0)" stroke="rgb(204, 204, 204)" stroke-width="1px"></line></g><g transform="translate(30, 0)"><text x="0" y="377" dx="0em" dy="0.3em" style="text-anchor: end; visibility: hidden; font-family: Roboto, sans-serif; font-size: 12px; font-weight: 200;" fill="rgb(33, 33, 33)" stroke="none" stroke-width="1px">0</text><text x="0" y="339.3" dx="0em" dy="0.3em" style="text-anchor: end; visibility: inherit; font-family: Roboto, sans-serif; font-size: 12px; font-weight: 200;" fill="rgb(33, 33, 33)" stroke="none" stroke-width="1px">0.1</text><text x="0" y="301.6" dx="0em" dy="0.3em" style="text-anchor: end; visibility: inherit; font-family: Roboto, sans-serif; font-size: 12px; font-weight: 200;" fill="rgb(33, 33, 33)" stroke="none" stroke-width="1px">0.2</text><text x="0" y="263.9" dx="0em" dy="0.3em" style="text-anchor: end; visibility: inherit; font-family: Roboto, sans-serif; font-size: 12px; font-weight: 200;" fill="rgb(33, 33, 33)" stroke="none" stroke-width="1px">0.3</text><text x="0" y="226.2" dx="0em" dy="0.3em" style="text-anchor: end; visibility: inherit; font-family: Roboto, sans-serif; font-size: 12px; font-weight: 200;" fill="rgb(33, 33, 33)" stroke="none" stroke-width="1px">0.4</text><text x="0" y="188.5" dx="0em" dy="0.3em" style="text-anchor: end; visibility: inherit; font-family: Roboto, sans-serif; font-size: 12px; font-weight: 200;" fill="rgb(33, 33, 33)" stroke="none" stroke-width="1px">0.5</text><text x="0" y="150.8" dx="0em" dy="0.3em" style="text-anchor: end; visibility: inherit; font-family: Roboto, sans-serif; font-size: 12px; font-weight: 200;" fill="rgb(33, 33, 33)" stroke="none" stroke-width="1px">0.6</text><text x="0" y="113.10000000000002" dx="0em" dy="0.3em" style="text-anchor: end; visibility: inherit; font-family: Roboto, sans-serif; font-size: 12px; font-weight: 200;" fill="rgb(33, 33, 33)" stroke="none" stroke-width="1px">0.7</text><text x="0" y="75.39999999999998" dx="0em" dy="0.3em" style="text-anchor: end; visibility: inherit; font-family: Roboto, sans-serif; font-size: 12px; font-weight: 200;" fill="rgb(33, 33, 33)" stroke="none" stroke-width="1px">0.8</text><text x="0" y="37.69999999999999" dx="0em" dy="0.3em" style="text-anchor: end; visibility: inherit; font-family: Roboto, sans-serif; font-size: 12px; font-weight: 200;" fill="rgb(33, 33, 33)" stroke="none" stroke-width="1px">0.9</text><text x="0" y="0" dx="0em" dy="0.3em" style="text-anchor: end; visibility: hidden; font-family: Roboto, sans-serif; font-size: 12px; font-weight: 200;" fill="rgb(33, 33, 33)" stroke="none" stroke-width="1px">1</text></g><line x1="40" y1="0" x2="40" y2="377" fill="rgb(0, 0, 0)" stroke="rgb(204, 204, 204)" stroke-width="1px"></line></g></g><g transform="translate(40, 0)" clip-path="url(#clip_0)"><clipPath id="clip_0"><rect width="1458" height="377"></rect></clipPath><g><g><g><line x1="0" y1="0" x2="0" y2="377" fill="rgb(0, 0, 0)" stroke="rgb(66, 66, 66)" stroke-width="1px" opacity="0.25"></line><line x1="121.5" y1="0" x2="121.5" y2="377" fill="rgb(0, 0, 0)" stroke="rgb(66, 66, 66)" stroke-width="1px" opacity="0.25"></line><line x1="243" y1="0" x2="243" y2="377" fill="rgb(0, 0, 0)" stroke="rgb(66, 66, 66)" stroke-width="1px" opacity="0.25"></line><line x1="364.5" y1="0" x2="364.5" y2="377" fill="rgb(0, 0, 0)" stroke="rgb(66, 66, 66)" stroke-width="1px" opacity="0.25"></line><line x1="486" y1="0" x2="486" y2="377" fill="rgb(0, 0, 0)" stroke="rgb(66, 66, 66)" stroke-width="1px" opacity="0.25"></line><line x1="607.5" y1="0" x2="607.5" y2="377" fill="rgb(0, 0, 0)" stroke="rgb(66, 66, 66)" stroke-width="1px" opacity="0.25"></line><line x1="729" y1="0" x2="729" y2="377" fill="rgb(0, 0, 0)" stroke="rgb(66, 66, 66)" stroke-width="1px" opacity="0.25"></line><line x1="850.5" y1="0" x2="850.5" y2="377" fill="rgb(0, 0, 0)" stroke="rgb(66, 66, 66)" stroke-width="1px" opacity="0.25"></line><line x1="972" y1="0" x2="972" y2="377" fill="rgb(0, 0, 0)" stroke="rgb(66, 66, 66)" stroke-width="1px" opacity="0.25"></line><line x1="1093.5" y1="0" x2="1093.5" y2="377" fill="rgb(0, 0, 0)" stroke="rgb(66, 66, 66)" stroke-width="1px" opacity="0.25"></line><line x1="1215" y1="0" x2="1215" y2="377" fill="rgb(0, 0, 0)" stroke="rgb(66, 66, 66)" stroke-width="1px" opacity="0.25"></line><line x1="1336.5" y1="0" x2="1336.5" y2="377" fill="rgb(0, 0, 0)" stroke="rgb(66, 66, 66)" stroke-width="1px" opacity="0.25"></line><line x1="1458" y1="0" x2="1458" y2="377" fill="rgb(0, 0, 0)" stroke="rgb(66, 66, 66)" stroke-width="1px" opacity="0.25"></line></g><g><line x1="0" y1="377" x2="1458" y2="377" fill="rgb(0, 0, 0)" stroke="rgb(66, 66, 66)" stroke-width="1px" opacity="0.25"></line><line x1="0" y1="339.3" x2="1458" y2="339.3" fill="rgb(0, 0, 0)" stroke="rgb(66, 66, 66)" stroke-width="1px" opacity="0.25"></line><line x1="0" y1="301.6" x2="1458" y2="301.6" fill="rgb(0, 0, 0)" stroke="rgb(66, 66, 66)" stroke-width="1px" opacity="0.25"></line><line x1="0" y1="263.9" x2="1458" y2="263.9" fill="rgb(0, 0, 0)" stroke="rgb(66, 66, 66)" stroke-width="1px" opacity="0.25"></line><line x1="0" y1="226.2" x2="1458" y2="226.2" fill="rgb(0, 0, 0)" stroke="rgb(66, 66, 66)" stroke-width="1px" opacity="0.25"></line><line x1="0" y1="188.5" x2="1458" y2="188.5" fill="rgb(0, 0, 0)" stroke="rgb(66, 66, 66)" stroke-width="1px" opacity="0.25"></line><line x1="0" y1="150.8" x2="1458" y2="150.8" fill="rgb(0, 0, 0)" stroke="rgb(66, 66, 66)" stroke-width="1px" opacity="0.25"></line><line x1="0" y1="113.10000000000002" x2="1458" y2="113.10000000000002" fill="rgb(0, 0, 0)" stroke="rgb(66, 66, 66)" stroke-width="1px" opacity="0.25"></line><line x1="0" y1="75.39999999999998" x2="1458" y2="75.39999999999998" fill="rgb(0, 0, 0)" stroke="rgb(66, 66, 66)" stroke-width="1px" opacity="0.25"></line><line x1="0" y1="37.69999999999999" x2="1458" y2="37.69999999999999" fill="rgb(0, 0, 0)" stroke="rgb(66, 66, 66)" stroke-width="1px" opacity="0.25"></line><line x1="0" y1="0" x2="1458" y2="0" fill="rgb(0, 0, 0)" stroke="rgb(66, 66, 66)" stroke-width="1px" opacity="0.25"></line></g></g></g><g><g><line x1="0" y1="377" x2="1458" y2="377" fill="rgb(0, 0, 0)" stroke="rgb(153, 153, 153)" stroke-width="1.5px"></line></g></g><g><g><line x1="121.5" y1="0" x2="121.5" y2="377" fill="rgb(0, 0, 0)" stroke="rgb(153, 153, 153)" stroke-width="1.5px"></line></g></g><g><g><g><g><g><path stroke="rgb(51, 187, 238)" stroke-width="2px" d="M121.5,376.75895140861394L145.8,349.9617962028642L170.1,327.90538452801945L194.4,313.74009226576527L218.7,296.301704802337L243,282.90057455856714L267.29999999999995,277.4184443510456L291.6,267.7571556521269L315.90000000000003,257.8658247367577L340.2,249.6978663859364L364.5,244.61388269501987L388.8,232.15382214805823L413.09999999999997,218.37271163915574L437.4,187.10960509663028L461.7,163.9387030959107L486,143.80572379967515L510.29999999999995,128.54133903951222L534.5999999999999,115.74259244788458L558.9000000000001,111.85392654035901L583.2,99.95443828370095L607.5,94.1361739031666L631.8000000000001,87.7102015721548L656.1,84.61924795941333L680.4,86.45670414778921L704.7,76.20528749872157L729,71.18267959854323L753.3000000000001,64.07193370754993L777.6,55.11358931741677L801.9000000000001,54.144152612412846L826.1999999999999,49.86633314149351L850.5,47.94422587562887L874.8,42.28782766629873L899.1,40.81272071452062L923.4,39.93403833882456L947.7,39.7206132957989L972,38.8806515696228L996.3000000000001,40.275946301665975L1020.5999999999999,37.94551898713657L1044.9,38.35723479884651L1069.1999999999998,40.681272273176866L1093.5,39.070969058720536L1117.8000000000002,37.241273422343134L1142.1,36.32414945295953L1166.4,35.09710395512486L1190.7,32.26788733081915L1215,31.32156125108597L1239.3,33.70615195879443L1263.6000000000001,32.441875336434514L1287.8999999999999,30.38285250533793L1312.2,30.01507818143766L1336.5,30.771477505217895L1360.8,31.429101660641503" style="fill: none;" fill="none"></path></g><g><path stroke="rgb(187, 187, 187)" stroke-width="2px" d="M121.5,325.6595506966114L145.8,289.68066488206387L170.1,253.85299481056177L194.4,220.1725875299205L218.7,194.3734845296531L243,162.2441218532982L267.29999999999995,130.14286369738045L291.6,101.5906735015988L315.90000000000003,81.02537093064474L340.2,74.58766246907204L364.5,73.28438616204258L388.8,63.0370568761221L413.09999999999997,57.977165086585615L437.4,55.975331561510515L461.7,51.393142774827595L486,49.49898622263525L510.29999999999995,47.21859959902227L534.5999999999999,47.9443829221457L558.9000000000001,48.081984569910055L583.2,46.3740073220047L607.5,45.96128420097225L631.8000000000001,45.26103128035098L656.1,42.26328519095892L680.4,40.30349925244971L704.7,40.44138803991948L729,41.04286834627462L753.3000000000001,38.03380186756647L777.6,36.479544396807476L801.9000000000001,35.291918171321015L826.1999999999999,34.86265652993992L850.5,35.66632187071125L874.8,36.28490171409975L899.1,35.72399044682752L923.4,34.7309503547952L947.7,34.36670295521926L972,32.84891107975727L996.3000000000001,34.29970822814484L1020.5999999999999,33.106211670278704L1044.9,33.62304988501734L1069.1999999999998,33.11860780051432L1093.5,32.4093082191684L1117.8000000000002,32.90122639215644L1142.1,32.493045515161036L1166.4,30.7219279681602L1190.7,29.81176329096389L1215,30.003727367176094L1239.3,29.66816549934891L1263.6000000000001,29.60065637491756L1287.8999999999999,29.953788032909713L1312.2,30.497679824106598L1336.5,30.296747514290235L1360.8,30.88355569165079L1385.1,31.613341332205152" style="fill: none;" fill="none"></path></g></g></g></g><g opacity="0.2"><g><g><g><path stroke="rgb(51, 187, 238)" stroke-width="2px" d="M121.5,376.75895140861394L145.8,333.88350307941437L170.1,306.7312293201685L194.4,297.08170856535435L218.7,273.534146130085L243,264.36198702454567L267.29999999999995,269.5789104402065L291.6,253.67090398073196L315.90000000000003,243.27803292870522L340.2,237.56940016150475L364.5,237.03401851654053L388.8,213.53153842687607L413.09999999999997,197.74604359269142L437.4,140.27619296312332L461.7,129.2095866203308L486,113.62045419216156L510.29999999999995,105.65122127532959L534.5999999999999,96.54772216081619L558.9000000000001,106.02152007818222L583.2,82.1062935590744L607.5,85.40909641981125L631.8000000000001,78.0714545249939L656.1,79.98287856578827L680.4,89.2128666639328L704.7,60.828235387802124L729,63.648789167404175L753.3000000000001,53.405833065509796L777.6,41.676086485385895L801.9000000000001,52.68999844789505L826.1999999999999,43.44960629940033L850.5,45.06106561422348L874.8,33.80323147773743L899.1,38.60006046295166L923.4,38.61601483821869L947.7,39.40047574043274L972,37.620709002017975L996.3000000000001,42.36888837814331L1020.5999999999999,34.44987803697586L1044.9,38.974808514118195L1069.1999999999998,44.16732847690582L1093.5,36.65551424026489L1117.8000000000002,34.49672996997833L1142.1,34.94846349954605L1166.4,33.256535708904266L1190.7,28.024062395095825L1215,29.90207213163376L1239.3,37.28303802013397L1263.6000000000001,30.545460402965546L1287.8999999999999,27.29431825876236L1312.2,29.463416695594788L1336.5,31.90607649087906L1360.8,32.415537893772125" style="fill: none;" fill="none"></path></g><g><path stroke="rgb(187, 187, 187)" stroke-width="2px" d="M121.5,325.6595506966114L145.8,268.09333339333534L170.1,219.4584315419197L194.4,180.56442856788635L218.7,160.69017565250397L243,117.7976467013359L267.29999999999995,84.23755091428757L291.6,59.96130609512329L315.90000000000003,50.69554424285889L340.2,65.02841567993164L364.5,71.34129232168198L388.8,47.72182846069336L413.09999999999997,50.40384882688522L437.4,52.97650307416916L461.7,44.525245785713196L486,46.6590873003006L510.29999999999995,43.79898464679718L534.5999999999999,49.03287363052368L558.9000000000001,48.288366079330444L583.2,43.81219756603241L607.5,45.34222215414047L631.8000000000001,44.210674941539764L656.1,37.76672524213791L680.4,37.36384356021881L704.7,40.648220241069794L729,41.94508624076843L753.3000000000001,33.52020984888077L777.6,34.14816057682037L801.9000000000001,33.51047992706299L826.1999999999999,34.218764305114746L850.5,36.871819615364075L874.8,37.212771356105804L899.1,34.88262361288071L923.4,33.24139028787613L947.7,33.82033187150955L972,30.57222330570221L996.3000000000001,36.47590392827988L1020.5999999999999,31.315966844558716L1044.9,34.39830720424652L1069.1999999999998,32.36194467544556L1093.5,31.345358848571777L1117.8000000000002,33.63910365104675L1142.1,31.880774199962616L1166.4,28.065251648426056L1190.7,28.446516275405884L1215,30.291673481464386L1239.3,29.164822697639465L1263.6000000000001,29.499392688274384L1287.8999999999999,30.483485519886017L1312.2,31.31351751089096L1336.5,29.995349049568176L1360.8,31.763767957687378L1385.1,32.7080197930336" style="fill: none;" fill="none"></path></g></g></g></g></g><g><g opacity="0.0300927"><span fill="rgb(0, 0, 0)" stroke="none" stroke-width="1px">Alt + Scroll to Zoom</span></g></g></g><g transform="translate(40, 377)" clip-path="url(#clip_1)"><clipPath id="clip_1"><rect width="1458" height="23"></rect></clipPath><g><g><line x1="0" y1="0" x2="0" y2="5" style="visibility: inherit;" fill="rgb(0, 0, 0)" stroke="rgb(204, 204, 204)" stroke-width="1px"></line><line x1="121.5" y1="0" x2="121.5" y2="5" style="visibility: inherit;" fill="rgb(0, 0, 0)" stroke="rgb(204, 204, 204)" stroke-width="1px"></line><line x1="243" y1="0" x2="243" y2="5" style="visibility: inherit;" fill="rgb(0, 0, 0)" stroke="rgb(204, 204, 204)" stroke-width="1px"></line><line x1="364.5" y1="0" x2="364.5" y2="5" style="visibility: inherit;" fill="rgb(0, 0, 0)" stroke="rgb(204, 204, 204)" stroke-width="1px"></line><line x1="486" y1="0" x2="486" y2="5" style="visibility: inherit;" fill="rgb(0, 0, 0)" stroke="rgb(204, 204, 204)" stroke-width="1px"></line><line x1="607.5" y1="0" x2="607.5" y2="5" style="visibility: inherit;" fill="rgb(0, 0, 0)" stroke="rgb(204, 204, 204)" stroke-width="1px"></line><line x1="729" y1="0" x2="729" y2="5" style="visibility: inherit;" fill="rgb(0, 0, 0)" stroke="rgb(204, 204, 204)" stroke-width="1px"></line><line x1="850.5" y1="0" x2="850.5" y2="5" style="visibility: inherit;" fill="rgb(0, 0, 0)" stroke="rgb(204, 204, 204)" stroke-width="1px"></line><line x1="972" y1="0" x2="972" y2="5" style="visibility: inherit;" fill="rgb(0, 0, 0)" stroke="rgb(204, 204, 204)" stroke-width="1px"></line><line x1="1093.5" y1="0" x2="1093.5" y2="5" style="visibility: inherit;" fill="rgb(0, 0, 0)" stroke="rgb(204, 204, 204)" stroke-width="1px"></line><line x1="1215" y1="0" x2="1215" y2="5" style="visibility: inherit;" fill="rgb(0, 0, 0)" stroke="rgb(204, 204, 204)" stroke-width="1px"></line><line x1="1336.5" y1="0" x2="1336.5" y2="5" style="visibility: inherit;" fill="rgb(0, 0, 0)" stroke="rgb(204, 204, 204)" stroke-width="1px"></line><line x1="1458" y1="0" x2="1458" y2="5" style="visibility: inherit;" fill="rgb(0, 0, 0)" stroke="rgb(204, 204, 204)" stroke-width="1px"></line></g><g transform="translate(0, 8)"><text x="0" y="0" dx="0em" dy="0.95em" style="text-anchor: middle; visibility: hidden; font-family: Roboto, sans-serif; font-size: 12px; font-weight: 200;" fill="rgb(33, 33, 33)" stroke="none" stroke-width="1px">-5</text><text x="121.5" y="0" dx="0em" dy="0.95em" style="text-anchor: middle; visibility: inherit; font-family: Roboto, sans-serif; font-size: 12px; font-weight: 200;" fill="rgb(33, 33, 33)" stroke="none" stroke-width="1px">0</text><text x="243" y="0" dx="0em" dy="0.95em" style="text-anchor: middle; visibility: inherit; font-family: Roboto, sans-serif; font-size: 12px; font-weight: 200;" fill="rgb(33, 33, 33)" stroke="none" stroke-width="1px">5</text><text x="364.5" y="0" dx="0em" dy="0.95em" style="text-anchor: middle; visibility: inherit; font-family: Roboto, sans-serif; font-size: 12px; font-weight: 200;" fill="rgb(33, 33, 33)" stroke="none" stroke-width="1px">10</text><text x="486" y="0" dx="0em" dy="0.95em" style="text-anchor: middle; visibility: inherit; font-family: Roboto, sans-serif; font-size: 12px; font-weight: 200;" fill="rgb(33, 33, 33)" stroke="none" stroke-width="1px">15</text><text x="607.5" y="0" dx="0em" dy="0.95em" style="text-anchor: middle; visibility: inherit; font-family: Roboto, sans-serif; font-size: 12px; font-weight: 200;" fill="rgb(33, 33, 33)" stroke="none" stroke-width="1px">20</text><text x="729" y="0" dx="0em" dy="0.95em" style="text-anchor: middle; visibility: inherit; font-family: Roboto, sans-serif; font-size: 12px; font-weight: 200;" fill="rgb(33, 33, 33)" stroke="none" stroke-width="1px">25</text><text x="850.5" y="0" dx="0em" dy="0.95em" style="text-anchor: middle; visibility: inherit; font-family: Roboto, sans-serif; font-size: 12px; font-weight: 200;" fill="rgb(33, 33, 33)" stroke="none" stroke-width="1px">30</text><text x="972" y="0" dx="0em" dy="0.95em" style="text-anchor: middle; visibility: inherit; font-family: Roboto, sans-serif; font-size: 12px; font-weight: 200;" fill="rgb(33, 33, 33)" stroke="none" stroke-width="1px">35</text><text x="1093.5" y="0" dx="0em" dy="0.95em" style="text-anchor: middle; visibility: inherit; font-family: Roboto, sans-serif; font-size: 12px; font-weight: 200;" fill="rgb(33, 33, 33)" stroke="none" stroke-width="1px">40</text><text x="1215" y="0" dx="0em" dy="0.95em" style="text-anchor: middle; visibility: inherit; font-family: Roboto, sans-serif; font-size: 12px; font-weight: 200;" fill="rgb(33, 33, 33)" stroke="none" stroke-width="1px">45</text><text x="1336.5" y="0" dx="0em" dy="0.95em" style="text-anchor: middle; visibility: inherit; font-family: Roboto, sans-serif; font-size: 12px; font-weight: 200;" fill="rgb(33, 33, 33)" stroke="none" stroke-width="1px">50</text><text x="1458" y="0" dx="0em" dy="0.95em" style="text-anchor: middle; visibility: hidden; font-family: Roboto, sans-serif; font-size: 12px; font-weight: 200;" fill="rgb(33, 33, 33)" stroke="none" stroke-width="1px">55</text></g><line x1="0" y1="0" x2="1458" y2="0" fill="rgb(0, 0, 0)" stroke="rgb(204, 204, 204)" stroke-width="1px"></line></g></g></g></g></svg>