<svg viewBox="0 0 1498 400" xmlns="http://www.w3.org/2000/svg"><g><g><g><g><g><line x1="51.5625" y1="377" x2="46.5625" y2="377" style="visibility: inherit;" fill="rgb(0, 0, 0)" stroke="rgb(204, 204, 204)" stroke-width="1px"></line><line x1="51.5625" y1="323.1428571428572" x2="46.5625" y2="323.1428571428572" style="visibility: inherit;" fill="rgb(0, 0, 0)" stroke="rgb(204, 204, 204)" stroke-width="1px"></line><line x1="51.5625" y1="269.28571428571433" x2="46.5625" y2="269.28571428571433" style="visibility: inherit;" fill="rgb(0, 0, 0)" stroke="rgb(204, 204, 204)" stroke-width="1px"></line><line x1="51.5625" y1="215.42857142857142" x2="46.5625" y2="215.42857142857142" style="visibility: inherit;" fill="rgb(0, 0, 0)" stroke="rgb(204, 204, 204)" stroke-width="1px"></line><line x1="51.5625" y1="161.5714285714286" x2="46.5625" y2="161.5714285714286" style="visibility: inherit;" fill="rgb(0, 0, 0)" stroke="rgb(204, 204, 204)" stroke-width="1px"></line><line x1="51.5625" y1="107.71428571428571" x2="46.5625" y2="107.71428571428571" style="visibility: inherit;" fill="rgb(0, 0, 0)" stroke="rgb(204, 204, 204)" stroke-width="1px"></line><line x1="51.5625" y1="53.85714285714292" x2="46.5625" y2="53.85714285714292" style="visibility: inherit;" fill="rgb(0, 0, 0)" stroke="rgb(204, 204, 204)" stroke-width="1px"></line><line x1="51.5625" y1="0" x2="46.5625" y2="0" style="visibility: inherit;" fill="rgb(0, 0, 0)" stroke="rgb(204, 204, 204)" stroke-width="1px"></line></g><g transform="translate(41.5625, 0)"><text x="0" y="377" dx="0em" dy="0.3em" style="text-anchor: end; visibility: hidden; font-family: Roboto, sans-serif; font-size: 12px; font-weight: 200;" fill="rgb(33, 33, 33)" stroke="none" stroke-width="1px">0.65</text><text x="0" y="323.1428571428572" dx="0em" dy="0.3em" style="text-anchor: end; visibility: inherit; font-family: Roboto, sans-serif; font-size: 12px; font-weight: 200;" fill="rgb(33, 33, 33)" stroke="none" stroke-width="1px">0.7</text><text x="0" y="269.28571428571433" dx="0em" dy="0.3em" style="text-anchor: end; visibility: inherit; font-family: Roboto, sans-serif; font-size: 12px; font-weight: 200;" fill="rgb(33, 33, 33)" stroke="none" stroke-width="1px">0.75</text><text x="0" y="215.42857142857142" dx="0em" dy="0.3em" style="text-anchor: end; visibility: inherit; font-family: Roboto, sans-serif; font-size: 12px; font-weight: 200;" fill="rgb(33, 33, 33)" stroke="none" stroke-width="1px">0.8</text><text x="0" y="161.5714285714286" dx="0em" dy="0.3em" style="text-anchor: end; visibility: inherit; font-family: Roboto, sans-serif; font-size: 12px; font-weight: 200;" fill="rgb(33, 33, 33)" stroke="none" stroke-width="1px">0.85</text><text x="0" y="107.71428571428571" dx="0em" dy="0.3em" style="text-anchor: end; visibility: inherit; font-family: Roboto, sans-serif; font-size: 12px; font-weight: 200;" fill="rgb(33, 33, 33)" stroke="none" stroke-width="1px">0.9</text><text x="0" y="53.85714285714292" dx="0em" dy="0.3em" style="text-anchor: end; visibility: inherit; font-family: Roboto, sans-serif; font-size: 12px; font-weight: 200;" fill="rgb(33, 33, 33)" stroke="none" stroke-width="1px">0.95</text><text x="0" y="0" dx="0em" dy="0.3em" style="text-anchor: end; visibility: hidden; font-family: Roboto, sans-serif; font-size: 12px; font-weight: 200;" fill="rgb(33, 33, 33)" stroke="none" stroke-width="1px">1</text></g><line x1="51.5625" y1="0" x2="51.5625" y2="377" fill="rgb(0, 0, 0)" stroke="rgb(204, 204, 204)" stroke-width="1px"></line></g></g><g transform="translate(51, 0)" clip-path="url(#clip_0)"><clipPath id="clip_0"><rect width="1446" height="377"></rect></clipPath><g><g><g><line x1="0" y1="0" x2="0" y2="377" fill="rgb(0, 0, 0)" stroke="rgb(66, 66, 66)" stroke-width="1px" opacity="0.25"></line><line x1="120.53645833333333" y1="0" x2="120.53645833333333" y2="377" fill="rgb(0, 0, 0)" stroke="rgb(66, 66, 66)" stroke-width="1px" opacity="0.25"></line><line x1="241.07291666666666" y1="0" x2="241.07291666666666" y2="377" fill="rgb(0, 0, 0)" stroke="rgb(66, 66, 66)" stroke-width="1px" opacity="0.25"></line><line x1="361.609375" y1="0" x2="361.609375" y2="377" fill="rgb(0, 0, 0)" stroke="rgb(66, 66, 66)" stroke-width="1px" opacity="0.25"></line><line x1="482.1458333333333" y1="0" x2="482.1458333333333" y2="377" fill="rgb(0, 0, 0)" stroke="rgb(66, 66, 66)" stroke-width="1px" opacity="0.25"></line><line x1="602.6822916666667" y1="0" x2="602.6822916666667" y2="377" fill="rgb(0, 0, 0)" stroke="rgb(66, 66, 66)" stroke-width="1px" opacity="0.25"></line><line x1="723.21875" y1="0" x2="723.21875" y2="377" fill="rgb(0, 0, 0)" stroke="rgb(66, 66, 66)" stroke-width="1px" opacity="0.25"></line><line x1="843.7552083333334" y1="0" x2="843.7552083333334" y2="377" fill="rgb(0, 0, 0)" stroke="rgb(66, 66, 66)" stroke-width="1px" opacity="0.25"></line><line x1="964.2916666666666" y1="0" x2="964.2916666666666" y2="377" fill="rgb(0, 0, 0)" stroke="rgb(66, 66, 66)" stroke-width="1px" opacity="0.25"></line><line x1="1084.828125" y1="0" x2="1084.828125" y2="377" fill="rgb(0, 0, 0)" stroke="rgb(66, 66, 66)" stroke-width="1px" opacity="0.25"></line><line x1="1205.3645833333335" y1="0" x2="1205.3645833333335" y2="377" fill="rgb(0, 0, 0)" stroke="rgb(66, 66, 66)" stroke-width="1px" opacity="0.25"></line><line x1="1325.9010416666665" y1="0" x2="1325.9010416666665" y2="377" fill="rgb(0, 0, 0)" stroke="rgb(66, 66, 66)" stroke-width="1px" opacity="0.25"></line><line x1="1446.4375" y1="0" x2="1446.4375" y2="377" fill="rgb(0, 0, 0)" stroke="rgb(66, 66, 66)" stroke-width="1px" opacity="0.25"></line></g><g><line x1="0" y1="377" x2="1446.4375" y2="377" fill="rgb(0, 0, 0)" stroke="rgb(66, 66, 66)" stroke-width="1px" opacity="0.25"></line><line x1="0" y1="323.1428571428572" x2="1446.4375" y2="323.1428571428572" fill="rgb(0, 0, 0)" stroke="rgb(66, 66, 66)" stroke-width="1px" opacity="0.25"></line><line x1="0" y1="269.28571428571433" x2="1446.4375" y2="269.28571428571433" fill="rgb(0, 0, 0)" stroke="rgb(66, 66, 66)" stroke-width="1px" opacity="0.25"></line><line x1="0" y1="215.42857142857142" x2="1446.4375" y2="215.42857142857142" fill="rgb(0, 0, 0)" stroke="rgb(66, 66, 66)" stroke-width="1px" opacity="0.25"></line><line x1="0" y1="161.5714285714286" x2="1446.4375" y2="161.5714285714286" fill="rgb(0, 0, 0)" stroke="rgb(66, 66, 66)" stroke-width="1px" opacity="0.25"></line><line x1="0" y1="107.71428571428571" x2="1446.4375" y2="107.71428571428571" fill="rgb(0, 0, 0)" stroke="rgb(66, 66, 66)" stroke-width="1px" opacity="0.25"></line><line x1="0" y1="53.85714285714292" x2="1446.4375" y2="53.85714285714292" fill="rgb(0, 0, 0)" stroke="rgb(66, 66, 66)" stroke-width="1px" opacity="0.25"></line><line x1="0" y1="0" x2="1446.4375" y2="0" fill="rgb(0, 0, 0)" stroke="rgb(66, 66, 66)" stroke-width="1px" opacity="0.25"></line></g></g></g><g><g><line x1="0" y1="1077.1428571428573" x2="1446.4375" y2="1077.1428571428573" fill="rgb(0, 0, 0)" stroke="rgb(153, 153, 153)" stroke-width="1.5px"></line></g></g><g><g><line x1="120.53645833333333" y1="0" x2="120.53645833333333" y2="377" fill="rgb(0, 0, 0)" stroke="rgb(153, 153, 153)" stroke-width="1.5px"></line></g></g><g><g><g><g><g><path stroke="rgb(51, 187, 238)" stroke-width="2px" d="M144.64375,400.249531013625L168.75104166666668,375.4569146793022L192.85833333333332,336.75910974500556L216.965625,319.2015215250762L241.07291666666666,286.1457832100448L265.1802083333333,220.93924365414833L289.2875,188.4424107557584L313.39479166666666,176.683238562058L337.50208333333336,155.1446612096179L361.609375,148.5343735036816L385.71666666666664,184.62002683113107L409.82395833333334,215.61740187668286L433.93125,330.69466446779643L458.0385416666666,380.8982088582502L506.25312499999995,384.37019970934546L530.3604166666667,359.4060238156584L554.4677083333333,320.64209992028407L578.575,323.06291737359805L602.6822916666667,290.6776196354552L626.7895833333333,271.16219833718947L650.896875,259.2233908164011L675.0041666666667,217.93027694911615L699.1114583333333,208.38035428976036L723.21875,203.10664335851305L747.3260416666667,197.35117255084782L771.4333333333333,193.01335961530955L795.5406250000001,168.5321000498614L819.6479166666667,155.1332343229171L843.7552083333334,132.47695922276128L867.8625,131.65175648997177L891.9697916666668,115.66177057416846L916.0770833333332,96.72430642428715L940.184375,80.84814604295802L964.2916666666666,71.25061998789383L988.3989583333333,63.97774207363369L1012.5062499999999,62.913855271466694L1036.6135416666666,56.923918514743086L1060.7208333333333,56.71230971146837L1084.828125,54.5046114012387L1108.9354166666667,53.18179009232126L1133.0427083333334,51.51848434086216L1157.15,53.378934273641065L1181.2572916666666,54.47491617441038L1205.3645833333335,51.16647233267925L1229.471875,46.85112987902542L1253.5791666666667,50.17766551010541L1277.6864583333333,48.62053146601114L1301.79375,47.475691807671744L1325.9010416666665,43.531039408837565L1350.0083333333334,50.308820772528264" style="fill: none;" fill="none"></path></g><g><path stroke="rgb(187, 187, 187)" stroke-width="2px" d="M120.53645833333333,189.64038150651115L144.64375,203.82472798228264L168.75104166666668,183.8984442348036L192.85833333333332,182.96846344190507L216.965625,200.8465242909408L241.07291666666666,204.43957912326502L265.1802083333333,248.61539889014747L289.2875,232.33500380814127L313.39479166666666,216.5253387887053L337.50208333333336,186.9017953662261L361.609375,158.9393558175513L385.71666666666664,154.19543701886175L409.82395833333334,131.4351640088854L433.93125,103.04589531246887L458.0385416666666,98.86375892664032L482.1458333333333,91.6262310874697L506.25312499999995,89.50858373924447L530.3604166666667,84.08732864649215L554.4677083333333,76.18575159913455L578.575,67.76788401782753L602.6822916666667,70.42188122599397L626.7895833333333,60.84384968329417L650.896875,59.553457247553155L675.0041666666667,56.79427633021863L699.1114583333333,54.752659907217726L723.21875,49.843453068799896L747.3260416666667,54.62140072460112L771.4333333333333,54.334218601168615L795.5406250000001,52.995037462336875L819.6479166666667,51.2500088769655L843.7552083333334,45.270784483347036L867.8625,43.58940350416912L891.9697916666668,48.28049252280354L916.0770833333332,46.493223282953025L940.184375,43.07312244367081L964.2916666666666,43.582930194919314L988.3989583333333,45.31694009637166L1012.5062499999999,46.37103404976971L1036.6135416666666,42.443916145708904L1060.7208333333333,43.38042301969266L1084.828125,40.332876050800294L1108.9354166666667,38.02755281050565L1133.0427083333334,36.62322333247382L1157.15,38.32130694038703L1181.2572916666666,37.987431530857535L1205.3645833333335,35.89464130668962L1229.471875,36.35772527856852L1253.5791666666667,39.12838740970033L1277.6864583333333,40.32698425803564L1301.79375,38.63625484880517L1325.9010416666665,38.66929737775424L1350.0083333333334,36.84866211783558L1374.115625,33.283937040221936" style="fill: none;" fill="none"></path></g></g></g></g><g opacity="0.2"><g><g><g><path stroke="rgb(51, 187, 238)" stroke-width="2px" d="M144.64375,393.9341986179352L168.75104166666668,351.65600299835205L192.85833333333332,291.25049114227295L216.965625,296.2783343451364L241.07291666666666,240.41779705456324L265.1802083333333,127.69284878458295L289.2875,141.0617164203099L313.39479166666666,159.3407436779567L337.50208333333336,123.16238403320312L361.609375,138.67889676775252L385.71666666666664,238.55213029044018L409.82395833333334,262.0122526373182L433.93125,503.08511001723156L506.25312499999995,382.2590628692082L530.3604166666667,321.96609837668285L554.4677083333333,262.50211937086925L578.575,326.69392228126526L602.6822916666667,242.10144911493578L626.7895833333333,241.88970855304174L650.896875,241.3154152461461L675.0041666666667,155.99109530448914L699.1114583333333,194.05553817749023L723.21875,195.19609945161002L747.3260416666667,188.7179810660226L771.4333333333333,186.50664687156677L795.5406250000001,131.81023325238908L819.6479166666667,135.0349431378501L843.7552083333334,98.49255408559527L867.8625,130.41395255497522L891.9697916666668,91.67679360934667L916.0770833333332,68.31811155591693L940.184375,57.033906153270195L964.2916666666666,56.85433115277972L988.3989583333333,53.068425314767026L1012.5062499999999,61.31802507809229L1036.6135416666666,47.93901341302056L1060.7208333333333,56.394896507263184L1084.828125,51.193063940320684L1108.9354166666667,51.19755813053675L1133.0427083333334,49.02352571487427L1157.15,56.169609172003604L1181.2572916666666,56.11888902527947L1205.3645833333335,46.203806570598076L1229.471875,40.37811619894843L1253.5791666666667,55.16746895653863L1277.6864583333333,46.284830399921944L1301.79375,45.75843232018609L1325.9010416666665,37.614060810634086L1350.0083333333334,60.475492818014956" style="fill: none;" fill="none"></path></g><g><path stroke="rgb(187, 187, 187)" stroke-width="2px" d="M120.53645833333333,189.64038150651115L144.64375,212.33533586774553L168.75104166666668,164.76921183722362L192.85833333333332,181.874806029456L216.965625,224.1881205354418L241.07291666666666,209.41006745610918L265.1802083333333,311.78752796990534L289.2875,208.5980314867837L313.39479166666666,193.2091537543706L337.50208333333336,142.91428583008903L361.609375,117.24931376320977L385.71666666666664,147.10537501743863L409.82395833333334,97.36907073429651L433.93125,60.51760980061121L458.0385416666666,92.5954702922276L482.1458333333333,80.77504379408703L506.25312499999995,86.33300883429393L530.3604166666667,75.95682246344433L554.4677083333333,64.33458975383215L578.575,55.14185207230706L602.6822916666667,74.40273148672924L626.7895833333333,46.47711753845215L650.896875,57.61789407048907L675.0041666666667,52.655537639345454L699.1114583333333,51.69024978365216L723.21875,42.47966374669757L747.3260416666667,61.78830998284478L771.4333333333333,53.9034458569118L795.5406250000001,50.986266987664365L819.6479166666667,48.632466963359306L843.7552083333334,36.30194987569537L867.8625,41.067332369940615L891.9697916666668,55.317125490733574L916.0770833333332,43.81231955119543L940.184375,37.94297133173261L964.2916666666666,44.34764180864606L988.3989583333333,47.91795492172241L1012.5062499999999,47.9521749700819L1036.6135416666666,36.55323931149073L1060.7208333333333,44.78518332753863L1084.828125,35.76155560357232L1108.9354166666667,34.569567952837275L1133.0427083333334,34.51672911643982L1157.15,40.868432351521065L1181.2572916666666,37.48661841664996L1205.3645833333335,32.75545597076416L1229.471875,37.052351236343384L1253.5791666666667,43.28438060624261L1277.6864583333333,42.12487953049798L1301.79375,36.10016073499408L1325.9010416666665,38.71886117117744L1350.0083333333334,34.11770922797065L1374.115625,27.936849423817208" style="fill: none;" fill="none"></path></g></g></g></g></g></g><g transform="translate(51, 377)" clip-path="url(#clip_1)"><clipPath id="clip_1"><rect width="1446" height="23"></rect></clipPath><g><g><line x1="0" y1="0" x2="0" y2="5" style="visibility: inherit;" fill="rgb(0, 0, 0)" stroke="rgb(204, 204, 204)" stroke-width="1px"></line><line x1="120.53645833333333" y1="0" x2="120.53645833333333" y2="5" style="visibility: inherit;" fill="rgb(0, 0, 0)" stroke="rgb(204, 204, 204)" stroke-width="1px"></line><line x1="241.07291666666666" y1="0" x2="241.07291666666666" y2="5" style="visibility: inherit;" fill="rgb(0, 0, 0)" stroke="rgb(204, 204, 204)" stroke-width="1px"></line><line x1="361.609375" y1="0" x2="361.609375" y2="5" style="visibility: inherit;" fill="rgb(0, 0, 0)" stroke="rgb(204, 204, 204)" stroke-width="1px"></line><line x1="482.1458333333333" y1="0" x2="482.1458333333333" y2="5" style="visibility: inherit;" fill="rgb(0, 0, 0)" stroke="rgb(204, 204, 204)" stroke-width="1px"></line><line x1="602.6822916666667" y1="0" x2="602.6822916666667" y2="5" style="visibility: inherit;" fill="rgb(0, 0, 0)" stroke="rgb(204, 204, 204)" stroke-width="1px"></line><line x1="723.21875" y1="0" x2="723.21875" y2="5" style="visibility: inherit;" fill="rgb(0, 0, 0)" stroke="rgb(204, 204, 204)" stroke-width="1px"></line><line x1="843.7552083333334" y1="0" x2="843.7552083333334" y2="5" style="visibility: inherit;" fill="rgb(0, 0, 0)" stroke="rgb(204, 204, 204)" stroke-width="1px"></line><line x1="964.2916666666666" y1="0" x2="964.2916666666666" y2="5" style="visibility: inherit;" fill="rgb(0, 0, 0)" stroke="rgb(204, 204, 204)" stroke-width="1px"></line><line x1="1084.828125" y1="0" x2="1084.828125" y2="5" style="visibility: inherit;" fill="rgb(0, 0, 0)" stroke="rgb(204, 204, 204)" stroke-width="1px"></line><line x1="1205.3645833333335" y1="0" x2="1205.3645833333335" y2="5" style="visibility: inherit;" fill="rgb(0, 0, 0)" stroke="rgb(204, 204, 204)" stroke-width="1px"></line><line x1="1325.9010416666665" y1="0" x2="1325.9010416666665" y2="5" style="visibility: inherit;" fill="rgb(0, 0, 0)" stroke="rgb(204, 204, 204)" stroke-width="1px"></line><line x1="1446.4375" y1="0" x2="1446.4375" y2="5" style="visibility: inherit;" fill="rgb(0, 0, 0)" stroke="rgb(204, 204, 204)" stroke-width="1px"></line></g><g transform="translate(0, 8)"><text x="0" y="0" dx="0em" dy="0.95em" style="text-anchor: middle; visibility: hidden; font-family: Roboto, sans-serif; font-size: 12px; font-weight: 200;" fill="rgb(33, 33, 33)" stroke="none" stroke-width="1px">-5</text><text x="120.53645833333333" y="0" dx="0em" dy="0.95em" style="text-anchor: middle; visibility: inherit; font-family: Roboto, sans-serif; font-size: 12px; font-weight: 200;" fill="rgb(33, 33, 33)" stroke="none" stroke-width="1px">0</text><text x="241.07291666666666" y="0" dx="0em" dy="0.95em" style="text-anchor: middle; visibility: inherit; font-family: Roboto, sans-serif; font-size: 12px; font-weight: 200;" fill="rgb(33, 33, 33)" stroke="none" stroke-width="1px">5</text><text x="361.609375" y="0" dx="0em" dy="0.95em" style="text-anchor: middle; visibility: inherit; font-family: Roboto, sans-serif; font-size: 12px; font-weight: 200;" fill="rgb(33, 33, 33)" stroke="none" stroke-width="1px">10</text><text x="482.1458333333333" y="0" dx="0em" dy="0.95em" style="text-anchor: middle; visibility: inherit; font-family: Roboto, sans-serif; font-size: 12px; font-weight: 200;" fill="rgb(33, 33, 33)" stroke="none" stroke-width="1px">15</text><text x="602.6822916666667" y="0" dx="0em" dy="0.95em" style="text-anchor: middle; visibility: inherit; font-family: Roboto, sans-serif; font-size: 12px; font-weight: 200;" fill="rgb(33, 33, 33)" stroke="none" stroke-width="1px">20</text><text x="723.21875" y="0" dx="0em" dy="0.95em" style="text-anchor: middle; visibility: inherit; font-family: Roboto, sans-serif; font-size: 12px; font-weight: 200;" fill="rgb(33, 33, 33)" stroke="none" stroke-width="1px">25</text><text x="843.7552083333334" y="0" dx="0em" dy="0.95em" style="text-anchor: middle; visibility: inherit; font-family: Roboto, sans-serif; font-size: 12px; font-weight: 200;" fill="rgb(33, 33, 33)" stroke="none" stroke-width="1px">30</text><text x="964.2916666666666" y="0" dx="0em" dy="0.95em" style="text-anchor: middle; visibility: inherit; font-family: Roboto, sans-serif; font-size: 12px; font-weight: 200;" fill="rgb(33, 33, 33)" stroke="none" stroke-width="1px">35</text><text x="1084.828125" y="0" dx="0em" dy="0.95em" style="text-anchor: middle; visibility: inherit; font-family: Roboto, sans-serif; font-size: 12px; font-weight: 200;" fill="rgb(33, 33, 33)" stroke="none" stroke-width="1px">40</text><text x="1205.3645833333335" y="0" dx="0em" dy="0.95em" style="text-anchor: middle; visibility: inherit; font-family: Roboto, sans-serif; font-size: 12px; font-weight: 200;" fill="rgb(33, 33, 33)" stroke="none" stroke-width="1px">45</text><text x="1325.9010416666665" y="0" dx="0em" dy="0.95em" style="text-anchor: middle; visibility: inherit; font-family: Roboto, sans-serif; font-size: 12px; font-weight: 200;" fill="rgb(33, 33, 33)" stroke="none" stroke-width="1px">50</text><text x="1446.4375" y="0" dx="0em" dy="0.95em" style="text-anchor: middle; visibility: hidden; font-family: Roboto, sans-serif; font-size: 12px; font-weight: 200;" fill="rgb(33, 33, 33)" stroke="none" stroke-width="1px">55</text></g><line x1="0" y1="0" x2="1446.4375" y2="0" fill="rgb(0, 0, 0)" stroke="rgb(204, 204, 204)" stroke-width="1px"></line></g></g></g></g></svg>