<svg viewBox="0 0 1498 400" xmlns="http://www.w3.org/2000/svg"><g><g><g><g><g><line x1="61.953125" y1="377" x2="56.953125" y2="377" style="visibility: inherit;" fill="rgb(0, 0, 0)" stroke="rgb(204, 204, 204)" stroke-width="1px"></line><line x1="61.953125" y1="350.07142857142856" x2="56.953125" y2="350.07142857142856" style="visibility: inherit;" fill="rgb(0, 0, 0)" stroke="rgb(204, 204, 204)" stroke-width="1px"></line><line x1="61.953125" y1="323.14285714285717" x2="56.953125" y2="323.14285714285717" style="visibility: inherit;" fill="rgb(0, 0, 0)" stroke="rgb(204, 204, 204)" stroke-width="1px"></line><line x1="61.953125" y1="296.2142857142857" x2="56.953125" y2="296.2142857142857" style="visibility: inherit;" fill="rgb(0, 0, 0)" stroke="rgb(204, 204, 204)" stroke-width="1px"></line><line x1="61.953125" y1="269.2857142857143" x2="56.953125" y2="269.2857142857143" style="visibility: inherit;" fill="rgb(0, 0, 0)" stroke="rgb(204, 204, 204)" stroke-width="1px"></line><line x1="61.953125" y1="242.35714285714283" x2="56.953125" y2="242.35714285714283" style="visibility: inherit;" fill="rgb(0, 0, 0)" stroke="rgb(204, 204, 204)" stroke-width="1px"></line><line x1="61.953125" y1="215.42857142857142" x2="56.953125" y2="215.42857142857142" style="visibility: inherit;" fill="rgb(0, 0, 0)" stroke="rgb(204, 204, 204)" stroke-width="1px"></line><line x1="61.953125" y1="188.5" x2="56.953125" y2="188.5" style="visibility: inherit;" fill="rgb(0, 0, 0)" stroke="rgb(204, 204, 204)" stroke-width="1px"></line><line x1="61.953125" y1="161.57142857142858" x2="56.953125" y2="161.57142857142858" style="visibility: inherit;" fill="rgb(0, 0, 0)" stroke="rgb(204, 204, 204)" stroke-width="1px"></line><line x1="61.953125" y1="134.64285714285714" x2="56.953125" y2="134.64285714285714" style="visibility: inherit;" fill="rgb(0, 0, 0)" stroke="rgb(204, 204, 204)" stroke-width="1px"></line><line x1="61.953125" y1="107.71428571428571" x2="56.953125" y2="107.71428571428571" style="visibility: inherit;" fill="rgb(0, 0, 0)" stroke="rgb(204, 204, 204)" stroke-width="1px"></line><line x1="61.953125" y1="80.78571428571429" x2="56.953125" y2="80.78571428571429" style="visibility: inherit;" fill="rgb(0, 0, 0)" stroke="rgb(204, 204, 204)" stroke-width="1px"></line><line x1="61.953125" y1="53.857142857142875" x2="56.953125" y2="53.857142857142875" style="visibility: inherit;" fill="rgb(0, 0, 0)" stroke="rgb(204, 204, 204)" stroke-width="1px"></line><line x1="61.953125" y1="26.928571428571416" x2="56.953125" y2="26.928571428571416" style="visibility: inherit;" fill="rgb(0, 0, 0)" stroke="rgb(204, 204, 204)" stroke-width="1px"></line><line x1="61.953125" y1="0" x2="56.953125" y2="0" style="visibility: inherit;" fill="rgb(0, 0, 0)" stroke="rgb(204, 204, 204)" stroke-width="1px"></line></g><g transform="translate(51.953125, 0)"><text x="0" y="377" dx="0em" dy="0.3em" style="text-anchor: end; visibility: hidden; font-family: Roboto, sans-serif; font-size: 12px; font-weight: 200;" fill="rgb(33, 33, 33)" stroke="none" stroke-width="1px">0.815</text><text x="0" y="350.07142857142856" dx="0em" dy="0.3em" style="text-anchor: end; visibility: inherit; font-family: Roboto, sans-serif; font-size: 12px; font-weight: 200;" fill="rgb(33, 33, 33)" stroke="none" stroke-width="1px">0.82</text><text x="0" y="323.14285714285717" dx="0em" dy="0.3em" style="text-anchor: end; visibility: inherit; font-family: Roboto, sans-serif; font-size: 12px; font-weight: 200;" fill="rgb(33, 33, 33)" stroke="none" stroke-width="1px">0.825</text><text x="0" y="296.2142857142857" dx="0em" dy="0.3em" style="text-anchor: end; visibility: inherit; font-family: Roboto, sans-serif; font-size: 12px; font-weight: 200;" fill="rgb(33, 33, 33)" stroke="none" stroke-width="1px">0.83</text><text x="0" y="269.2857142857143" dx="0em" dy="0.3em" style="text-anchor: end; visibility: inherit; font-family: Roboto, sans-serif; font-size: 12px; font-weight: 200;" fill="rgb(33, 33, 33)" stroke="none" stroke-width="1px">0.835</text><text x="0" y="242.35714285714283" dx="0em" dy="0.3em" style="text-anchor: end; visibility: inherit; font-family: Roboto, sans-serif; font-size: 12px; font-weight: 200;" fill="rgb(33, 33, 33)" stroke="none" stroke-width="1px">0.84</text><text x="0" y="215.42857142857142" dx="0em" dy="0.3em" style="text-anchor: end; visibility: inherit; font-family: Roboto, sans-serif; font-size: 12px; font-weight: 200;" fill="rgb(33, 33, 33)" stroke="none" stroke-width="1px">0.845</text><text x="0" y="188.5" dx="0em" dy="0.3em" style="text-anchor: end; visibility: inherit; font-family: Roboto, sans-serif; font-size: 12px; font-weight: 200;" fill="rgb(33, 33, 33)" stroke="none" stroke-width="1px">0.85</text><text x="0" y="161.57142857142858" dx="0em" dy="0.3em" style="text-anchor: end; visibility: inherit; font-family: Roboto, sans-serif; font-size: 12px; font-weight: 200;" fill="rgb(33, 33, 33)" stroke="none" stroke-width="1px">0.855</text><text x="0" y="134.64285714285714" dx="0em" dy="0.3em" style="text-anchor: end; visibility: inherit; font-family: Roboto, sans-serif; font-size: 12px; font-weight: 200;" fill="rgb(33, 33, 33)" stroke="none" stroke-width="1px">0.86</text><text x="0" y="107.71428571428571" dx="0em" dy="0.3em" style="text-anchor: end; visibility: inherit; font-family: Roboto, sans-serif; font-size: 12px; font-weight: 200;" fill="rgb(33, 33, 33)" stroke="none" stroke-width="1px">0.865</text><text x="0" y="80.78571428571429" dx="0em" dy="0.3em" style="text-anchor: end; visibility: inherit; font-family: Roboto, sans-serif; font-size: 12px; font-weight: 200;" fill="rgb(33, 33, 33)" stroke="none" stroke-width="1px">0.87</text><text x="0" y="53.857142857142875" dx="0em" dy="0.3em" style="text-anchor: end; visibility: inherit; font-family: Roboto, sans-serif; font-size: 12px; font-weight: 200;" fill="rgb(33, 33, 33)" stroke="none" stroke-width="1px">0.875</text><text x="0" y="26.928571428571416" dx="0em" dy="0.3em" style="text-anchor: end; visibility: inherit; font-family: Roboto, sans-serif; font-size: 12px; font-weight: 200;" fill="rgb(33, 33, 33)" stroke="none" stroke-width="1px">0.88</text><text x="0" y="0" dx="0em" dy="0.3em" style="text-anchor: end; visibility: hidden; font-family: Roboto, sans-serif; font-size: 12px; font-weight: 200;" fill="rgb(33, 33, 33)" stroke="none" stroke-width="1px">0.885</text></g><line x1="61.953125" y1="0" x2="61.953125" y2="377" fill="rgb(0, 0, 0)" stroke="rgb(204, 204, 204)" stroke-width="1px"></line></g></g><g transform="translate(61, 0)" clip-path="url(#clip_0)"><clipPath id="clip_0"><rect width="1436" height="377"></rect></clipPath><g><g><g><line x1="0" y1="0" x2="0" y2="377" fill="rgb(0, 0, 0)" stroke="rgb(66, 66, 66)" stroke-width="1px" opacity="0.25"></line><line x1="159.56076388888889" y1="0" x2="159.56076388888889" y2="377" fill="rgb(0, 0, 0)" stroke="rgb(66, 66, 66)" stroke-width="1px" opacity="0.25"></line><line x1="319.12152777777777" y1="0" x2="319.12152777777777" y2="377" fill="rgb(0, 0, 0)" stroke="rgb(66, 66, 66)" stroke-width="1px" opacity="0.25"></line><line x1="478.68229166666663" y1="0" x2="478.68229166666663" y2="377" fill="rgb(0, 0, 0)" stroke="rgb(66, 66, 66)" stroke-width="1px" opacity="0.25"></line><line x1="638.2430555555555" y1="0" x2="638.2430555555555" y2="377" fill="rgb(0, 0, 0)" stroke="rgb(66, 66, 66)" stroke-width="1px" opacity="0.25"></line><line x1="797.8038194444445" y1="0" x2="797.8038194444445" y2="377" fill="rgb(0, 0, 0)" stroke="rgb(66, 66, 66)" stroke-width="1px" opacity="0.25"></line><line x1="957.3645833333333" y1="0" x2="957.3645833333333" y2="377" fill="rgb(0, 0, 0)" stroke="rgb(66, 66, 66)" stroke-width="1px" opacity="0.25"></line><line x1="1116.9253472222222" y1="0" x2="1116.9253472222222" y2="377" fill="rgb(0, 0, 0)" stroke="rgb(66, 66, 66)" stroke-width="1px" opacity="0.25"></line><line x1="1276.486111111111" y1="0" x2="1276.486111111111" y2="377" fill="rgb(0, 0, 0)" stroke="rgb(66, 66, 66)" stroke-width="1px" opacity="0.25"></line><line x1="1436.046875" y1="0" x2="1436.046875" y2="377" fill="rgb(0, 0, 0)" stroke="rgb(66, 66, 66)" stroke-width="1px" opacity="0.25"></line></g><g><line x1="0" y1="377" x2="1436.046875" y2="377" fill="rgb(0, 0, 0)" stroke="rgb(66, 66, 66)" stroke-width="1px" opacity="0.25"></line><line x1="0" y1="350.07142857142856" x2="1436.046875" y2="350.07142857142856" fill="rgb(0, 0, 0)" stroke="rgb(66, 66, 66)" stroke-width="1px" opacity="0.25"></line><line x1="0" y1="323.14285714285717" x2="1436.046875" y2="323.14285714285717" fill="rgb(0, 0, 0)" stroke="rgb(66, 66, 66)" stroke-width="1px" opacity="0.25"></line><line x1="0" y1="296.2142857142857" x2="1436.046875" y2="296.2142857142857" fill="rgb(0, 0, 0)" stroke="rgb(66, 66, 66)" stroke-width="1px" opacity="0.25"></line><line x1="0" y1="269.2857142857143" x2="1436.046875" y2="269.2857142857143" fill="rgb(0, 0, 0)" stroke="rgb(66, 66, 66)" stroke-width="1px" opacity="0.25"></line><line x1="0" y1="242.35714285714283" x2="1436.046875" y2="242.35714285714283" fill="rgb(0, 0, 0)" stroke="rgb(66, 66, 66)" stroke-width="1px" opacity="0.25"></line><line x1="0" y1="215.42857142857142" x2="1436.046875" y2="215.42857142857142" fill="rgb(0, 0, 0)" stroke="rgb(66, 66, 66)" stroke-width="1px" opacity="0.25"></line><line x1="0" y1="188.5" x2="1436.046875" y2="188.5" fill="rgb(0, 0, 0)" stroke="rgb(66, 66, 66)" stroke-width="1px" opacity="0.25"></line><line x1="0" y1="161.57142857142858" x2="1436.046875" y2="161.57142857142858" fill="rgb(0, 0, 0)" stroke="rgb(66, 66, 66)" stroke-width="1px" opacity="0.25"></line><line x1="0" y1="134.64285714285714" x2="1436.046875" y2="134.64285714285714" fill="rgb(0, 0, 0)" stroke="rgb(66, 66, 66)" stroke-width="1px" opacity="0.25"></line><line x1="0" y1="107.71428571428571" x2="1436.046875" y2="107.71428571428571" fill="rgb(0, 0, 0)" stroke="rgb(66, 66, 66)" stroke-width="1px" opacity="0.25"></line><line x1="0" y1="80.78571428571429" x2="1436.046875" y2="80.78571428571429" fill="rgb(0, 0, 0)" stroke="rgb(66, 66, 66)" stroke-width="1px" opacity="0.25"></line><line x1="0" y1="53.857142857142875" x2="1436.046875" y2="53.857142857142875" fill="rgb(0, 0, 0)" stroke="rgb(66, 66, 66)" stroke-width="1px" opacity="0.25"></line><line x1="0" y1="26.928571428571416" x2="1436.046875" y2="26.928571428571416" fill="rgb(0, 0, 0)" stroke="rgb(66, 66, 66)" stroke-width="1px" opacity="0.25"></line><line x1="0" y1="0" x2="1436.046875" y2="0" fill="rgb(0, 0, 0)" stroke="rgb(66, 66, 66)" stroke-width="1px" opacity="0.25"></line></g></g></g><g><g><line x1="0" y1="4766.357142857139" x2="1436.046875" y2="4766.357142857139" fill="rgb(0, 0, 0)" stroke="rgb(153, 153, 153)" stroke-width="1.5px"></line></g></g><g><g><line x1="159.56076388888889" y1="0" x2="159.56076388888889" y2="377" fill="rgb(0, 0, 0)" stroke="rgb(153, 153, 153)" stroke-width="1.5px"></line></g></g><g><g><g><g><g><path stroke="rgb(238, 51, 119)" stroke-width="2px" d="M199.45095486111111,377.48522678159367L207.42899305555554,249.50409444277736L215.40703125,191.5571546263107L223.38506944444444,131.35766879699727L231.3631076388889,121.0092502241961L239.34114583333331,106.00627752079463L247.31918402777777,120.24681570674075L255.29722222222225,83.398634701253L263.27526041666664,78.87397543265007L271.2532986111111,104.36779486284848L279.23133680555554,99.55503462889877L287.209375,140.512513943359L295.18741319444445,140.81468245633596L303.16545138888887,111.63966544170701L311.14348958333335,58.02391118887431L319.12152777777777,34.16501120491773L327.0995659722222,-0.9753181347115485L351.0336805555555,-4.641068084374078L359.01171875,23.536487395713884L366.9897569444444,10.264471733352366L374.9677951388889,119.24659253874036L382.9458333333333,49.566480830946226L390.92387152777775,42.79475969144485L398.90190972222223,71.83170010856594L406.87994791666665,105.38826286444612L414.8579861111111,175.42992673047453L422.83602430555555,196.3525163481081L430.8140625,175.7926188429603L438.79210069444446,194.77232672004712L446.7701388888889,211.9082206429286L454.7481770833333,141.21099761178718L462.7262152777778,113.49072048734342L470.7042534722222,140.0677535341621L478.68229166666663,118.88335896091525L486.6603298611111,108.91327942291537L494.63836805555553,97.07812676952885L502.61640624999995,89.12211179500665L510.5944444444445,85.79229351959438L518.5724826388889,123.43470112794598L526.5505208333333,100.43030970538231L534.5285590277778,46.505855900296396L542.5065972222222,22.699133409089303L550.4846354166667,35.16670297319299L558.4626736111111,14.974204253321851L566.4407118055556,9.761267571618546L574.41875,114.0554377832519L582.3967881944444,186.90039412122482L590.3748263888889,197.9164998868523L598.3528645833334,224.0805133817631L606.3309027777777,223.89773730947536L614.3089409722222,278.44795393910226L622.2869791666667,250.3800366467754L630.2650173611111,315.4448757156813L638.2430555555555,293.5511629913153L646.22109375,270.09216564669975L654.1991319444444,341.6149117711815L662.177170138889,364.16936414535945L670.1552083333333,361.1672677377913L678.1332465277777,338.3587523635825L686.1112847222223,316.57536918057866L694.0893229166667,272.6272991614146L702.067361111111,251.85539323956866L710.0453993055556,271.0423916749411L718.0234375,314.10483329641636L726.0014756944444,308.5444729600931L733.9795138888888,320.2757356875456L741.9575520833334,301.45068544143675L749.9355902777778,287.5955077358313L757.9136284722223,257.12052191357554L765.8916666666667,262.46290084585576L773.869704861111,247.8936774952539L781.8477430555555,237.15222883874415L789.8257812500001,174.33082511474353L797.8038194444445,142.36653454060897L805.7818576388889,160.01849104395004L813.7598958333333,129.11429305929227L821.7379340277778,106.10390716655614L829.7159722222221,161.61863363218697L837.6940104166667,250.18135532568755L845.6720486111111,267.2777657013414L853.6500868055556,255.8195563972761L861.628125,233.74027169215145L869.6061631944444,243.52529732097244L877.5842013888889,225.8097752008808L885.5622395833334,210.80299225294448L893.5402777777778,183.70081848409086L901.5183159722222,175.10660273138467L909.4963541666666,123.26365488267507L917.4743923611111,115.15992213187516L925.4524305555556,97.58477400906185L933.43046875,82.26030644874179L941.4085069444444,60.63392534230644L949.3865451388889,48.725787868347375L957.3645833333333,50.824684225808504L965.3426215277779,41.4786319684162L973.3206597222222,50.25459219777726L981.2986979166667,73.3764849018616L989.2767361111111,73.91689901846607L997.2547743055555,53.10959349792865L1005.2328124999999,74.54992604515523L1013.2108506944445,101.6129417366907L1021.188888888889,88.74945704281235L1029.1669270833333,81.67634672520819L1037.1449652777778,82.17076948215971L1045.123003472222,92.34167266276319L1053.1010416666666,110.33584188283156L1061.0790798611113,136.03584860395102L1069.0571180555555,155.9681480189858L1077.03515625,154.5054359795783L1085.0131944444445,141.2193495693795L1092.9912326388887,124.57301176821333L1100.9692708333334,122.63584462970154L1108.947309027778,139.89510163680785L1116.9253472222222,158.11150815070738L1124.9033854166667,151.8058757695704L1132.8814236111111,164.4851003186363L1140.8594618055554,176.03994651756264L1148.8375,196.48239002640844L1156.8155381944446,204.4564180971132L1164.7935763888888,190.23734421906033L1172.7716145833333,186.45125113865325L1180.7496527777778,192.85723457045523L1188.727690972222,200.43100250887017L1196.7057291666667,205.505320906545L1204.6837673611112,198.7446161371757L1212.6618055555555,210.1073746905666L1220.63984375,211.0812984873699L1228.6178819444444,257.4558012280197L1236.595920138889,267.2064106886158L1244.5739583333334,277.0092240518502L1252.5519965277779,290.7845077652865L1260.5300347222221,298.8230424010233L1268.5080729166666,328.50866548490774L1276.486111111111,344.50977951620763L1284.4641493055556,330.54689501042316L1292.4421875,307.3803251711008L1300.4202256944445,290.6211794520479L1308.3982638888888,275.9162596339451L1316.3763020833333,263.4033207648244L1324.354340277778,257.3516750733575L1332.3323784722222,258.8845122167347L1340.3104166666667,259.83079442775346L1348.2884548611112,258.86989705372895L1356.2664930555554,256.3875651668339L1364.24453125,259.07326874542014L1372.2225694444446,243.40915210745533L1380.2006076388889,218.2150159749919L1388.1786458333333,196.93558704950706L1396.1566840277778,182.55926640773512L1404.134722222222,170.185704598778" style="fill: none;" fill="none"></path></g></g></g></g><g opacity="0.2"><g><g><g><path stroke="rgb(238, 51, 119)" stroke-width="2px" d="M191.47291666666666,-26.671041488647376L199.45095486111111,44.722701242991874L207.42899305555554,66.48902750015259L215.40703125,107.06996008328024L223.38506944444444,42.57512034688678L231.3631076388889,105.64305468967977L239.34114583333331,83.63789432389393L247.31918402777777,141.530126605715L255.29722222222225,28.246678897312734L263.27526041666664,72.09585080827985L271.2532986111111,142.57855698040544L279.23133680555554,92.33928860936842L287.209375,201.93140108244745L295.18741319444445,141.26785850524894L303.16545138888887,67.88158443995881L311.14348958333335,-22.39481949806205L343.05564236111115,-45.186784165246024L351.0336805555555,47.16625666618347L359.01171875,65.80270045144215L366.9897569444444,-9.643517800739774L374.9677951388889,282.71960643359574L382.9458333333333,-54.95362254551469L390.92387152777775,32.63718172482085L398.90190972222223,115.38710110528122L406.87994791666665,155.7231003216334L414.8579861111111,280.49241416794894L422.83602430555555,227.73639927591583L430.8140625,144.95277346883495L438.79210069444446,223.24188804626448L446.7701388888889,237.61206126213057L454.7481770833333,35.165163721357104L462.7262152777778,71.91030495507374L470.7042534722222,179.93330301557256L478.68229166666663,87.10676714352198L486.6603298611111,93.9581601279122L494.63836805555553,79.32539779799323L502.61640624999995,77.18808933666773L510.5944444444445,80.7975661073412L518.5724826388889,179.89831253460466L526.5505208333333,65.92372257368903L534.5285590277778,-34.380824804305945L542.5065972222222,-13.010950326919472L550.4846354166667,53.86805731909614L558.4626736111111,-15.314543826239401L566.4407118055556,1.9418625491006334L574.41875,270.4966931002479L582.3967881944444,296.1678286279949L590.3748263888889,214.44065853527601L598.3528645833334,263.3265336241039L606.3309027777777,223.62357320104314L614.3089409722222,360.27327888352505L622.2869791666667,208.27816070829107L630.2650173611111,413.04213431903264L638.2430555555555,260.71059390476756L646.22109375,234.90366962977802L654.1991319444444,448.8990309579029L662.177170138889,398.0010427066255L670.1552083333333,356.6641231264384L678.1332465277777,304.1459793022699L686.1112847222223,283.9002944060732L694.0893229166667,206.7051941326685L702.067361111111,220.6975343567983L710.0453993055556,299.8228893280027L718.0234375,378.6984957286287L726.0014756944444,300.20393245560757L733.9795138888888,337.8726297787255L741.9575520833334,273.21311007227195L749.9355902777778,266.8127411774225L757.9136284722223,211.40804318019306L765.8916666666667,270.4764692442756L773.869704861111,226.0398424693515L781.8477430555555,221.0400558539798L789.8257812500001,80.09871952874317L797.8038194444445,94.42009867940627L805.7818576388889,186.49642579896098L813.7598958333333,82.75799608230587L821.7379340277778,71.58832832745142L829.7159722222221,244.89072333063382L837.6940104166667,383.02543786593816L845.6720486111111,292.9223812648226L853.6500868055556,238.6322424411772L861.628125,200.62134463446466L869.6061631944444,258.2028357642036L877.5842013888889,199.2364920207431L885.5622395833334,188.29281783103932L893.5402777777778,143.04755783081046L901.5183159722222,162.21527910232535L909.4963541666666,45.499233109610415L917.4743923611111,103.00432300567623L925.4524305555556,71.22205182484217L933.43046875,59.27360510826111L941.4085069444444,28.19435368265428L949.3865451388889,30.863581657409668L957.3645833333333,53.97302876199994L965.3426215277779,27.459553582327743L973.3206597222222,63.41853254181996L981.2986979166667,108.05932395798813L989.2767361111111,74.72752019337244L997.2547743055555,21.898635217121694L1005.2328124999999,106.71042486599508L1013.2108506944445,142.20746527399328L1021.188888888889,69.45423000199452L1029.1669270833333,71.06668124880109L1037.1449652777778,82.91240361758638L1045.123003472222,107.59802743366781L1053.1010416666666,137.32709571293418L1061.0790798611113,174.58585868562963L1069.0571180555555,185.86659714153822L1077.03515625,152.31136792046672L1085.0131944444445,121.29021995408188L1092.9912326388887,99.6035050664629L1100.9692708333334,119.7300939219338L1108.947309027778,165.7839871474674L1116.9253472222222,185.43611792155664L1124.9033854166667,142.34742719786502L1132.8814236111111,183.50393714223577L1140.8594618055554,193.3722158159527L1148.8375,227.14605528967707L1156.8155381944446,216.4174602031706L1164.7935763888888,168.90873340197962L1172.7716145833333,180.7721115180423L1180.7496527777778,202.46620971815912L1188.727690972222,211.79165441649286L1196.7057291666667,213.11679850305816L1204.6837673611112,188.6035589831215L1212.6618055555555,227.1515125206537L1220.63984375,212.54218418257562L1228.6178819444444,327.0175553389955L1236.595920138889,281.8323248795099L1244.5739583333334,291.71344409670127L1252.5519965277779,311.4474333354403L1260.5300347222221,310.8808443546293L1268.5080729166666,373.0371001107349L1276.486111111111,368.511450563158L1284.4641493055556,309.6025682517458L1292.4421875,272.6304704121179L1300.4202256944445,265.4824608734674L1308.3982638888888,253.85887990679043L1316.3763020833333,244.63391246114443L1324.354340277778,248.27420653615658L1332.3323784722222,261.18376793180175L1340.3104166666667,261.2502177442821L1348.2884548611112,257.4285509926931L1356.2664930555554,252.664067336491L1364.24453125,263.10182411330067L1372.2225694444446,219.9129771505082L1380.2006076388889,180.4238117762973L1388.1786458333333,165.01644366128093L1396.1566840277778,160.994785445077L1404.134722222222,151.62536188534318" style="fill: none;" fill="none"></path></g></g></g></g></g></g><g transform="translate(61, 377)" clip-path="url(#clip_1)"><clipPath id="clip_1"><rect width="1436" height="23"></rect></clipPath><g><g><line x1="0" y1="0" x2="0" y2="5" style="visibility: inherit;" fill="rgb(0, 0, 0)" stroke="rgb(204, 204, 204)" stroke-width="1px"></line><line x1="159.56076388888889" y1="0" x2="159.56076388888889" y2="5" style="visibility: inherit;" fill="rgb(0, 0, 0)" stroke="rgb(204, 204, 204)" stroke-width="1px"></line><line x1="319.12152777777777" y1="0" x2="319.12152777777777" y2="5" style="visibility: inherit;" fill="rgb(0, 0, 0)" stroke="rgb(204, 204, 204)" stroke-width="1px"></line><line x1="478.68229166666663" y1="0" x2="478.68229166666663" y2="5" style="visibility: inherit;" fill="rgb(0, 0, 0)" stroke="rgb(204, 204, 204)" stroke-width="1px"></line><line x1="638.2430555555555" y1="0" x2="638.2430555555555" y2="5" style="visibility: inherit;" fill="rgb(0, 0, 0)" stroke="rgb(204, 204, 204)" stroke-width="1px"></line><line x1="797.8038194444445" y1="0" x2="797.8038194444445" y2="5" style="visibility: inherit;" fill="rgb(0, 0, 0)" stroke="rgb(204, 204, 204)" stroke-width="1px"></line><line x1="957.3645833333333" y1="0" x2="957.3645833333333" y2="5" style="visibility: inherit;" fill="rgb(0, 0, 0)" stroke="rgb(204, 204, 204)" stroke-width="1px"></line><line x1="1116.9253472222222" y1="0" x2="1116.9253472222222" y2="5" style="visibility: inherit;" fill="rgb(0, 0, 0)" stroke="rgb(204, 204, 204)" stroke-width="1px"></line><line x1="1276.486111111111" y1="0" x2="1276.486111111111" y2="5" style="visibility: inherit;" fill="rgb(0, 0, 0)" stroke="rgb(204, 204, 204)" stroke-width="1px"></line><line x1="1436.046875" y1="0" x2="1436.046875" y2="5" style="visibility: inherit;" fill="rgb(0, 0, 0)" stroke="rgb(204, 204, 204)" stroke-width="1px"></line></g><g transform="translate(0, 8)"><text x="0" y="0" dx="0em" dy="0.95em" style="text-anchor: middle; visibility: hidden; font-family: Roboto, sans-serif; font-size: 12px; font-weight: 200;" fill="rgb(33, 33, 33)" stroke="none" stroke-width="1px">-20</text><text x="159.56076388888889" y="0" dx="0em" dy="0.95em" style="text-anchor: middle; visibility: inherit; font-family: Roboto, sans-serif; font-size: 12px; font-weight: 200;" fill="rgb(33, 33, 33)" stroke="none" stroke-width="1px">0</text><text x="319.12152777777777" y="0" dx="0em" dy="0.95em" style="text-anchor: middle; visibility: inherit; font-family: Roboto, sans-serif; font-size: 12px; font-weight: 200;" fill="rgb(33, 33, 33)" stroke="none" stroke-width="1px">20</text><text x="478.68229166666663" y="0" dx="0em" dy="0.95em" style="text-anchor: middle; visibility: inherit; font-family: Roboto, sans-serif; font-size: 12px; font-weight: 200;" fill="rgb(33, 33, 33)" stroke="none" stroke-width="1px">40</text><text x="638.2430555555555" y="0" dx="0em" dy="0.95em" style="text-anchor: middle; visibility: inherit; font-family: Roboto, sans-serif; font-size: 12px; font-weight: 200;" fill="rgb(33, 33, 33)" stroke="none" stroke-width="1px">60</text><text x="797.8038194444445" y="0" dx="0em" dy="0.95em" style="text-anchor: middle; visibility: inherit; font-family: Roboto, sans-serif; font-size: 12px; font-weight: 200;" fill="rgb(33, 33, 33)" stroke="none" stroke-width="1px">80</text><text x="957.3645833333333" y="0" dx="0em" dy="0.95em" style="text-anchor: middle; visibility: inherit; font-family: Roboto, sans-serif; font-size: 12px; font-weight: 200;" fill="rgb(33, 33, 33)" stroke="none" stroke-width="1px">100</text><text x="1116.9253472222222" y="0" dx="0em" dy="0.95em" style="text-anchor: middle; visibility: inherit; font-family: Roboto, sans-serif; font-size: 12px; font-weight: 200;" fill="rgb(33, 33, 33)" stroke="none" stroke-width="1px">120</text><text x="1276.486111111111" y="0" dx="0em" dy="0.95em" style="text-anchor: middle; visibility: inherit; font-family: Roboto, sans-serif; font-size: 12px; font-weight: 200;" fill="rgb(33, 33, 33)" stroke="none" stroke-width="1px">140</text><text x="1436.046875" y="0" dx="0em" dy="0.95em" style="text-anchor: middle; visibility: hidden; font-family: Roboto, sans-serif; font-size: 12px; font-weight: 200;" fill="rgb(33, 33, 33)" stroke="none" stroke-width="1px">160</text></g><line x1="0" y1="0" x2="1436.046875" y2="0" fill="rgb(0, 0, 0)" stroke="rgb(204, 204, 204)" stroke-width="1px"></line></g></g></g></g></svg>