<svg viewBox="0 0 1498 400" xmlns="http://www.w3.org/2000/svg"><g><g><g><g><g><line x1="50" y1="377" x2="45" y2="377" style="visibility: inherit;" fill="rgb(0, 0, 0)" stroke="rgb(204, 204, 204)" stroke-width="1px"></line><line x1="50" y1="350.07142857142856" x2="45" y2="350.07142857142856" style="visibility: inherit;" fill="rgb(0, 0, 0)" stroke="rgb(204, 204, 204)" stroke-width="1px"></line><line x1="50" y1="323.14285714285717" x2="45" y2="323.14285714285717" style="visibility: inherit;" fill="rgb(0, 0, 0)" stroke="rgb(204, 204, 204)" stroke-width="1px"></line><line x1="50" y1="296.2142857142857" x2="45" y2="296.2142857142857" style="visibility: inherit;" fill="rgb(0, 0, 0)" stroke="rgb(204, 204, 204)" stroke-width="1px"></line><line x1="50" y1="269.28571428571433" x2="45" y2="269.28571428571433" style="visibility: inherit;" fill="rgb(0, 0, 0)" stroke="rgb(204, 204, 204)" stroke-width="1px"></line><line x1="50" y1="242.35714285714286" x2="45" y2="242.35714285714286" style="visibility: inherit;" fill="rgb(0, 0, 0)" stroke="rgb(204, 204, 204)" stroke-width="1px"></line><line x1="50" y1="215.42857142857142" x2="45" y2="215.42857142857142" style="visibility: inherit;" fill="rgb(0, 0, 0)" stroke="rgb(204, 204, 204)" stroke-width="1px"></line><line x1="50" y1="188.5" x2="45" y2="188.5" style="visibility: inherit;" fill="rgb(0, 0, 0)" stroke="rgb(204, 204, 204)" stroke-width="1px"></line><line x1="50" y1="161.57142857142858" x2="45" y2="161.57142857142858" style="visibility: inherit;" fill="rgb(0, 0, 0)" stroke="rgb(204, 204, 204)" stroke-width="1px"></line><line x1="50" y1="134.64285714285714" x2="45" y2="134.64285714285714" style="visibility: inherit;" fill="rgb(0, 0, 0)" stroke="rgb(204, 204, 204)" stroke-width="1px"></line><line x1="50" y1="107.71428571428575" x2="45" y2="107.71428571428575" style="visibility: inherit;" fill="rgb(0, 0, 0)" stroke="rgb(204, 204, 204)" stroke-width="1px"></line><line x1="50" y1="80.78571428571429" x2="45" y2="80.78571428571429" style="visibility: inherit;" fill="rgb(0, 0, 0)" stroke="rgb(204, 204, 204)" stroke-width="1px"></line><line x1="50" y1="53.85714285714292" x2="45" y2="53.85714285714292" style="visibility: inherit;" fill="rgb(0, 0, 0)" stroke="rgb(204, 204, 204)" stroke-width="1px"></line><line x1="50" y1="26.92857142857146" x2="45" y2="26.92857142857146" style="visibility: inherit;" fill="rgb(0, 0, 0)" stroke="rgb(204, 204, 204)" stroke-width="1px"></line><line x1="50" y1="0" x2="45" y2="0" style="visibility: inherit;" fill="rgb(0, 0, 0)" stroke="rgb(204, 204, 204)" stroke-width="1px"></line></g><g transform="translate(40, 0)"><text x="0" y="377" dx="0em" dy="0.3em" style="text-anchor: end; visibility: hidden; font-family: Roboto, sans-serif; font-size: 12px; font-weight: 200;" fill="rgb(33, 33, 33)" stroke="none" stroke-width="1px">0.1</text><text x="0" y="350.07142857142856" dx="0em" dy="0.3em" style="text-anchor: end; visibility: inherit; font-family: Roboto, sans-serif; font-size: 12px; font-weight: 200;" fill="rgb(33, 33, 33)" stroke="none" stroke-width="1px">0.15</text><text x="0" y="323.14285714285717" dx="0em" dy="0.3em" style="text-anchor: end; visibility: inherit; font-family: Roboto, sans-serif; font-size: 12px; font-weight: 200;" fill="rgb(33, 33, 33)" stroke="none" stroke-width="1px">0.2</text><text x="0" y="296.2142857142857" dx="0em" dy="0.3em" style="text-anchor: end; visibility: inherit; font-family: Roboto, sans-serif; font-size: 12px; font-weight: 200;" fill="rgb(33, 33, 33)" stroke="none" stroke-width="1px">0.25</text><text x="0" y="269.28571428571433" dx="0em" dy="0.3em" style="text-anchor: end; visibility: inherit; font-family: Roboto, sans-serif; font-size: 12px; font-weight: 200;" fill="rgb(33, 33, 33)" stroke="none" stroke-width="1px">0.3</text><text x="0" y="242.35714285714286" dx="0em" dy="0.3em" style="text-anchor: end; visibility: inherit; font-family: Roboto, sans-serif; font-size: 12px; font-weight: 200;" fill="rgb(33, 33, 33)" stroke="none" stroke-width="1px">0.35</text><text x="0" y="215.42857142857142" dx="0em" dy="0.3em" style="text-anchor: end; visibility: inherit; font-family: Roboto, sans-serif; font-size: 12px; font-weight: 200;" fill="rgb(33, 33, 33)" stroke="none" stroke-width="1px">0.4</text><text x="0" y="188.5" dx="0em" dy="0.3em" style="text-anchor: end; visibility: inherit; font-family: Roboto, sans-serif; font-size: 12px; font-weight: 200;" fill="rgb(33, 33, 33)" stroke="none" stroke-width="1px">0.45</text><text x="0" y="161.57142857142858" dx="0em" dy="0.3em" style="text-anchor: end; visibility: inherit; font-family: Roboto, sans-serif; font-size: 12px; font-weight: 200;" fill="rgb(33, 33, 33)" stroke="none" stroke-width="1px">0.5</text><text x="0" y="134.64285714285714" dx="0em" dy="0.3em" style="text-anchor: end; visibility: inherit; font-family: Roboto, sans-serif; font-size: 12px; font-weight: 200;" fill="rgb(33, 33, 33)" stroke="none" stroke-width="1px">0.55</text><text x="0" y="107.71428571428575" dx="0em" dy="0.3em" style="text-anchor: end; visibility: inherit; font-family: Roboto, sans-serif; font-size: 12px; font-weight: 200;" fill="rgb(33, 33, 33)" stroke="none" stroke-width="1px">0.6</text><text x="0" y="80.78571428571429" dx="0em" dy="0.3em" style="text-anchor: end; visibility: inherit; font-family: Roboto, sans-serif; font-size: 12px; font-weight: 200;" fill="rgb(33, 33, 33)" stroke="none" stroke-width="1px">0.65</text><text x="0" y="53.85714285714292" dx="0em" dy="0.3em" style="text-anchor: end; visibility: inherit; font-family: Roboto, sans-serif; font-size: 12px; font-weight: 200;" fill="rgb(33, 33, 33)" stroke="none" stroke-width="1px">0.7</text><text x="0" y="26.92857142857146" dx="0em" dy="0.3em" style="text-anchor: end; visibility: inherit; font-family: Roboto, sans-serif; font-size: 12px; font-weight: 200;" fill="rgb(33, 33, 33)" stroke="none" stroke-width="1px">0.75</text><text x="0" y="0" dx="0em" dy="0.3em" style="text-anchor: end; visibility: hidden; font-family: Roboto, sans-serif; font-size: 12px; font-weight: 200;" fill="rgb(33, 33, 33)" stroke="none" stroke-width="1px">0.8</text></g><line x1="50" y1="0" x2="50" y2="377" fill="rgb(0, 0, 0)" stroke="rgb(204, 204, 204)" stroke-width="1px"></line></g></g><g transform="translate(50, 0)" clip-path="url(#clip_0)"><clipPath id="clip_0"><rect width="1448" height="377"></rect></clipPath><g><g><g><line x1="0" y1="0" x2="0" y2="377" fill="rgb(0, 0, 0)" stroke="rgb(66, 66, 66)" stroke-width="1px" opacity="0.25"></line><line x1="120.66666666666666" y1="0" x2="120.66666666666666" y2="377" fill="rgb(0, 0, 0)" stroke="rgb(66, 66, 66)" stroke-width="1px" opacity="0.25"></line><line x1="241.33333333333331" y1="0" x2="241.33333333333331" y2="377" fill="rgb(0, 0, 0)" stroke="rgb(66, 66, 66)" stroke-width="1px" opacity="0.25"></line><line x1="362" y1="0" x2="362" y2="377" fill="rgb(0, 0, 0)" stroke="rgb(66, 66, 66)" stroke-width="1px" opacity="0.25"></line><line x1="482.66666666666663" y1="0" x2="482.66666666666663" y2="377" fill="rgb(0, 0, 0)" stroke="rgb(66, 66, 66)" stroke-width="1px" opacity="0.25"></line><line x1="603.3333333333334" y1="0" x2="603.3333333333334" y2="377" fill="rgb(0, 0, 0)" stroke="rgb(66, 66, 66)" stroke-width="1px" opacity="0.25"></line><line x1="724" y1="0" x2="724" y2="377" fill="rgb(0, 0, 0)" stroke="rgb(66, 66, 66)" stroke-width="1px" opacity="0.25"></line><line x1="844.6666666666667" y1="0" x2="844.6666666666667" y2="377" fill="rgb(0, 0, 0)" stroke="rgb(66, 66, 66)" stroke-width="1px" opacity="0.25"></line><line x1="965.3333333333333" y1="0" x2="965.3333333333333" y2="377" fill="rgb(0, 0, 0)" stroke="rgb(66, 66, 66)" stroke-width="1px" opacity="0.25"></line><line x1="1086" y1="0" x2="1086" y2="377" fill="rgb(0, 0, 0)" stroke="rgb(66, 66, 66)" stroke-width="1px" opacity="0.25"></line><line x1="1206.6666666666667" y1="0" x2="1206.6666666666667" y2="377" fill="rgb(0, 0, 0)" stroke="rgb(66, 66, 66)" stroke-width="1px" opacity="0.25"></line><line x1="1327.3333333333333" y1="0" x2="1327.3333333333333" y2="377" fill="rgb(0, 0, 0)" stroke="rgb(66, 66, 66)" stroke-width="1px" opacity="0.25"></line><line x1="1448" y1="0" x2="1448" y2="377" fill="rgb(0, 0, 0)" stroke="rgb(66, 66, 66)" stroke-width="1px" opacity="0.25"></line></g><g><line x1="0" y1="377" x2="1448" y2="377" fill="rgb(0, 0, 0)" stroke="rgb(66, 66, 66)" stroke-width="1px" opacity="0.25"></line><line x1="0" y1="350.07142857142856" x2="1448" y2="350.07142857142856" fill="rgb(0, 0, 0)" stroke="rgb(66, 66, 66)" stroke-width="1px" opacity="0.25"></line><line x1="0" y1="323.14285714285717" x2="1448" y2="323.14285714285717" fill="rgb(0, 0, 0)" stroke="rgb(66, 66, 66)" stroke-width="1px" opacity="0.25"></line><line x1="0" y1="296.2142857142857" x2="1448" y2="296.2142857142857" fill="rgb(0, 0, 0)" stroke="rgb(66, 66, 66)" stroke-width="1px" opacity="0.25"></line><line x1="0" y1="269.28571428571433" x2="1448" y2="269.28571428571433" fill="rgb(0, 0, 0)" stroke="rgb(66, 66, 66)" stroke-width="1px" opacity="0.25"></line><line x1="0" y1="242.35714285714286" x2="1448" y2="242.35714285714286" fill="rgb(0, 0, 0)" stroke="rgb(66, 66, 66)" stroke-width="1px" opacity="0.25"></line><line x1="0" y1="215.42857142857142" x2="1448" y2="215.42857142857142" fill="rgb(0, 0, 0)" stroke="rgb(66, 66, 66)" stroke-width="1px" opacity="0.25"></line><line x1="0" y1="188.5" x2="1448" y2="188.5" fill="rgb(0, 0, 0)" stroke="rgb(66, 66, 66)" stroke-width="1px" opacity="0.25"></line><line x1="0" y1="161.57142857142858" x2="1448" y2="161.57142857142858" fill="rgb(0, 0, 0)" stroke="rgb(66, 66, 66)" stroke-width="1px" opacity="0.25"></line><line x1="0" y1="134.64285714285714" x2="1448" y2="134.64285714285714" fill="rgb(0, 0, 0)" stroke="rgb(66, 66, 66)" stroke-width="1px" opacity="0.25"></line><line x1="0" y1="107.71428571428575" x2="1448" y2="107.71428571428575" fill="rgb(0, 0, 0)" stroke="rgb(66, 66, 66)" stroke-width="1px" opacity="0.25"></line><line x1="0" y1="80.78571428571429" x2="1448" y2="80.78571428571429" fill="rgb(0, 0, 0)" stroke="rgb(66, 66, 66)" stroke-width="1px" opacity="0.25"></line><line x1="0" y1="53.85714285714292" x2="1448" y2="53.85714285714292" fill="rgb(0, 0, 0)" stroke="rgb(66, 66, 66)" stroke-width="1px" opacity="0.25"></line><line x1="0" y1="26.92857142857146" x2="1448" y2="26.92857142857146" fill="rgb(0, 0, 0)" stroke="rgb(66, 66, 66)" stroke-width="1px" opacity="0.25"></line><line x1="0" y1="0" x2="1448" y2="0" fill="rgb(0, 0, 0)" stroke="rgb(66, 66, 66)" stroke-width="1px" opacity="0.25"></line></g></g></g><g><g><line x1="0" y1="430.85714285714283" x2="1448" y2="430.85714285714283" fill="rgb(0, 0, 0)" stroke="rgb(153, 153, 153)" stroke-width="1.5px"></line></g></g><g><g><line x1="120.66666666666666" y1="0" x2="120.66666666666666" y2="377" fill="rgb(0, 0, 0)" stroke="rgb(153, 153, 153)" stroke-width="1.5px"></line></g></g><g><g><g><g><g><path stroke="rgb(51, 187, 238)" stroke-width="2px" d="M193.06666666666666,395.6933227319138L217.2,375.96142600156105L241.33333333333331,358.0832532885017L265.46666666666664,342.0488082591609L289.6,327.22550466180326L313.73333333333335,312.38981354535053L337.8666666666667,294.07510755968497L362,282.5332528609553L386.1333333333333,260.32071514679984L410.26666666666665,248.1905185601864L434.4,228.9045704939686L458.5333333333333,213.33999794459427L482.66666666666663,198.67837161228525L506.79999999999995,183.33470709603324L530.9333333333333,171.25918306455392L555.0666666666667,158.52507661865275L579.2,152.3578580046379L603.3333333333334,143.13377929841928L627.4666666666667,134.06284686486364L651.6,129.93062322060447L675.7333333333333,120.86116508714501L699.8666666666667,112.33829213871341L724,109.78766345137328L748.1333333333334,101.78150098897038L772.2666666666667,93.8346472317873L796.4000000000001,87.7954393933276L820.5333333333333,82.14040044161636L844.6666666666667,79.96595844861447L868.8,76.07121436649248L892.9333333333334,73.37809437934436L917.0666666666666,72.06724958833603L941.2,70.73519939833302L965.3333333333333,68.5321255069864L989.4666666666667,65.86681363630372L1013.5999999999999,62.69526344853304L1037.7333333333333,60.29377356081365L1061.8666666666666,60.7401570329197L1086,56.60813636911496L1110.1333333333334,56.227030256060715L1134.2666666666667,55.76208774780372L1158.4,52.33011395168959L1182.5333333333333,48.82975843685125L1206.6666666666667,48.33286674867734L1230.8,48.55522316554994L1254.9333333333334,48.02393344215382L1279.0666666666666,46.0615315217391L1303.2,44.10689079462163L1327.3333333333333,42.30629366626103L1351.4666666666667,42.865069285401496" style="fill: none;" fill="none"></path></g><g><path stroke="rgb(187, 187, 187)" stroke-width="2px" d="M120.66666666666666,385.45094670781066L144.8,358.39482564665377L168.93333333333334,319.7199851935268L193.06666666666666,288.4281857703272L217.2,250.48741596066338L241.33333333333331,224.1554457885407L265.46666666666664,195.61028208177675L289.6,167.80680655691233L313.73333333333335,150.78427557917857L337.8666666666667,135.58990796825947L362,124.16660564327059L386.1333333333333,113.67115282454319L410.26666666666665,107.61860392616867L434.4,102.81477740497644L458.5333333333333,99.29353904493563L482.66666666666663,97.10792490830657L506.79999999999995,92.7630903106819L530.9333333333333,87.94309815003007L555.0666666666667,87.7331344739837L579.2,86.27049205374126L603.3333333333334,88.5067125211023L627.4666666666667,81.67482480158208L651.6,76.5232662630405L675.7333333333333,71.39149720830626L699.8666666666667,68.89904755318246L724,67.40359513578927L748.1333333333334,63.3842852227578L772.2666666666667,60.58421102633449L796.4000000000001,60.62206603175666L820.5333333333333,57.287605351956095L844.6666666666667,53.58275794096638L868.8,52.07152414705459L892.9333333333334,50.598028012743L917.0666666666666,49.58178834050628L941.2,49.589302331771L965.3333333333333,47.20930893809989L989.4666666666667,47.9198926059725L1013.5999999999999,45.32872791672007L1037.7333333333333,44.2751313195341L1061.8666666666666,44.49746016991897L1086,42.20479087503452L1110.1333333333334,40.05735707120226L1134.2666666666667,40.21053028694632L1158.4,38.59979099189825L1182.5333333333333,36.66214006871207L1206.6666666666667,37.08801462662454L1230.8,36.2097322130604L1254.9333333333334,34.11030981102407L1279.0666666666666,30.02740607606271L1303.2,28.814619069113714L1327.3333333333333,28.42031305463641L1351.4666666666667,27.65276013273687L1375.6,27.21400594133133" style="fill: none;" fill="none"></path></g></g></g></g><g opacity="0.2"><g><g><g><path stroke="rgb(51, 187, 238)" stroke-width="2px" d="M193.06666666666666,379.1653722716229L217.2,350.19946163041254L241.33333333333331,333.3513042841639L265.46666666666664,319.1192953160831L289.6,305.6129857131413L313.73333333333335,290.51005083322525L337.8666666666667,266.8799036400659L362,265.3251545854977L386.1333333333333,227.12278822490148L410.26666666666665,230.03483087675914L434.4,200.0134315746171L458.5333333333333,190.0114346912929L482.66666666666663,176.69627262864793L506.79999999999995,160.32570324625289L530.9333333333333,153.14896299157823L555.0666666666667,139.42585686274938L579.2,143.10759379182542L603.3333333333334,129.29816710948944L627.4666666666667,120.45674669742584L651.6,123.73236933776312L675.7333333333333,107.25708532333374L699.8666666666667,99.55404329299927L724,105.96173129762921L748.1333333333334,89.77227778094158L772.2666666666667,81.91437879630499L796.4000000000001,78.73663319860187L820.5333333333333,73.65784513950348L844.6666666666667,76.70429618018017L868.8,70.2290990182332L892.9333333333334,69.33841472012658L917.0666666666666,70.10098249571666L941.2,68.73712417057585L965.3333333333333,65.22751472677507L989.4666666666667,61.868845871516655L1013.5999999999999,57.93793819631853L1037.7333333333333,56.691538742610405L1061.8666666666666,61.40973223958697L1086,50.41010538169317L1110.1333333333334,55.65537108693805L1134.2666666666667,55.06467398575377L1158.4,47.18215325900488L1182.5333333333333,43.5792251655034L1206.6666666666667,47.58752921649389L1230.8,48.888757790838L1254.9333333333334,47.22699885708947L1279.0666666666666,43.11792864118304L1303.2,41.17492970398497L1327.3333333333333,39.605397973741816L1351.4666666666667,43.70323271410808" style="fill: none;" fill="none"></path></g><g><path stroke="rgb(187, 187, 187)" stroke-width="2px" d="M120.66666666666666,385.45094670781066L144.8,342.16115300995966L168.93333333333334,282.5921383585249L193.06666666666666,251.62902964864458L217.2,200.95194689716615L241.33333333333331,187.72885153123312L265.46666666666664,154.79024125848497L289.6,127.26907232829504L313.73333333333335,125.67934884343829L337.8666666666667,113.02804287842345L362,107.13526066711974L386.1333333333333,97.98508938721251L410.26666666666665,98.5595432009016L434.4,95.61844881943297L458.5333333333333,94.01582058838439L482.66666666666663,93.83104516778674L506.79999999999995,86.24767700263433L530.9333333333333,80.71433370453973L555.0666666666667,87.41822094576702L579.2,84.07666211468835L603.3333333333334,91.86092058249884L627.4666666666667,71.42721802847728L651.6,68.79603016376495L675.7333333333333,63.69390441690173L699.8666666666667,65.16039078576226L724,65.16042288712096L748.1333333333334,57.355330637523124L772.2666666666667,56.3841040304729L796.4000000000001,60.67884850502014L820.5333333333333,52.28591617516112L844.6666666666667,48.02548805304937L868.8,49.804673756871935L892.9333333333334,48.387783987181564L917.0666666666666,48.05742890494213L941.2,49.60057331834521L965.3333333333333,43.639318908963915L989.4666666666667,48.985768096787595L1013.5999999999999,41.44198090689525L1037.7333333333333,42.69473642962322L1061.8666666666666,44.830953444753405L1086,38.765786937304924L1110.1333333333334,36.83620636803765L1134.2666666666667,40.44029011045184L1158.4,36.18368205002379L1182.5333333333333,33.75566368443627L1206.6666666666667,37.726826463426875L1230.8,34.892308592796326L1254.9333333333334,30.961176208087394L1279.0666666666666,23.90305047375817L1303.2,26.995438558714767L1327.3333333333333,27.82885403292522L1351.4666666666667,26.50143074989323L1375.6,26.555874654224965" style="fill: none;" fill="none"></path></g></g></g></g></g></g><g transform="translate(50, 377)" clip-path="url(#clip_1)"><clipPath id="clip_1"><rect width="1448" height="23"></rect></clipPath><g><g><line x1="0" y1="0" x2="0" y2="5" style="visibility: inherit;" fill="rgb(0, 0, 0)" stroke="rgb(204, 204, 204)" stroke-width="1px"></line><line x1="120.66666666666666" y1="0" x2="120.66666666666666" y2="5" style="visibility: inherit;" fill="rgb(0, 0, 0)" stroke="rgb(204, 204, 204)" stroke-width="1px"></line><line x1="241.33333333333331" y1="0" x2="241.33333333333331" y2="5" style="visibility: inherit;" fill="rgb(0, 0, 0)" stroke="rgb(204, 204, 204)" stroke-width="1px"></line><line x1="362" y1="0" x2="362" y2="5" style="visibility: inherit;" fill="rgb(0, 0, 0)" stroke="rgb(204, 204, 204)" stroke-width="1px"></line><line x1="482.66666666666663" y1="0" x2="482.66666666666663" y2="5" style="visibility: inherit;" fill="rgb(0, 0, 0)" stroke="rgb(204, 204, 204)" stroke-width="1px"></line><line x1="603.3333333333334" y1="0" x2="603.3333333333334" y2="5" style="visibility: inherit;" fill="rgb(0, 0, 0)" stroke="rgb(204, 204, 204)" stroke-width="1px"></line><line x1="724" y1="0" x2="724" y2="5" style="visibility: inherit;" fill="rgb(0, 0, 0)" stroke="rgb(204, 204, 204)" stroke-width="1px"></line><line x1="844.6666666666667" y1="0" x2="844.6666666666667" y2="5" style="visibility: inherit;" fill="rgb(0, 0, 0)" stroke="rgb(204, 204, 204)" stroke-width="1px"></line><line x1="965.3333333333333" y1="0" x2="965.3333333333333" y2="5" style="visibility: inherit;" fill="rgb(0, 0, 0)" stroke="rgb(204, 204, 204)" stroke-width="1px"></line><line x1="1086" y1="0" x2="1086" y2="5" style="visibility: inherit;" fill="rgb(0, 0, 0)" stroke="rgb(204, 204, 204)" stroke-width="1px"></line><line x1="1206.6666666666667" y1="0" x2="1206.6666666666667" y2="5" style="visibility: inherit;" fill="rgb(0, 0, 0)" stroke="rgb(204, 204, 204)" stroke-width="1px"></line><line x1="1327.3333333333333" y1="0" x2="1327.3333333333333" y2="5" style="visibility: inherit;" fill="rgb(0, 0, 0)" stroke="rgb(204, 204, 204)" stroke-width="1px"></line><line x1="1448" y1="0" x2="1448" y2="5" style="visibility: inherit;" fill="rgb(0, 0, 0)" stroke="rgb(204, 204, 204)" stroke-width="1px"></line></g><g transform="translate(0, 8)"><text x="0" y="0" dx="0em" dy="0.95em" style="text-anchor: middle; visibility: hidden; font-family: Roboto, sans-serif; font-size: 12px; font-weight: 200;" fill="rgb(33, 33, 33)" stroke="none" stroke-width="1px">-5</text><text x="120.66666666666666" y="0" dx="0em" dy="0.95em" style="text-anchor: middle; visibility: inherit; font-family: Roboto, sans-serif; font-size: 12px; font-weight: 200;" fill="rgb(33, 33, 33)" stroke="none" stroke-width="1px">0</text><text x="241.33333333333331" y="0" dx="0em" dy="0.95em" style="text-anchor: middle; visibility: inherit; font-family: Roboto, sans-serif; font-size: 12px; font-weight: 200;" fill="rgb(33, 33, 33)" stroke="none" stroke-width="1px">5</text><text x="362" y="0" dx="0em" dy="0.95em" style="text-anchor: middle; visibility: inherit; font-family: Roboto, sans-serif; font-size: 12px; font-weight: 200;" fill="rgb(33, 33, 33)" stroke="none" stroke-width="1px">10</text><text x="482.66666666666663" y="0" dx="0em" dy="0.95em" style="text-anchor: middle; visibility: inherit; font-family: Roboto, sans-serif; font-size: 12px; font-weight: 200;" fill="rgb(33, 33, 33)" stroke="none" stroke-width="1px">15</text><text x="603.3333333333334" y="0" dx="0em" dy="0.95em" style="text-anchor: middle; visibility: inherit; font-family: Roboto, sans-serif; font-size: 12px; font-weight: 200;" fill="rgb(33, 33, 33)" stroke="none" stroke-width="1px">20</text><text x="724" y="0" dx="0em" dy="0.95em" style="text-anchor: middle; visibility: inherit; font-family: Roboto, sans-serif; font-size: 12px; font-weight: 200;" fill="rgb(33, 33, 33)" stroke="none" stroke-width="1px">25</text><text x="844.6666666666667" y="0" dx="0em" dy="0.95em" style="text-anchor: middle; visibility: inherit; font-family: Roboto, sans-serif; font-size: 12px; font-weight: 200;" fill="rgb(33, 33, 33)" stroke="none" stroke-width="1px">30</text><text x="965.3333333333333" y="0" dx="0em" dy="0.95em" style="text-anchor: middle; visibility: inherit; font-family: Roboto, sans-serif; font-size: 12px; font-weight: 200;" fill="rgb(33, 33, 33)" stroke="none" stroke-width="1px">35</text><text x="1086" y="0" dx="0em" dy="0.95em" style="text-anchor: middle; visibility: inherit; font-family: Roboto, sans-serif; font-size: 12px; font-weight: 200;" fill="rgb(33, 33, 33)" stroke="none" stroke-width="1px">40</text><text x="1206.6666666666667" y="0" dx="0em" dy="0.95em" style="text-anchor: middle; visibility: inherit; font-family: Roboto, sans-serif; font-size: 12px; font-weight: 200;" fill="rgb(33, 33, 33)" stroke="none" stroke-width="1px">45</text><text x="1327.3333333333333" y="0" dx="0em" dy="0.95em" style="text-anchor: middle; visibility: inherit; font-family: Roboto, sans-serif; font-size: 12px; font-weight: 200;" fill="rgb(33, 33, 33)" stroke="none" stroke-width="1px">50</text><text x="1448" y="0" dx="0em" dy="0.95em" style="text-anchor: middle; visibility: hidden; font-family: Roboto, sans-serif; font-size: 12px; font-weight: 200;" fill="rgb(33, 33, 33)" stroke="none" stroke-width="1px">55</text></g><line x1="0" y1="0" x2="1448" y2="0" fill="rgb(0, 0, 0)" stroke="rgb(204, 204, 204)" stroke-width="1px"></line></g></g></g></g></svg>