<svg viewBox="0 0 1498 400" xmlns="http://www.w3.org/2000/svg"><g><g><g><g><g><line x1="51.5625" y1="377" x2="46.5625" y2="377" style="visibility: inherit;" fill="rgb(0, 0, 0)" stroke="rgb(204, 204, 204)" stroke-width="1px"></line><line x1="51.5625" y1="335.1111111111111" x2="46.5625" y2="335.1111111111111" style="visibility: inherit;" fill="rgb(0, 0, 0)" stroke="rgb(204, 204, 204)" stroke-width="1px"></line><line x1="51.5625" y1="293.22222222222223" x2="46.5625" y2="293.22222222222223" style="visibility: inherit;" fill="rgb(0, 0, 0)" stroke="rgb(204, 204, 204)" stroke-width="1px"></line><line x1="51.5625" y1="251.33333333333337" x2="46.5625" y2="251.33333333333337" style="visibility: inherit;" fill="rgb(0, 0, 0)" stroke="rgb(204, 204, 204)" stroke-width="1px"></line><line x1="51.5625" y1="209.44444444444446" x2="46.5625" y2="209.44444444444446" style="visibility: inherit;" fill="rgb(0, 0, 0)" stroke="rgb(204, 204, 204)" stroke-width="1px"></line><line x1="51.5625" y1="167.55555555555554" x2="46.5625" y2="167.55555555555554" style="visibility: inherit;" fill="rgb(0, 0, 0)" stroke="rgb(204, 204, 204)" stroke-width="1px"></line><line x1="51.5625" y1="125.66666666666669" x2="46.5625" y2="125.66666666666669" style="visibility: inherit;" fill="rgb(0, 0, 0)" stroke="rgb(204, 204, 204)" stroke-width="1px"></line><line x1="51.5625" y1="83.77777777777781" x2="46.5625" y2="83.77777777777781" style="visibility: inherit;" fill="rgb(0, 0, 0)" stroke="rgb(204, 204, 204)" stroke-width="1px"></line><line x1="51.5625" y1="41.888888888888864" x2="46.5625" y2="41.888888888888864" style="visibility: inherit;" fill="rgb(0, 0, 0)" stroke="rgb(204, 204, 204)" stroke-width="1px"></line><line x1="51.5625" y1="0" x2="46.5625" y2="0" style="visibility: inherit;" fill="rgb(0, 0, 0)" stroke="rgb(204, 204, 204)" stroke-width="1px"></line></g><g transform="translate(41.5625, 0)"><text x="0" y="377" dx="0em" dy="0.3em" style="text-anchor: end; visibility: hidden; font-family: Roboto, sans-serif; font-size: 12px; font-weight: 200;" fill="rgb(33, 33, 33)" stroke="none" stroke-width="1px">0</text><text x="0" y="335.1111111111111" dx="0em" dy="0.3em" style="text-anchor: end; visibility: inherit; font-family: Roboto, sans-serif; font-size: 12px; font-weight: 200;" fill="rgb(33, 33, 33)" stroke="none" stroke-width="1px">0.05</text><text x="0" y="293.22222222222223" dx="0em" dy="0.3em" style="text-anchor: end; visibility: inherit; font-family: Roboto, sans-serif; font-size: 12px; font-weight: 200;" fill="rgb(33, 33, 33)" stroke="none" stroke-width="1px">0.1</text><text x="0" y="251.33333333333337" dx="0em" dy="0.3em" style="text-anchor: end; visibility: inherit; font-family: Roboto, sans-serif; font-size: 12px; font-weight: 200;" fill="rgb(33, 33, 33)" stroke="none" stroke-width="1px">0.15</text><text x="0" y="209.44444444444446" dx="0em" dy="0.3em" style="text-anchor: end; visibility: inherit; font-family: Roboto, sans-serif; font-size: 12px; font-weight: 200;" fill="rgb(33, 33, 33)" stroke="none" stroke-width="1px">0.2</text><text x="0" y="167.55555555555554" dx="0em" dy="0.3em" style="text-anchor: end; visibility: inherit; font-family: Roboto, sans-serif; font-size: 12px; font-weight: 200;" fill="rgb(33, 33, 33)" stroke="none" stroke-width="1px">0.25</text><text x="0" y="125.66666666666669" dx="0em" dy="0.3em" style="text-anchor: end; visibility: inherit; font-family: Roboto, sans-serif; font-size: 12px; font-weight: 200;" fill="rgb(33, 33, 33)" stroke="none" stroke-width="1px">0.3</text><text x="0" y="83.77777777777781" dx="0em" dy="0.3em" style="text-anchor: end; visibility: inherit; font-family: Roboto, sans-serif; font-size: 12px; font-weight: 200;" fill="rgb(33, 33, 33)" stroke="none" stroke-width="1px">0.35</text><text x="0" y="41.888888888888864" dx="0em" dy="0.3em" style="text-anchor: end; visibility: inherit; font-family: Roboto, sans-serif; font-size: 12px; font-weight: 200;" fill="rgb(33, 33, 33)" stroke="none" stroke-width="1px">0.4</text><text x="0" y="0" dx="0em" dy="0.3em" style="text-anchor: end; visibility: hidden; font-family: Roboto, sans-serif; font-size: 12px; font-weight: 200;" fill="rgb(33, 33, 33)" stroke="none" stroke-width="1px">0.45</text></g><line x1="51.5625" y1="0" x2="51.5625" y2="377" fill="rgb(0, 0, 0)" stroke="rgb(204, 204, 204)" stroke-width="1px"></line></g></g><g transform="translate(51, 0)" clip-path="url(#clip_0)"><clipPath id="clip_0"><rect width="1446" height="377"></rect></clipPath><g><g><g><line x1="0" y1="0" x2="0" y2="377" fill="rgb(0, 0, 0)" stroke="rgb(66, 66, 66)" stroke-width="1px" opacity="0.25"></line><line x1="160.71527777777777" y1="0" x2="160.71527777777777" y2="377" fill="rgb(0, 0, 0)" stroke="rgb(66, 66, 66)" stroke-width="1px" opacity="0.25"></line><line x1="321.43055555555554" y1="0" x2="321.43055555555554" y2="377" fill="rgb(0, 0, 0)" stroke="rgb(66, 66, 66)" stroke-width="1px" opacity="0.25"></line><line x1="482.1458333333333" y1="0" x2="482.1458333333333" y2="377" fill="rgb(0, 0, 0)" stroke="rgb(66, 66, 66)" stroke-width="1px" opacity="0.25"></line><line x1="642.8611111111111" y1="0" x2="642.8611111111111" y2="377" fill="rgb(0, 0, 0)" stroke="rgb(66, 66, 66)" stroke-width="1px" opacity="0.25"></line><line x1="803.5763888888889" y1="0" x2="803.5763888888889" y2="377" fill="rgb(0, 0, 0)" stroke="rgb(66, 66, 66)" stroke-width="1px" opacity="0.25"></line><line x1="964.2916666666666" y1="0" x2="964.2916666666666" y2="377" fill="rgb(0, 0, 0)" stroke="rgb(66, 66, 66)" stroke-width="1px" opacity="0.25"></line><line x1="1125.0069444444446" y1="0" x2="1125.0069444444446" y2="377" fill="rgb(0, 0, 0)" stroke="rgb(66, 66, 66)" stroke-width="1px" opacity="0.25"></line><line x1="1285.7222222222222" y1="0" x2="1285.7222222222222" y2="377" fill="rgb(0, 0, 0)" stroke="rgb(66, 66, 66)" stroke-width="1px" opacity="0.25"></line><line x1="1446.4375" y1="0" x2="1446.4375" y2="377" fill="rgb(0, 0, 0)" stroke="rgb(66, 66, 66)" stroke-width="1px" opacity="0.25"></line></g><g><line x1="0" y1="377" x2="1446.4375" y2="377" fill="rgb(0, 0, 0)" stroke="rgb(66, 66, 66)" stroke-width="1px" opacity="0.25"></line><line x1="0" y1="335.1111111111111" x2="1446.4375" y2="335.1111111111111" fill="rgb(0, 0, 0)" stroke="rgb(66, 66, 66)" stroke-width="1px" opacity="0.25"></line><line x1="0" y1="293.22222222222223" x2="1446.4375" y2="293.22222222222223" fill="rgb(0, 0, 0)" stroke="rgb(66, 66, 66)" stroke-width="1px" opacity="0.25"></line><line x1="0" y1="251.33333333333337" x2="1446.4375" y2="251.33333333333337" fill="rgb(0, 0, 0)" stroke="rgb(66, 66, 66)" stroke-width="1px" opacity="0.25"></line><line x1="0" y1="209.44444444444446" x2="1446.4375" y2="209.44444444444446" fill="rgb(0, 0, 0)" stroke="rgb(66, 66, 66)" stroke-width="1px" opacity="0.25"></line><line x1="0" y1="167.55555555555554" x2="1446.4375" y2="167.55555555555554" fill="rgb(0, 0, 0)" stroke="rgb(66, 66, 66)" stroke-width="1px" opacity="0.25"></line><line x1="0" y1="125.66666666666669" x2="1446.4375" y2="125.66666666666669" fill="rgb(0, 0, 0)" stroke="rgb(66, 66, 66)" stroke-width="1px" opacity="0.25"></line><line x1="0" y1="83.77777777777781" x2="1446.4375" y2="83.77777777777781" fill="rgb(0, 0, 0)" stroke="rgb(66, 66, 66)" stroke-width="1px" opacity="0.25"></line><line x1="0" y1="41.888888888888864" x2="1446.4375" y2="41.888888888888864" fill="rgb(0, 0, 0)" stroke="rgb(66, 66, 66)" stroke-width="1px" opacity="0.25"></line><line x1="0" y1="0" x2="1446.4375" y2="0" fill="rgb(0, 0, 0)" stroke="rgb(66, 66, 66)" stroke-width="1px" opacity="0.25"></line></g></g></g><g><g><line x1="0" y1="377" x2="1446.4375" y2="377" fill="rgb(0, 0, 0)" stroke="rgb(153, 153, 153)" stroke-width="1.5px"></line></g></g><g><g><line x1="160.71527777777777" y1="0" x2="160.71527777777777" y2="377" fill="rgb(0, 0, 0)" stroke="rgb(153, 153, 153)" stroke-width="1.5px"></line></g></g><g><g><g><g><g><path stroke="rgb(238, 51, 119)" stroke-width="2px" d="M160.71527777777777,372.2367938775569L168.75104166666668,372.5646383730022L176.78680555555556,370.16394521516924L184.82256944444444,363.9766168130502L192.85833333333332,356.7821743185036L200.89409722222223,350.93192348790484L208.92986111111108,345.8589112967103L216.965625,340.45041062734515L225.0013888888889,335.74748838663305L233.0371527777778,329.3655655947423L241.07291666666666,323.5202982743774L249.10868055555557,317.0568507349078L257.14444444444445,310.1852833639917L265.1802083333333,305.83797319996756L273.2159722222222,301.4106228076182L281.25173611111114,297.92515412723986L289.2875,295.4130856853752L297.3232638888889,292.14574096134186L305.3590277777778,286.9991237841031L313.39479166666666,282.1187059852356L321.43055555555554,276.54983276787664L329.4663194444444,271.3896095014938L337.50208333333336,265.18364465366716L345.53784722222224,263.9732352210695L353.5736111111111,257.7734185162304L361.609375,252.2938465804252L369.6451388888889,249.01516770045208L377.6809027777778,247.00355489996522L385.71666666666664,244.0181513962452L393.7524305555555,239.9924330834088L401.78819444444446,238.72579274007194L409.82395833333334,237.75121603524687L417.85972222222216,234.294787241237L425.8954861111111,231.95067443085009L433.93125,227.09385211244003L441.9670138888889,225.2997908849397L450.0027777777778,219.52847335429234L458.0385416666666,216.90668067701756L466.0743055555556,215.10873577214915L474.11006944444443,211.90482606920392L482.1458333333333,207.98991110666194L490.18159722222225,203.26802470237763L498.21736111111113,196.6253525751569L506.25312499999995,194.92951424781006L514.2888888888889,193.3933517393341L522.3246527777777,191.9052314672061L530.3604166666667,189.92010629446958L538.3961805555556,186.54265758615756L546.4319444444444,181.239144700693L554.4677083333333,180.1104973952773L562.5034722222223,178.01678020428082L570.5392361111111,175.08704328538397L578.575,172.61895429293727L586.6107638888889,171.16440189732543L594.6465277777778,170.5658210566841L602.6822916666667,168.3936263353341L610.7180555555556,165.80247432838763L618.7538194444444,164.6907105377368L626.7895833333333,161.15218430214077L634.8253472222223,158.45514049601312L642.8611111111111,156.1903300724067L650.896875,151.99918516990036L658.9326388888888,149.5399165873053L666.9684027777778,144.59514020362758L675.0041666666667,142.28114039256397L683.0399305555555,139.50932888652747L691.0756944444445,135.70861536144736L699.1114583333333,136.58879143192752L707.1472222222222,136.73142538583906L715.1829861111112,135.26059777673723L723.21875,133.26166446489086L731.2545138888888,128.3682499006973L739.2902777777778,128.34218932708282L747.3260416666667,125.44757473050335L755.3618055555556,123.2073567974627L763.3975694444445,123.64973655814951L771.4333333333333,121.24671400604994L779.4690972222222,117.37133642114877L787.504861111111,114.96774117992928L795.5406250000001,113.86922979329657L803.5763888888889,111.19151248386946L811.6121527777777,107.56052904437846L819.6479166666667,103.883575962648L827.6836805555555,103.46416431135515L835.7194444444443,103.97833732048619L843.7552083333334,103.0633727428115L851.7909722222222,101.79663187034373L859.8267361111111,99.21620061921215L867.8625,95.27150981316578L875.8982638888888,94.3276158744802L883.9340277777778,93.08639196006713L891.9697916666668,91.54193144310466L900.0055555555556,87.12363885735184L908.0413194444444,86.7848442753503L916.0770833333332,86.08788572445937L924.1128472222222,85.64322483291812L932.1486111111112,84.73547687646766L940.184375,83.86111433416816L948.2201388888889,81.12704304058813L956.2559027777778,79.49819527519753L964.2916666666666,78.29319096543863L972.3274305555557,76.50369706713242L980.3631944444445,75.51288358282234L988.3989583333333,74.86544394440166L996.4347222222223,72.68495676750638L1004.4704861111111,71.58898998135479L1012.5062499999999,70.2568219711432L1020.542013888889,68.51462008350714L1028.5777777777778,67.33169683359907L1036.6135416666666,65.69834684589544L1044.6493055555554,64.06977526964833L1052.6850694444445,62.72790382014302L1060.7208333333333,61.70484268622883L1068.7565972222224,60.30469249858828L1076.7923611111112,60.15552920273233L1084.828125,60.08308917386106L1092.8638888888888,60.087732966028945L1100.8996527777776,60.31093430370417L1108.9354166666667,59.74105493138432L1116.9711805555555,58.40237584060551L1125.0069444444446,56.37643904759826L1133.0427083333334,53.90835614566605L1141.0784722222222,51.823597097450744L1149.114236111111,48.22319899774181L1157.15,45.30728702080866L1165.185763888889,42.181998299885876L1173.2215277777777,40.40585704551548L1181.2572916666666,39.32616040650852L1189.2930555555556,38.186478271679505L1197.3288194444444,37.745854616917995L1205.3645833333335,37.36962502312796L1213.4003472222223,37.33470059633866L1221.4361111111111,37.09965270546119L1229.471875,36.35929873789903L1237.5076388888888,35.41814876453744L1245.5434027777778,34.12749725428555L1253.5791666666667,33.194501381864825L1261.6149305555555,32.480063766622294L1269.6506944444445,31.680241008166096L1277.6864583333333,30.590335934431884L1285.7222222222222,28.762899902240694L1293.7579861111112,26.869318744936642L1301.79375,24.74131225695814L1309.8295138888889,22.732944080800156L1317.8652777777777,22.457771130809085L1325.9010416666665,21.759856142976545L1333.9368055555556,21.48696859051176L1341.9725694444444,20.99849586110945L1350.0083333333334,20.1892594706977L1358.0440972222223,18.916954710137087L1366.079861111111,18.26129259973512L1374.115625,17.65361234399193L1382.151388888889,16.956324256574213L1390.1871527777778,16.2098555441721L1398.2229166666666,15.508272285489316L1406.2586805555554,14.91304762079005L1414.2944444444445,14.391315602079423" style="fill: none;" fill="none"></path></g></g></g></g><g opacity="0.2"><g><g><g><path stroke="rgb(238, 51, 119)" stroke-width="2px" d="M160.71527777777777,372.2367938775569L168.75104166666668,372.7613450702694L176.78680555555556,367.8592797836496L184.82256944444444,356.7003186121583L192.85833333333332,347.38911019762355L200.89409722222223,342.8389204988877L208.92986111111108,338.6044226951069L216.965625,332.56476472980444L225.0013888888889,328.8115915771988L233.0371527777778,319.8891540235943L241.07291666666666,314.8054134382142L249.10868055555557,307.39685322178735L257.14444444444445,299.9003691673279L265.1802083333333,299.3255247871081L273.2159722222222,294.7748014032841L281.25173611111114,292.69940932922896L289.2875,291.6460460457537L297.3232638888889,287.24555345376336L305.3590277777778,279.2799820535713L313.39479166666666,274.79852537645235L321.43055555555554,268.19682835208044L329.4663194444444,263.6494444012642L337.50208333333336,255.87481990787717L345.53784722222224,262.15763541062677L353.5736111111111,248.4737375246154L361.609375,244.0745120445887L369.6451388888889,244.09715776973303L377.6809027777778,243.98613878753451L385.71666666666664,239.54004889064367L393.7524305555555,233.9538578391075L401.78819444444446,236.82583264509833L409.82395833333334,236.28935117191736L417.85972222222216,229.11014446285037L425.8954861111111,228.43450538317364L433.93125,219.80861884355545L441.9670138888889,222.60869908995096L450.0027777777778,210.87149714761313L458.0385416666666,212.97399168544348L466.0743055555556,212.41181842486066L474.11006944444443,207.09896152549322L482.1458333333333,202.11753867069882L490.18159722222225,196.18519510163202L498.21736111111113,186.66134438912076L506.25312499999995,192.3857567575243L514.2888888888889,191.0891079770194L522.3246527777777,189.67305105924606L530.3604166666667,186.94241853555042L538.3961805555556,181.47648452387915L546.4319444444444,173.28387537267474L554.4677083333333,178.4175264371766L562.5034722222223,174.8762044178115L570.5392361111111,170.69243790705997L578.575,168.91682080427807L586.6107638888889,168.9825733039114L594.6465277777778,169.66794979572296L602.6822916666667,165.13533425331116L610.7180555555556,161.91574631796942L618.7538194444444,163.02306485176086L626.7895833333333,155.84439494874744L634.8253472222223,154.40957478682202L642.8611111111111,152.7931144369973L650.896875,145.71246781614093L658.9326388888888,145.85101371341284L666.9684027777778,137.17797562811108L675.0041666666667,138.81014067596863L683.0399305555555,135.35161162747278L691.0756944444445,130.0075450738271L699.1114583333333,137.9090555376477L707.1472222222222,136.94537631670636L715.1829861111112,133.0543563630846L723.21875,130.26326449712116L731.2545138888888,121.02812805440692L739.2902777777778,128.30309846666125L747.3260416666667,121.10565283563403L755.3618055555556,119.84702989790173L763.3975694444445,124.31330619917975L771.4333333333333,117.64218017790051L779.4690972222222,111.55827004379698L787.504861111111,111.36234831809998L795.5406250000001,112.22146271334753L803.5763888888889,107.17493651972876L811.6121527777777,102.11405388514203L819.6479166666667,98.3681463400523L827.6836805555555,102.83504683441588L835.7194444444443,104.74959683418274L843.7552083333334,101.69092587629956L851.7909722222222,99.89652056164213L859.8267361111111,95.34555374251471L867.8625,89.35447360409631L875.8982638888888,92.91177496645184L883.9340277777778,91.22455608844757L891.9697916666668,89.22524066766105L900.0055555555556,80.49619997872247L908.0413194444444,86.276652402348L916.0770833333332,85.04244789812299L924.1128472222222,84.97623349560632L932.1486111111112,83.37385494179198L940.184375,82.54957052071892L948.2201388888889,77.02593610021802L956.2559027777778,77.05492362711163L964.2916666666666,76.48568450080023L972.3274305555557,73.81945621967316L980.3631944444445,74.02666335635718L988.3989583333333,73.89428448677063L996.4347222222223,69.41422600216337L1004.4704861111111,69.94503980212744L1012.5062499999999,68.2585699558258L1020.542013888889,65.90131725205316L1028.5777777777778,65.55731195873686L1036.6135416666666,63.24832186434003L1044.6493055555554,61.6269179052777L1052.6850694444445,60.71509664588506L1060.7208333333333,60.170250985357484L1068.7565972222224,58.204467217127494L1076.7923611111112,59.931784258948426L1084.828125,59.9744291305542L1092.8638888888888,60.09469865428076L1100.8996527777776,60.6457363102171L1108.9354166666667,58.88623587290447L1116.9711805555555,56.394357204437256L1125.0069444444446,53.33753385808734L1133.0427083333334,50.20623179276787L1141.0784722222222,48.69645852512786L1149.114236111111,42.82260184817846L1157.15,40.933419055408926L1165.185763888889,37.49406521850164L1173.2215277777777,37.74164516395995L1181.2572916666666,37.70661544799805L1189.2930555555556,36.476955069435974L1197.3288194444444,37.08491913477581L1205.3645833333335,36.80528063244292L1213.4003472222223,37.282313956154724L1221.4361111111111,36.74708086914489L1229.471875,35.24876778655584L1237.5076388888888,34.00642380449506L1245.5434027777778,32.191519988907714L1253.5791666666667,31.795007573233704L1261.6149305555555,31.408407343758483L1269.6506944444445,30.480506870481694L1277.6864583333333,28.955478323830505L1285.7222222222222,26.02174585395391L1293.7579861111112,24.02894700898065L1301.79375,21.54930252499053L1309.8295138888889,19.7203918165631L1317.8652777777777,22.04501170582244L1325.9010416666665,20.712983661227774L1333.9368055555556,21.077637261814566L1341.9725694444444,20.26578676700592L1350.0083333333334,18.975404885080135L1358.0440972222223,17.008497569296086L1366.079861111111,17.27779943413207L1374.115625,16.742091960377188L1382.151388888889,15.910392125447618L1390.1871527777778,15.090152475568974L1398.2229166666666,14.455897397465199L1406.2586805555554,14.02021062374115L1414.2944444444445,13.608717574013609" style="fill: none;" fill="none"></path></g></g></g></g></g></g><g transform="translate(51, 377)" clip-path="url(#clip_1)"><clipPath id="clip_1"><rect width="1446" height="23"></rect></clipPath><g><g><line x1="0" y1="0" x2="0" y2="5" style="visibility: inherit;" fill="rgb(0, 0, 0)" stroke="rgb(204, 204, 204)" stroke-width="1px"></line><line x1="160.71527777777777" y1="0" x2="160.71527777777777" y2="5" style="visibility: inherit;" fill="rgb(0, 0, 0)" stroke="rgb(204, 204, 204)" stroke-width="1px"></line><line x1="321.43055555555554" y1="0" x2="321.43055555555554" y2="5" style="visibility: inherit;" fill="rgb(0, 0, 0)" stroke="rgb(204, 204, 204)" stroke-width="1px"></line><line x1="482.1458333333333" y1="0" x2="482.1458333333333" y2="5" style="visibility: inherit;" fill="rgb(0, 0, 0)" stroke="rgb(204, 204, 204)" stroke-width="1px"></line><line x1="642.8611111111111" y1="0" x2="642.8611111111111" y2="5" style="visibility: inherit;" fill="rgb(0, 0, 0)" stroke="rgb(204, 204, 204)" stroke-width="1px"></line><line x1="803.5763888888889" y1="0" x2="803.5763888888889" y2="5" style="visibility: inherit;" fill="rgb(0, 0, 0)" stroke="rgb(204, 204, 204)" stroke-width="1px"></line><line x1="964.2916666666666" y1="0" x2="964.2916666666666" y2="5" style="visibility: inherit;" fill="rgb(0, 0, 0)" stroke="rgb(204, 204, 204)" stroke-width="1px"></line><line x1="1125.0069444444446" y1="0" x2="1125.0069444444446" y2="5" style="visibility: inherit;" fill="rgb(0, 0, 0)" stroke="rgb(204, 204, 204)" stroke-width="1px"></line><line x1="1285.7222222222222" y1="0" x2="1285.7222222222222" y2="5" style="visibility: inherit;" fill="rgb(0, 0, 0)" stroke="rgb(204, 204, 204)" stroke-width="1px"></line><line x1="1446.4375" y1="0" x2="1446.4375" y2="5" style="visibility: inherit;" fill="rgb(0, 0, 0)" stroke="rgb(204, 204, 204)" stroke-width="1px"></line></g><g transform="translate(0, 8)"><text x="0" y="0" dx="0em" dy="0.95em" style="text-anchor: middle; visibility: hidden; font-family: Roboto, sans-serif; font-size: 12px; font-weight: 200;" fill="rgb(33, 33, 33)" stroke="none" stroke-width="1px">-20</text><text x="160.71527777777777" y="0" dx="0em" dy="0.95em" style="text-anchor: middle; visibility: inherit; font-family: Roboto, sans-serif; font-size: 12px; font-weight: 200;" fill="rgb(33, 33, 33)" stroke="none" stroke-width="1px">0</text><text x="321.43055555555554" y="0" dx="0em" dy="0.95em" style="text-anchor: middle; visibility: inherit; font-family: Roboto, sans-serif; font-size: 12px; font-weight: 200;" fill="rgb(33, 33, 33)" stroke="none" stroke-width="1px">20</text><text x="482.1458333333333" y="0" dx="0em" dy="0.95em" style="text-anchor: middle; visibility: inherit; font-family: Roboto, sans-serif; font-size: 12px; font-weight: 200;" fill="rgb(33, 33, 33)" stroke="none" stroke-width="1px">40</text><text x="642.8611111111111" y="0" dx="0em" dy="0.95em" style="text-anchor: middle; visibility: inherit; font-family: Roboto, sans-serif; font-size: 12px; font-weight: 200;" fill="rgb(33, 33, 33)" stroke="none" stroke-width="1px">60</text><text x="803.5763888888889" y="0" dx="0em" dy="0.95em" style="text-anchor: middle; visibility: inherit; font-family: Roboto, sans-serif; font-size: 12px; font-weight: 200;" fill="rgb(33, 33, 33)" stroke="none" stroke-width="1px">80</text><text x="964.2916666666666" y="0" dx="0em" dy="0.95em" style="text-anchor: middle; visibility: inherit; font-family: Roboto, sans-serif; font-size: 12px; font-weight: 200;" fill="rgb(33, 33, 33)" stroke="none" stroke-width="1px">100</text><text x="1125.0069444444446" y="0" dx="0em" dy="0.95em" style="text-anchor: middle; visibility: inherit; font-family: Roboto, sans-serif; font-size: 12px; font-weight: 200;" fill="rgb(33, 33, 33)" stroke="none" stroke-width="1px">120</text><text x="1285.7222222222222" y="0" dx="0em" dy="0.95em" style="text-anchor: middle; visibility: inherit; font-family: Roboto, sans-serif; font-size: 12px; font-weight: 200;" fill="rgb(33, 33, 33)" stroke="none" stroke-width="1px">140</text><text x="1446.4375" y="0" dx="0em" dy="0.95em" style="text-anchor: middle; visibility: hidden; font-family: Roboto, sans-serif; font-size: 12px; font-weight: 200;" fill="rgb(33, 33, 33)" stroke="none" stroke-width="1px">160</text></g><line x1="0" y1="0" x2="1446.4375" y2="0" fill="rgb(0, 0, 0)" stroke="rgb(204, 204, 204)" stroke-width="1px"></line></g></g></g></g></svg>