<svg viewBox="0 0 1498 400" xmlns="http://www.w3.org/2000/svg"><g><g><g><g><g><line x1="40" y1="377" x2="35" y2="377" style="visibility: inherit;" fill="rgb(0, 0, 0)" stroke="rgb(204, 204, 204)" stroke-width="1px"></line><line x1="40" y1="329.875" x2="35" y2="329.875" style="visibility: inherit;" fill="rgb(0, 0, 0)" stroke="rgb(204, 204, 204)" stroke-width="1px"></line><line x1="40" y1="282.75" x2="35" y2="282.75" style="visibility: inherit;" fill="rgb(0, 0, 0)" stroke="rgb(204, 204, 204)" stroke-width="1px"></line><line x1="40" y1="235.625" x2="35" y2="235.625" style="visibility: inherit;" fill="rgb(0, 0, 0)" stroke="rgb(204, 204, 204)" stroke-width="1px"></line><line x1="40" y1="188.5" x2="35" y2="188.5" style="visibility: inherit;" fill="rgb(0, 0, 0)" stroke="rgb(204, 204, 204)" stroke-width="1px"></line><line x1="40" y1="141.37500000000003" x2="35" y2="141.37500000000003" style="visibility: inherit;" fill="rgb(0, 0, 0)" stroke="rgb(204, 204, 204)" stroke-width="1px"></line><line x1="40" y1="94.24999999999996" x2="35" y2="94.24999999999996" style="visibility: inherit;" fill="rgb(0, 0, 0)" stroke="rgb(204, 204, 204)" stroke-width="1px"></line><line x1="40" y1="47.12500000000004" x2="35" y2="47.12500000000004" style="visibility: inherit;" fill="rgb(0, 0, 0)" stroke="rgb(204, 204, 204)" stroke-width="1px"></line><line x1="40" y1="0" x2="35" y2="0" style="visibility: inherit;" fill="rgb(0, 0, 0)" stroke="rgb(204, 204, 204)" stroke-width="1px"></line></g><g transform="translate(30, 0)"><text x="0" y="377" dx="0em" dy="0.3em" style="text-anchor: end; visibility: hidden; font-family: Roboto, sans-serif; font-size: 12px; font-weight: 200;" fill="rgb(33, 33, 33)" stroke="none" stroke-width="1px">0.2</text><text x="0" y="329.875" dx="0em" dy="0.3em" style="text-anchor: end; visibility: inherit; font-family: Roboto, sans-serif; font-size: 12px; font-weight: 200;" fill="rgb(33, 33, 33)" stroke="none" stroke-width="1px">0.3</text><text x="0" y="282.75" dx="0em" dy="0.3em" style="text-anchor: end; visibility: inherit; font-family: Roboto, sans-serif; font-size: 12px; font-weight: 200;" fill="rgb(33, 33, 33)" stroke="none" stroke-width="1px">0.4</text><text x="0" y="235.625" dx="0em" dy="0.3em" style="text-anchor: end; visibility: inherit; font-family: Roboto, sans-serif; font-size: 12px; font-weight: 200;" fill="rgb(33, 33, 33)" stroke="none" stroke-width="1px">0.5</text><text x="0" y="188.5" dx="0em" dy="0.3em" style="text-anchor: end; visibility: inherit; font-family: Roboto, sans-serif; font-size: 12px; font-weight: 200;" fill="rgb(33, 33, 33)" stroke="none" stroke-width="1px">0.6</text><text x="0" y="141.37500000000003" dx="0em" dy="0.3em" style="text-anchor: end; visibility: inherit; font-family: Roboto, sans-serif; font-size: 12px; font-weight: 200;" fill="rgb(33, 33, 33)" stroke="none" stroke-width="1px">0.7</text><text x="0" y="94.24999999999996" dx="0em" dy="0.3em" style="text-anchor: end; visibility: inherit; font-family: Roboto, sans-serif; font-size: 12px; font-weight: 200;" fill="rgb(33, 33, 33)" stroke="none" stroke-width="1px">0.8</text><text x="0" y="47.12500000000004" dx="0em" dy="0.3em" style="text-anchor: end; visibility: inherit; font-family: Roboto, sans-serif; font-size: 12px; font-weight: 200;" fill="rgb(33, 33, 33)" stroke="none" stroke-width="1px">0.9</text><text x="0" y="0" dx="0em" dy="0.3em" style="text-anchor: end; visibility: hidden; font-family: Roboto, sans-serif; font-size: 12px; font-weight: 200;" fill="rgb(33, 33, 33)" stroke="none" stroke-width="1px">1</text></g><line x1="40" y1="0" x2="40" y2="377" fill="rgb(0, 0, 0)" stroke="rgb(204, 204, 204)" stroke-width="1px"></line></g></g><g transform="translate(40, 0)" clip-path="url(#clip_0)"><clipPath id="clip_0"><rect width="1458" height="377"></rect></clipPath><g><g><g><line x1="0" y1="0" x2="0" y2="377" fill="rgb(0, 0, 0)" stroke="rgb(66, 66, 66)" stroke-width="1px" opacity="0.25"></line><line x1="121.5" y1="0" x2="121.5" y2="377" fill="rgb(0, 0, 0)" stroke="rgb(66, 66, 66)" stroke-width="1px" opacity="0.25"></line><line x1="243" y1="0" x2="243" y2="377" fill="rgb(0, 0, 0)" stroke="rgb(66, 66, 66)" stroke-width="1px" opacity="0.25"></line><line x1="364.5" y1="0" x2="364.5" y2="377" fill="rgb(0, 0, 0)" stroke="rgb(66, 66, 66)" stroke-width="1px" opacity="0.25"></line><line x1="486" y1="0" x2="486" y2="377" fill="rgb(0, 0, 0)" stroke="rgb(66, 66, 66)" stroke-width="1px" opacity="0.25"></line><line x1="607.5" y1="0" x2="607.5" y2="377" fill="rgb(0, 0, 0)" stroke="rgb(66, 66, 66)" stroke-width="1px" opacity="0.25"></line><line x1="729" y1="0" x2="729" y2="377" fill="rgb(0, 0, 0)" stroke="rgb(66, 66, 66)" stroke-width="1px" opacity="0.25"></line><line x1="850.5" y1="0" x2="850.5" y2="377" fill="rgb(0, 0, 0)" stroke="rgb(66, 66, 66)" stroke-width="1px" opacity="0.25"></line><line x1="972" y1="0" x2="972" y2="377" fill="rgb(0, 0, 0)" stroke="rgb(66, 66, 66)" stroke-width="1px" opacity="0.25"></line><line x1="1093.5" y1="0" x2="1093.5" y2="377" fill="rgb(0, 0, 0)" stroke="rgb(66, 66, 66)" stroke-width="1px" opacity="0.25"></line><line x1="1215" y1="0" x2="1215" y2="377" fill="rgb(0, 0, 0)" stroke="rgb(66, 66, 66)" stroke-width="1px" opacity="0.25"></line><line x1="1336.5" y1="0" x2="1336.5" y2="377" fill="rgb(0, 0, 0)" stroke="rgb(66, 66, 66)" stroke-width="1px" opacity="0.25"></line><line x1="1458" y1="0" x2="1458" y2="377" fill="rgb(0, 0, 0)" stroke="rgb(66, 66, 66)" stroke-width="1px" opacity="0.25"></line></g><g><line x1="0" y1="377" x2="1458" y2="377" fill="rgb(0, 0, 0)" stroke="rgb(66, 66, 66)" stroke-width="1px" opacity="0.25"></line><line x1="0" y1="329.875" x2="1458" y2="329.875" fill="rgb(0, 0, 0)" stroke="rgb(66, 66, 66)" stroke-width="1px" opacity="0.25"></line><line x1="0" y1="282.75" x2="1458" y2="282.75" fill="rgb(0, 0, 0)" stroke="rgb(66, 66, 66)" stroke-width="1px" opacity="0.25"></line><line x1="0" y1="235.625" x2="1458" y2="235.625" fill="rgb(0, 0, 0)" stroke="rgb(66, 66, 66)" stroke-width="1px" opacity="0.25"></line><line x1="0" y1="188.5" x2="1458" y2="188.5" fill="rgb(0, 0, 0)" stroke="rgb(66, 66, 66)" stroke-width="1px" opacity="0.25"></line><line x1="0" y1="141.37500000000003" x2="1458" y2="141.37500000000003" fill="rgb(0, 0, 0)" stroke="rgb(66, 66, 66)" stroke-width="1px" opacity="0.25"></line><line x1="0" y1="94.24999999999996" x2="1458" y2="94.24999999999996" fill="rgb(0, 0, 0)" stroke="rgb(66, 66, 66)" stroke-width="1px" opacity="0.25"></line><line x1="0" y1="47.12500000000004" x2="1458" y2="47.12500000000004" fill="rgb(0, 0, 0)" stroke="rgb(66, 66, 66)" stroke-width="1px" opacity="0.25"></line><line x1="0" y1="0" x2="1458" y2="0" fill="rgb(0, 0, 0)" stroke="rgb(66, 66, 66)" stroke-width="1px" opacity="0.25"></line></g></g></g><g><g><line x1="0" y1="471.25" x2="1458" y2="471.25" fill="rgb(0, 0, 0)" stroke="rgb(153, 153, 153)" stroke-width="1.5px"></line></g></g><g><g><line x1="121.5" y1="0" x2="121.5" y2="377" fill="rgb(0, 0, 0)" stroke="rgb(153, 153, 153)" stroke-width="1.5px"></line></g></g><g><g><g><g><g><path stroke="rgb(51, 187, 238)" stroke-width="2px" d="M218.7,378.81057262966755L243,356.34644011186975L267.29999999999995,336.3922144998089L291.6,317.90116530187214L315.90000000000003,300.3693096453432L340.2,278.90013716336887L364.5,265.01391476755725L388.8,239.93768910544952L413.09999999999997,223.65511374546318L437.4,200.80034852978437L461.7,180.34284402242133L486,164.14869391435323L510.29999999999995,145.63729535165396L534.5999999999999,133.18787697442545L558.9000000000001,117.72795668934485L583.2,110.53686437856848L607.5,99.2642294462798L631.8000000000001,90.02885724300924L656.1,84.81647556461668L680.4,75.81995849901647L704.7,66.57170083433535L729,63.03432109327448L753.3000000000001,58.01202914105389L777.6,51.85777814344704L801.9000000000001,46.95573057608302L826.1999999999999,44.33599515980713L850.5,42.23027811864338L874.8,38.79527765842536L899.1,37.50771649490009L923.4,35.92758506664467L947.7,34.45119169873444L972,33.30846777883166L996.3000000000001,32.01511779418068L1020.5999999999999,30.18365846782642L1044.9,28.96595648678879L1069.1999999999998,29.96184588656473L1093.5,27.740241413633346L1117.8000000000002,27.025892779078237L1142.1,25.93712076206134L1166.4,25.561137852956048L1190.7,24.240819548165156L1215,23.878486624096336L1239.3,24.88558517145977L1263.6000000000001,24.831703849122885L1287.8999999999999,24.066484986226968L1312.2,23.213965963405105L1336.5,23.495724064757937L1360.8,23.867916323335333" style="fill: none;" fill="none"></path></g><g><path stroke="rgb(187, 187, 187)" stroke-width="2px" d="M121.5,398.15294412896037L145.8,351.4368243259378L170.1,290.1991416935866L194.4,245.7242093090763L218.7,201.3319931919561L243,168.0835227214653L267.29999999999995,136.20074985947986L291.6,104.8491573440298L315.90000000000003,85.83867862473336L340.2,72.88995012037965L364.5,66.19343483435351L388.8,57.2501362578562L413.09999999999997,52.371119808612264L437.4,47.93064475927416L461.7,45.643871850924896L486,43.275549853793734L510.29999999999995,41.257717708645075L534.5999999999999,39.9859075826519L558.9000000000001,40.58955834603424L583.2,38.99133275601144L607.5,38.62037766209951L631.8000000000001,37.114836446206006L656.1,34.59870409031435L680.4,33.211830488079435L704.7,32.04926302194998L729,31.79293129921665L753.3000000000001,31.127401052715683L777.6,30.908030827516214L801.9000000000001,30.530969725005033L826.1999999999999,30.2496343681841L850.5,29.866381643816133L874.8,30.29652551772539L899.1,30.16930240358764L923.4,29.096640245972377L947.7,29.198685318113146L972,29.559427670313966L996.3000000000001,28.97491849398915L1020.5999999999999,27.573257840055888L1044.9,27.67434484169271L1069.1999999999998,28.129362234517533L1093.5,27.7315473666843L1117.8000000000002,28.029790587035745L1142.1,28.166828195377718L1166.4,28.01135303978883L1190.7,28.248615636878643L1215,27.10642127652998L1239.3,27.32420094884279L1263.6000000000001,26.971316355916866L1287.8999999999999,26.360512744450112L1312.2,25.811678809557094L1336.5,26.638520117187817L1360.8,26.236460987080545L1385.1,26.275898923486203" style="fill: none;" fill="none"></path></g></g></g></g><g opacity="0.2"><g><g><g><path stroke="rgb(51, 187, 238)" stroke-width="2px" d="M170.1,412.56233968771994L194.4,376.82819413021207L218.7,342.21677102148533L243,325.27045775204897L267.29999999999995,307.8573526069522L291.6,290.94103805720806L315.90000000000003,274.5132279396057L340.2,247.02091813087463L364.5,244.31052818894386L388.8,202.459814324975L413.09999999999997,199.28441613912582L437.4,166.5629755705595L461.7,149.68063428997993L486,139.86889012157917L510.29999999999995,117.87803091108799L534.5999999999999,114.51691031455994L558.9000000000001,94.5404314249754L583.2,99.75088320672512L607.5,82.35589526593685L631.8000000000001,76.17610283195972L656.1,76.99800595641136L680.4,62.325289472937584L704.7,52.699380069971085L729,57.728266566991806L753.3000000000001,50.478604063391685L777.6,42.626411095261574L801.9000000000001,39.60266374051571L826.1999999999999,40.406393483281136L850.5,39.071703255176544L874.8,33.642777651548386L899.1,35.576374903321266L923.4,33.55738803744316L947.7,32.23660171031952L972,31.59438192844391L996.3000000000001,30.07509283721447L1020.5999999999999,27.43646949529648L1044.9,27.139403522014618L1069.1999999999998,31.45567998290062L1093.5,24.407834708690643L1117.8000000000002,25.954369828104973L1142.1,24.303962737321854L1166.4,24.997163489460945L1190.7,22.260342091321945L1215,23.334987238049507L1239.3,26.39623299241066L1263.6000000000001,24.750881865620613L1287.8999999999999,22.918656691908836L1312.2,21.935187429189682L1336.5,23.918361216783524L1360.8,24.426204711198807" style="fill: none;" fill="none"></path></g><g><path stroke="rgb(187, 187, 187)" stroke-width="2px" d="M121.5,398.15294412896037L145.8,323.4071524441242L170.1,231.41096636652946L194.4,193.42168882489204L218.7,143.37351582944393L243,122.08891861140728L267.29999999999995,90.60787454247475L291.6,59.13823448121548L315.90000000000003,57.80191510915756L340.2,53.6625973880291L364.5,56.20939880609512L388.8,43.88385742902756L413.09999999999997,45.06852596998215L437.4,41.278631538152695L461.7,42.216400504112244L486,39.72473718225956L510.29999999999995,38.23182336986065L534.5999999999999,38.07851530611515L558.9000000000001,41.49494253098965L583.2,36.59414045512676L607.5,38.06396536529064L631.8000000000001,34.85657416284084L656.1,30.82455523312092L680.4,31.13153651356697L704.7,30.305420085787773L729,31.408434808254242L753.3000000000001,30.129107385873795L777.6,30.578975826501846L801.9000000000001,29.965378418564796L826.1999999999999,29.82763148844242L850.5,29.291502684354782L874.8,30.9417412430048L899.1,29.978467747569084L923.4,27.487647086381912L947.7,29.351752921938896L972,30.100541189312935L996.3000000000001,28.098154738545418L1020.5999999999999,25.470766872167587L1044.9,27.825975343585014L1069.1999999999998,28.811888322234154L1093.5,27.134825065732002L1117.8000000000002,28.477155417203903L1142.1,28.3723846077919L1166.4,27.77814030647278L1190.7,28.60450953245163L1215,25.393129736185074L1239.3,27.650870457291603L1263.6000000000001,26.441989466547966L1287.8999999999999,25.444307327270508L1312.2,24.98842790722847L1336.5,27.87878207862377L1360.8,25.63337229192257L1385.1,26.335055828094482" style="fill: none;" fill="none"></path></g></g></g></g></g></g><g transform="translate(40, 377)" clip-path="url(#clip_1)"><clipPath id="clip_1"><rect width="1458" height="23"></rect></clipPath><g><g><line x1="0" y1="0" x2="0" y2="5" style="visibility: inherit;" fill="rgb(0, 0, 0)" stroke="rgb(204, 204, 204)" stroke-width="1px"></line><line x1="121.5" y1="0" x2="121.5" y2="5" style="visibility: inherit;" fill="rgb(0, 0, 0)" stroke="rgb(204, 204, 204)" stroke-width="1px"></line><line x1="243" y1="0" x2="243" y2="5" style="visibility: inherit;" fill="rgb(0, 0, 0)" stroke="rgb(204, 204, 204)" stroke-width="1px"></line><line x1="364.5" y1="0" x2="364.5" y2="5" style="visibility: inherit;" fill="rgb(0, 0, 0)" stroke="rgb(204, 204, 204)" stroke-width="1px"></line><line x1="486" y1="0" x2="486" y2="5" style="visibility: inherit;" fill="rgb(0, 0, 0)" stroke="rgb(204, 204, 204)" stroke-width="1px"></line><line x1="607.5" y1="0" x2="607.5" y2="5" style="visibility: inherit;" fill="rgb(0, 0, 0)" stroke="rgb(204, 204, 204)" stroke-width="1px"></line><line x1="729" y1="0" x2="729" y2="5" style="visibility: inherit;" fill="rgb(0, 0, 0)" stroke="rgb(204, 204, 204)" stroke-width="1px"></line><line x1="850.5" y1="0" x2="850.5" y2="5" style="visibility: inherit;" fill="rgb(0, 0, 0)" stroke="rgb(204, 204, 204)" stroke-width="1px"></line><line x1="972" y1="0" x2="972" y2="5" style="visibility: inherit;" fill="rgb(0, 0, 0)" stroke="rgb(204, 204, 204)" stroke-width="1px"></line><line x1="1093.5" y1="0" x2="1093.5" y2="5" style="visibility: inherit;" fill="rgb(0, 0, 0)" stroke="rgb(204, 204, 204)" stroke-width="1px"></line><line x1="1215" y1="0" x2="1215" y2="5" style="visibility: inherit;" fill="rgb(0, 0, 0)" stroke="rgb(204, 204, 204)" stroke-width="1px"></line><line x1="1336.5" y1="0" x2="1336.5" y2="5" style="visibility: inherit;" fill="rgb(0, 0, 0)" stroke="rgb(204, 204, 204)" stroke-width="1px"></line><line x1="1458" y1="0" x2="1458" y2="5" style="visibility: inherit;" fill="rgb(0, 0, 0)" stroke="rgb(204, 204, 204)" stroke-width="1px"></line></g><g transform="translate(0, 8)"><text x="0" y="0" dx="0em" dy="0.95em" style="text-anchor: middle; visibility: hidden; font-family: Roboto, sans-serif; font-size: 12px; font-weight: 200;" fill="rgb(33, 33, 33)" stroke="none" stroke-width="1px">-5</text><text x="121.5" y="0" dx="0em" dy="0.95em" style="text-anchor: middle; visibility: inherit; font-family: Roboto, sans-serif; font-size: 12px; font-weight: 200;" fill="rgb(33, 33, 33)" stroke="none" stroke-width="1px">0</text><text x="243" y="0" dx="0em" dy="0.95em" style="text-anchor: middle; visibility: inherit; font-family: Roboto, sans-serif; font-size: 12px; font-weight: 200;" fill="rgb(33, 33, 33)" stroke="none" stroke-width="1px">5</text><text x="364.5" y="0" dx="0em" dy="0.95em" style="text-anchor: middle; visibility: inherit; font-family: Roboto, sans-serif; font-size: 12px; font-weight: 200;" fill="rgb(33, 33, 33)" stroke="none" stroke-width="1px">10</text><text x="486" y="0" dx="0em" dy="0.95em" style="text-anchor: middle; visibility: inherit; font-family: Roboto, sans-serif; font-size: 12px; font-weight: 200;" fill="rgb(33, 33, 33)" stroke="none" stroke-width="1px">15</text><text x="607.5" y="0" dx="0em" dy="0.95em" style="text-anchor: middle; visibility: inherit; font-family: Roboto, sans-serif; font-size: 12px; font-weight: 200;" fill="rgb(33, 33, 33)" stroke="none" stroke-width="1px">20</text><text x="729" y="0" dx="0em" dy="0.95em" style="text-anchor: middle; visibility: inherit; font-family: Roboto, sans-serif; font-size: 12px; font-weight: 200;" fill="rgb(33, 33, 33)" stroke="none" stroke-width="1px">25</text><text x="850.5" y="0" dx="0em" dy="0.95em" style="text-anchor: middle; visibility: inherit; font-family: Roboto, sans-serif; font-size: 12px; font-weight: 200;" fill="rgb(33, 33, 33)" stroke="none" stroke-width="1px">30</text><text x="972" y="0" dx="0em" dy="0.95em" style="text-anchor: middle; visibility: inherit; font-family: Roboto, sans-serif; font-size: 12px; font-weight: 200;" fill="rgb(33, 33, 33)" stroke="none" stroke-width="1px">35</text><text x="1093.5" y="0" dx="0em" dy="0.95em" style="text-anchor: middle; visibility: inherit; font-family: Roboto, sans-serif; font-size: 12px; font-weight: 200;" fill="rgb(33, 33, 33)" stroke="none" stroke-width="1px">40</text><text x="1215" y="0" dx="0em" dy="0.95em" style="text-anchor: middle; visibility: inherit; font-family: Roboto, sans-serif; font-size: 12px; font-weight: 200;" fill="rgb(33, 33, 33)" stroke="none" stroke-width="1px">45</text><text x="1336.5" y="0" dx="0em" dy="0.95em" style="text-anchor: middle; visibility: inherit; font-family: Roboto, sans-serif; font-size: 12px; font-weight: 200;" fill="rgb(33, 33, 33)" stroke="none" stroke-width="1px">50</text><text x="1458" y="0" dx="0em" dy="0.95em" style="text-anchor: middle; visibility: hidden; font-family: Roboto, sans-serif; font-size: 12px; font-weight: 200;" fill="rgb(33, 33, 33)" stroke="none" stroke-width="1px">55</text></g><line x1="0" y1="0" x2="1458" y2="0" fill="rgb(0, 0, 0)" stroke="rgb(204, 204, 204)" stroke-width="1px"></line></g></g></g></g></svg>